<svg version="1" xmlns="http://www.w3.org/2000/svg" width="320" height="320" viewBox="0 0 240 240"><g fill="#ccc"><path d="M4 22.6c0 .8.4 1.3 1 .9.5-.3 1.6.8 2.5 2.5.8 1.6 2.1 3 2.7 3 .6 0 .8-.3.5-.7-.4-.3-.2-1.2.5-2 .8-1 .8-1.2-.4-.8-.9.4-2.1-.4-3.2-1.9-1.9-2.9-3.6-3.4-3.6-1zM9.3 33.4c0 1.6.4 2.3 1.3 1.9.9-.3 1.9 1 3.1 3.8.9 2.4 1.9 3.7 2.1 3.1.2-.7-.8-3.2-2.2-5.6-1.4-2.4-2.2-4.6-1.9-5 .3-.3-.1-.6-.9-.6-1 0-1.5.9-1.5 2.4zM23.5 59c.4 1.4 1.4 3.7 2.1 5.2.8 1.5 1.3 3.1 1.2 3.5-.1.4.6 2.9 1.6 5.5s1.6 5.6 1.4 6.5c-.3 1 0 2.4.7 3 2 1.8 1.6-6.6-.5-10.7-.9-1.9-2-4.7-2.4-6.3-.3-1.5-1.6-4.2-2.7-6-1.7-2.7-1.9-2.8-1.4-.7zM166.2 73.7c-.4 1-.7 2.4-.6 3 .1.7.2 1.8.3 2.5.2 2.3 1.4-.2 1.6-3.7.2-3.9 0-4.3-1.3-1.8zM237.5 90.2c0 2.4-.3 6.1-.7 8.2-.5 2.4-.4 3.6.2 3 1.3-1.3 2.5-15.4 1.4-15.4-.5 0-.9 1.9-.9 4.2zM201 95.3c0 .2 1.3 1.3 2.8 2.4 2.7 2 2.8 2 2.9.2.1-1.1-.2-1.7-.7-1.4-.5.3-1.1.1-1.5-.5-.5-.9-3.5-1.5-3.5-.7zM36 99c0 .5.5 1 1 1 .6 0 1 .6 1 1.4 0 .8.7 2.2 1.6 3 1 1 1.1 1.6.4 1.6-.8 0-1 .9-.6 2.5.5 1.9.3 2.3-.9 1.9-.8-.4-1.5-1-1.5-1.5s-.7-.9-1.6-.9c-1.3 0-1.4.3-.5 1.3.6.8.8 1.7.4 2-.3.4.3.7 1.5.7s2.2.4 2.2 1c0 .5.7 1 1.5 1 1.8 0 4.9 4.5 4 6-.3.5-.2 1 .3 1s2.3 3.1 4 6.8c1.7 3.8 3.8 7.4 4.6 8.2 2.2 1.7 2 .1-.4-3.8-1.1-1.8-2-3.9-2-4.6 0-.8-.6-1.6-1.4-1.9-.7-.3-1.6-2-2-3.8-.3-1.9-1.8-5.2-3.3-7.3-1.6-2.6-2.6-5.3-2.5-7.4.1-2-.7-4.5-2-6.3C37.6 98 36 97.2 36 99zM126 107c0 1.1-.4 2-1 2-.5 0-.8 1.4-.7 3 .2 1.7.8 2.9 1.3 2.8.5-.2.8-.6.7-1.1-.2-.4.2-.7.7-.7.6 0 1-.5 1-1.1 0-.5-.4-.7-1-.4-.7.4-.7-.3 0-2 1.3-3.3 1.3-4.5 0-4.5-.5 0-1 .9-1 2zM22.4 108.4c-.1 1.8.5 2.1 3.7 2.3 4.9.3 5-1 .2-2.9-3.6-1.4-3.8-1.4-3.9.6zM215.5 109.2c-.2.7-.6 2.7-.9 4.5-.3 2.3-.1 3 .9 2.7 1.5-.6 2.6-7.3 1.3-8-.4-.3-1 .1-1.3.8zM161.5 112.4c1.4 2.4 1.8 12.3.5 13.1-.5.3-.7 1.2-.3 2 .3 1.1-.2 1.5-1.8 1.5-2.2.1-2.2.2-.6 1.1 1.4.8 1.8 2.1 1.6 5-.4 4.5 1.3 6.4 4.1 4.7 1.6-1 1.6-1.4-.6-4.5-2.1-3.1-2.1-3.7-.9-6.5 1.2-2.9 4.1-5.1 5.6-4.2.4.2.9-.2 1.2-.9.3-.8-.6-1.2-2.5-1.3-2-.1-2.5.2-1.6.7 1 .7.9.9-.3.9-1.1 0-1.8-1-2.1-2.8-.4-2.8 1.3-5.7 2.6-4.4.4.3 1.4.7 2.4.8 1.5.2 1.5.2.1-.9-.9-.7-2.1-2.2-2.7-3.3-.6-1.2-2.2-2.4-3.6-2.6-2.3-.5-2.3-.3-1.1 1.6zM171.2 122.9c-.1 3.3.2 3.9 1.6 3.5.9-.3.7.1-.6.9-2 1.1-2.1 1.5-.9 2.5 2 1.7 4.8-1.5 3.7-4.3-1.3-3-1.2-3.5.7-3.5 1.5 0 1.4-.2-.3-1.5-3.1-2.4-4.2-1.8-4.2 2.4zM183.8 126.5c-.2 1.9-.1 4 .3 4.6.4.7.8-.9 1-3.5.5-5.3-.7-6.3-1.3-1.1zM122 128.1c-.4 3.5-1.2 8.7-1.6 9.9-.4 1.3-.6 1.3-1.5 0-.8-1.1-.9-.4-.4 2.4.4 2.1.2 4.2-.3 4.5-.5.3-.6 1.5-.1 2.6.8 1.9.8 1.9 1.5-.2.3-1.3 1-2 1.5-1.7.5.3.9-.1.9-1 0-.8-.4-1.6-.9-1.8-.5-.2-.2-2.6.8-5.3 1-2.8 1.6-5.6 1.3-6.4-.3-.8 0-1.1.6-.7.6.3 1.4.1 1.8-.6.4-.7.4-1-.1-.6-.4.4-1.4.3-2.2-.3-.7-.6-1.3-1-1.3-.8zM209.2 135.5c-.7 1.4-1.8 2.8-2.5 3.1-1.7.6-.8 7.5 1.1 8.2 1.6.5 1.6-1.5 0-2.1-1-.4-.9-.8.2-1.6.8-.6 1.1-1.1.6-1.1-.5 0 .1-.9 1.4-2 1.3-1.1 1.9-2 1.4-2s-.3-.4.5-.9c1.4-.9.9-4.1-.7-4.1-.5 0-1.4 1.1-2 2.5zM224.2 140c-.7 1.6-2.1 3.1-3 3.3-1.5.4-1.4.5.2.6 1.2.1 1.6.6 1.2 1.7-.3.9-.6 1.8-.6 2 0 .2-1 .4-2.1.4-1.7 0-1.9.3-1 1.4.9 1 .4 3-2 8.6-1.6 3.9-2.8 7.4-2.5 7.7.3.3.8-.3 1.2-1.3.4-1 1.7-4.2 2.9-6.9 1.2-2.8 2.8-6.5 3.5-8.3.7-1.7 1.7-3.2 2.2-3.2.5 0 .8-.6.7-1.3-.1-.6.1-2.5.6-4 1-3.8.2-4.2-1.3-.7zM44 139c-.5.3-4.9.5-9.8.5-5 0-8.8.3-8.6.7.2.3-.9 1.1-2.5 1.6-2.2.8-3.1.7-3.5-.1-.5-.9-.7-.9-1.2 0-.3.7-1.4 1.3-2.4 1.3s-2.1.4-2.4.8c-.3.5 1.6.5 4.2.2 3.1-.5 4.9-.4 5.4.4.5.7.8.5.8-.6s1.2-1.8 4-2.3c3.9-.7 6.4 0 5.6 1.4-.3.4.1.8.8.8.8 0 1.2-.7.9-1.5-.5-1 .2-1.3 2.8-1.1 1.9.2 4.4-.3 5.6-.9 2.5-1.4 3.3-1.5 3.2-.5-.5 2.9.2 3.6 1.9 2 2.5-2.3 5.6-2.3 4.8 0-.6 1.5-.4 1.5 1.4-.2 1.1-1 2-2.2 2-2.7 0-.8-11.5-.7-13 .2zM57.7 140.6c-.4.4.2 1.8 1.3 3.2 1.1 1.3 1.7 2.8 1.4 3.3-.3.5 0 .9.6.9s.8.4.5 1c-.3.5 0 1 .9 1 2.6 0 7.7 6 7.3 8.6-.1 1.3-.6 2.6-1 3-.9 1-.9 2.4.1 2.3 4.9-.8 13 4.5 11.8 7.7-.4 1.2-.2 1.5.9 1 .8-.3 1.5-.1 1.5.5s1.4 2.2 3 3.6c2.3 1.9 2.8 2.9 2 3.8-.8.9-.6 1.4.4 1.8.8.3 1.7.1 1.9-.6.3-.7.8.1 1.2 1.7.6 2.2.4 3.2-1 4.2-1.5 1.1-1.6 1.6-.5 2.9 1.4 1.6 4.5 2.1 3.5.5-.3-.6.1-1 .9-1 1 0 1.3-.6 1-1.8-.5-1.5-.3-1.4 1 .2 1.5 1.8 1.4 2.1-.3 3.7-1.5 1.4-3.5 1.7-11.2 1.5-5.2-.1-11.1.2-13.2.8-2.9.7-4.4.6-5.9-.3-1.6-1-1.8-1-1.2 0 .7 1.2-.7 1.1-5.1-.6-1.4-.6-1.2-.2.7 1.4 2.3 1.8 3.4 2.1 6.5 1.5 4.9-1 22.1-1.1 23.6-.2.8.5.6.8-.4.8-2.2 0-3.3 2.9-1.4 3.6.8.4 1.5 1.1 1.5 1.6 0 1.2-3.9 4.8-5.2 4.8-.4 0-.8.4-.8 1 0 1.5 3.2-.1 5.7-2.8 2.6-2.8 2.8-3.9 1.1-4.4-2-.7 2.9-4.8 5.7-4.8 3.2 0 8.8 5.7 8.1 8.3-.2 1.1-.1 3 .4 4.3 1.1 2.8.7 3-1.4.8-.9-.8-1.6-1.1-1.6-.5 0 .5.5 1.3 1 1.6 1.2.8-1.2 3.5-3.1 3.5-1 0-1-.3-.1-1.2 1.5-1.5 1.6-3.2.1-2.2-.8.4-.9-.1-.4-1.7.4-1.6.3-2-.3-1.1-.7 1.1-1 .8-1.4-1.1-.4-1.9 0-2.7 1.3-3 1.2-.3 1.6-1.1 1.2-2.6-.4-1.6-.9-1.9-1.8-1.1-1 .8-1.7.5-2.8-1-2.4-3.4-2.8-.7-.7 3.6 1.1 2.1 2 4.5 2 5.4 0 .9.5 2.1 1.1 2.7 1.4 1.4.2 3.6-1.6 2.9-.7-.2-1.6-.2-2 .2-.7.7-1.1.8-7.5 1.1-3.8.2-4.1.4-2.2 1.1 1.3.6 3.2.6 4.7 0 1.9-.7 2.3-.6 1.8.5-.3.8-.9 1.5-1.4 1.5-.6 0-.5.8.1 1.9.7 1.3 1.6 1.7 3.1 1.4 1.7-.5 2-.3 1.4.7-.5.8-.4 1.1.2.7.6-.4 1.6-.1 2.2.6 1.1 1.4.3 1.7-4.6 1.7-1.3 0-2.3.5-2.3 1 0 .6-.8 1-1.7 1.1-1 0-1.3.3-.7.5.7.3 1 1.4.7 2.4-.5 1.8.1 2.2 2.3 1.9.4 0 1 .5 1.5 1.2.6 1 1.2.9 2.8-.5 1.9-1.7 2.1-1.7 2.7-.2.3.9 1.2 1.6 1.9 1.6s2.6 1.4 4.2 3c1.5 1.7 3.5 3 4.3 3 1.3-.1 1.3-.2 0-1.3-1.5-1.2-2.5-5.1-1.1-4.3.4.3 2-1.6 3.5-4 1.9-3 3.4-4.3 4.3-4 .8.3 2.3.6 3.2.6 1.8 0 9 4.9 9.1 6.2 0 .3-.8.9-1.7 1.1-1.3.3-1.2.5.5.6 1.5.1 2.1.5 1.6 1.3-.4.6-.3.8.3.5.6-.4 1.8.2 2.8 1.3 2.5 2.7 3.2 2.5 3.7-1 .4-2.5.1-3-2.4-3.5-2.8-.7-5.8-3.8-5.8-6.2 0-.7-1.1-2.9-2.5-4.9-3.1-4.5-2.5-5.7 2-3.8 1.9.8 3.5 1 3.5.5 0-.6-1.8-1.6-4-2.2-3.3-1-4-1.7-4-3.7 0-1.7-.4-2.3-1.5-1.8-1.3.5-1.4.2-.3-1.7.7-1.2 1.2-2.5 1.3-3 0-.4.4-.7 1-.6 1.9.1 2.2-3.5.3-5.5-1-1.1-1.7-2.5-1.4-3.1.2-.7-.5-1.1-1.7-1-1.2.1-2.7-.2-3.4-.7-.7-.5-1.4-.5-1.8.2-.3.5.1 1 .9 1 .9 0 1.6.7 1.6 1.5s.6 1.2 1.3 1c.6-.3 1.8-.1 2.6.4 1.2.8 1.2 1.4.4 3.3-.9 1.8-1.2 1.9-1.2.5-.1-2.1-1.4-2.2-3.1-.2-1 1.2-.9 1.6.4 2.1.9.3 1.6 1.2 1.6 2 0 1-.6 1.1-2.9.3-1.7-.6-2.8-1.6-2.5-2.3.2-.6-.7-2.3-2.1-3.6-2.5-2.4-3.3-5-1.5-5 .6 0 1 .9 1 1.9 0 1.1.4 2.2.9 2.6 1.5.9 2.4-1.5 1.1-3-1.4-1.7-.4-5.5 1.6-5.5 1.7 0 1.7-.5.3-3.2-.8-1.4-.8-2.3 0-3.1.8-.8 1.1-.8 1.1.1 0 .7.5 1.2 1 1.2.6 0 1-.7 1-1.5s-.7-1.5-1.5-1.5-1.9-.9-2.5-2c-.6-1.2-1.6-1.8-2.3-1.3-.7.4-.7.8-.1 1 1.3.4.6 6.1-.9 7-.6.3-1.8-.3-2.7-1.5-1-1.2-2-1.9-2.3-1.6-.2.3-2-.4-4-1.5-3.2-1.8-3.6-1.8-5.3-.3-1.2 1.2-1.4 1.2-.7.2 1.6-2.2 2-6.5.7-6.3-.8.2-1-.6-.6-2 .5-1.9.3-2-1-1-.8.7-1.8.9-2.2.5-.4-.4-1.1-.7-1.4-.7-1.1-.1-7.8-6.8-9.5-9.5-1.8-2.8-1.6-7.8.3-9 .7-.4 1-1.2.6-1.8-.4-.6.2-.8 1.6-.4 1.4.3 1.9.2 1.4-.6-.4-.7-.2-1.2.4-1.2 1.7 0 2.2 2.4 1.1 5.2-.8 2.1-.7 2.5.7 2.4.9 0 1.6.4 1.5 1-.1.7.6 1 1.6.7 1.4-.3 1.9 0 1.8 1.4-.1 1-.6 2.1-1 2.4-.5.3-.1.9.8 1.2.9.4 1.3.3 1-.3-.3-.6-.1-1 .6-1 .8 0 .8-.4-.1-1.5-.7-.8-1-1.5-.6-1.5.3 0 .1-1.1-.4-2.4-.6-1.7-.5-2.9.5-4.2 1.4-1.8 1.4-1.8 1.5-.1 0 1 .5 1.5 1 1.2.6-.3 1 .1 1 1s.5 1.3 1.1 1c.7-.5.5-1.3-.6-2.5-1.5-1.6-1.4-1.8.5-2.3 1.1-.3 2 0 2 .6s.6.2 1.4-.8c1.8-2.4 1.2-3.5-1.4-2.8-1.5.4-2 0-2-1.6 0-2.5-1.6-2.8-2.4-.4-.6 1.9-5 7.3-5.8 7.3-.3 0-.8-.9-1.1-2-.3-1.1-1.8-2.5-3.3-3-2.9-1.1-3.7-.6-6.3 3.8-1.2 2.1-7-1.3-6.4-3.8.4-1.4 0-2-1.1-2-.9 0-1.6-.4-1.6-.9s-.8-.7-1.9-.4c-1.3.3-2.4-.5-4-3-2.5-4-4.5-5.9-5.4-5.1zm47.6 49.4c1 3.8-1 3.9-3 .1l-2.1-4 2.3 1.1c1.3.6 2.5 1.8 2.8 2.8zm-7.6 28.3c-.8.5-.5.7.8.4 1.1-.2 1.9-.9 1.8-1.5-.2-.7.2-1.2.7-1.2 1 0 .7 4.1-.5 6-1 1.5-3.8 1.2-3.2-.4.4-.9-.4-1.6-2.4-2-1.9-.4-2.7-1-2.3-2 .3-.8 1.3-1.2 2.5-.9 1.2.3 1.9 0 1.9-.8 0-1.1.2-1.1 1 .1.6.9.5 1.7-.3 2.3zm16.3 4.3c0 1.6-2.3 4.4-3.7 4.4-1.4 0-1.4-.2.1-2.5.9-1.4 1.2-2.5.6-2.5-.5 0-1-.5-1-1 0-.7.6-.7 2 0 1.1.6 2 1.3 2 1.6zm-5 7.9c0 1.8-6.1 4.6-7.4 3.4-.5-.5-.4-1.4.3-2.3 1-1.2 1.8-1.3 3.4-.5 1.7 1 1.9.9 1.4-.5-.4-1-.1-1.6.8-1.6.8 0 1.5.7 1.5 1.5zM133.3 141.9c-1 1-2.4 2-3.2 2.3-1.9.6-2.2 4.8-.4 4.8.8 0 1.1-.4.8-1-.3-.5 1.1-2.5 3.2-4.5 2-1.9 3.2-3.5 2.5-3.5-.6 0-1.9.8-2.9 1.9zM185.9 141.7c2 3.4 3.8 5.3 5.1 5.3.6 0-.1-1.5-1.7-3.4-3-3.7-5.1-4.8-3.4-1.9zM100 141.8c0 .6-.3 1.7-.6 2.6-.3.9-.1 1.6.6 1.6.6 0 .8-.5.5-1-.8-1.4-.3-1.3 3.4.6 1.7.8 2.9 2 2.6 2.5-.4.5.1.9.9.9 2.1 0 2-1.7-.1-2.9-1.6-.9-1.6-1-.2-1.1.9 0 2.4 1 3.3 2.2 1.6 2.2 1.6 2.1.1-.9-1.4-2.9-1.8-3.1-4.1-2.3-2.2.9-3 .7-4.5-1.1-1.1-1.2-1.9-1.7-1.9-1.1zM151.2 141.9c-1 .6-.8 1 1 1.4 3.6 1 4.8.8 4.8-.8 0-.8-.5-1.5-1.1-1.5-.5 0-.7.6-.3 1.2.6 1 .4 1-.7 0-1.5-1.4-1.9-1.5-3.7-.3z"/><path d="M159.5 144.1c-.3 1-.6 2.3-.4 3 .3 2.9-.2 3.7-2.9 4.2-2 .4-3.2 1.5-4.2 4.1-.7 1.9-1.8 3.2-2.3 2.9-.6-.4-.8.1-.4 1.1.6 1.4.3 1.6-1.3 1.1-1.5-.5-1.8-.3-1.4.9.3.9.2 1.6-.2 1.6-1.2 0-4.1-2-3-2 .5 0 .3-.6-.3-1.3-.6-.8-.8-1.7-.4-2 .3-.4.1-1.3-.6-2.1-.9-1.1-.7-1.5 1.1-2.1 2.7-.8 2.8-.8 5.1 0 1 .4 1.7.3 1.7-.5 0-.6-.5-.8-1.1-.4-.8.5-1-.1-.7-2 .3-1.4.1-2.6-.4-2.6s-.6-.5-.2-1.2c.4-.6.3-.8-.4-.4-.6.3-1.3.2-1.7-.3-.6-1.1-3.5-.4-3.3.7.3 2.9-.4 3.4-1.8 1.2-.9-1.5-1.3-1.7-1-.6.4 1 .1 2.4-.4 3.2-.9 1-.6 1.1 1.6.5 1.5-.4 2.8-1.5 3-2.5.3-2.3 1-3 1.9-1.7.3.6.2 1.1-.4 1.1-.6 0-.8.6-.5 1.4.6 1.6-2.9 4-4.1 2.8-.3-.4-.5-.2-.3.4.4 1.6-4.9 7.4-6.8 7.4-2.3 0-1.3 3.4 1.1 3.8 1.5.2 1.6.1.7-.6-1.1-.8-1.1-1 .2-1.5.8-.3 1.6-.2 1.8.4.2.5.9 0 1.6-1.2.8-1.2.9-1.8.3-1.4-.6.3-1.1.2-1.1-.2 0-.5.9-1.4 2.1-2.1 1.9-1.2 2-1.2 1.4 1-.4 1.3-1.3 3-1.9 3.8-1 1.3-.9 1.3.8 0 1.8-1.4 1.9-1.3 1.3.2-.3 1-.2 2 .4 2.3 1.2.8.3 5.6-1.2 6.6-.7.4-1.8.5-2.5.2-.8-.3-1.1.2-.7 1.5.3 1.3-.3 2.5-1.7 3.5-1.6 1.1-2 2.1-1.5 3.4.6 1.6.8 1.6 1.6-.5 1-2.6 3.6-2.9 4.2-.5.4 1.4.5 1.3.6-.4 0-1.2-.4-2.3-1.1-2.5-.7-.3.4-2.1 2.7-4.7 2.2-2.3 4.7-5.4 5.6-6.8.9-1.4 1.9-2.1 2.1-1.6.3.4.4.3.2-.3-.3-1.3.5-2.4 2.9-4.3 1.4-1.1 2-1.1 3.2-.1 2 1.7 1.9 2.7-.4 3.5-1.1.3-2.2 1.3-2.6 2.3-.5 1.4-.4 1.5.6.4.7-.6 1.7-1.2 2.1-1.2 1.1 0 1 4.7 0 5.2-.5.1-.5 1.4-.2 2.8.6 2.4.8 2.3 2.8-2 1.2-2.5 2-3.8 1.8-2.9-.3 1.2.3 1.6 2.6 1.7 2.2 0 2.8-.3 2.4-1.4-.3-.8-.2-1.4.3-1.4 1.4 0 3.1 2.6 2.3 3.5-.4.4.3.1 1.6-.6 2.4-1.5 2.7-2.4 1.1-3.4-.6-.4-.8-1.3-.5-2.1.3-.8-.3-1.9-1.3-2.6-2-1.2-1.7-4.3.3-3.1.6.3.3-.2-.6-1.3-1.2-1.3-1.4-2.4-.8-3.4.8-1.2 1-1 1 .7 0 2.5.7 2.8 3 1.3 1.3-.9 1.3-1.2-.1-2.3-.8-.6-2-2-2.5-2.9-.7-1.2-1.4-1.4-2.4-.8-1.3.8-1.2 1 .3 1 1.4 0 1.5.3.6 1.9-.7 1-2 1.6-2.9 1.4-1-.3-2.1 0-2.4.5-.4.6.2.8 1.4.5 1.6-.4 2 0 2 2.1 0 1.4.9 4.1 2 6.1 2.4 4.3 2.5 5.2.4 3-.9-.9-2.3-1.4-3.1-1.1-.8.3-1.1.1-.8-.4.3-.6.1-1-.5-1-.7 0-.9-.9-.5-2.3.5-1.8.3-1.7-1 .5-.9 1.6-1.8 2.8-2.1 2.8-1 0 .7-5.4 1.9-6.2.9-.6.8-1-.2-1.7-1-.6-1.2-2.1-.9-4.7.6-4.6-.6-9-1.7-6.3zM105.7 153.6c-1.1 1.5-1.3 2.4-.6 2.4.6 0 .9.8.6 2-.3 1.1-.1 2.3.4 2.6.5.3.9 0 .9-.5 0-.6.7-1.1 1.6-1.1 1.1 0 1.4-.8 1-3.1-.7-4.5-1.8-5.1-3.9-2.3zM202.4 151.8c.4.7.1 1.5-.9 1.8-1 .4-1.3 1.3-1 2.5.9 2.8-1 2.3-3-.7-.9-1.4-1.9-2.3-2.3-2-.3.3.5 1.7 1.7 3 2.3 2.5 2.1 4.6-.4 4.6-.8 0-1.1.7-.8 2 .6 2.3 2.3 2.7 2.3.6 0-.8.7-1.6 1.5-2 .8-.3 1.5-.1 1.5.4s.7.7 1.5.4c1.4-.6 1.3-.8-.2-1.9-1-.8-1.5-1.7-1.1-2.1.4-.4 1.4-.1 2.3.6.9.7 1.5.8 1.5.2 0-.6-.5-1.2-1.1-1.4-.9-.3-.9-.9-.1-2.5.9-1.7.8-2.4-.5-3.4-1.2-1-1.5-1-.9-.1zM119.8 155c-.3 1.9-.2 4.2.3 5 .8 1.3.9 1.3.7 0-.1-.8.4-2.6 1.1-3.9.7-1.3.8-2.1.3-1.7-.6.3-1.2-.2-1.4-1.1-.2-1-.7-.3-1 1.7z"/><path d="M114 153.8c0 .4.4 1.2 1 1.8.5.5.6 2.2.1 3.9-.6 2.3-1.3 2.9-2.9 2.7-1.2-.2-2.2.2-2.2.7 0 .6-.8 1.1-1.7 1.2-1.2 0-1.3.2-.5.6.7.3 1.9-.1 2.8-.7 1.9-1.7 2.8-.7 2 2.5-.7 2.9-2.2 3.3-2.9.7-.3-1-.5-.6-.6 1.1-.1 1.9-.5 2.6-1.3 2.1-.6-.4-.8-.3-.5.4.4.5 1.8.9 3.2.7 2.4-.2 3.5 1 1.6 1.7-.6.2-.6 1.8-.2 3.8.9 4.6 2 2.7 1.8-3.2 0-2.6.2-5 .6-5.4.3-.4 2-.1 3.6.5 3.2 1.4 7.7-.1 6.5-2-.4-.6-1.4-.3-2.6.8-1.5 1.3-2.2 1.5-2.5.5-.3-.6-1.7-1.3-3.1-1.3-1.6-.1-2-.3-1-.6 1.2-.3 1.6-1.3 1.3-4.1-.2-2-.1-2.9.2-2 .2 1 .9 1.8 1.5 1.8s.7-.7.2-1.8c-.4-.9-.7-2.9-.7-4.5 0-2-.5-2.7-1.8-2.7-1.1 0-1.9.4-1.9.8zM61.8 159.9c.7.4 1.4 1.8 1.5 2.9.2 2.6.3 2.6 2.1 1 1.1-1.1 1-1.6-.7-3-1.1-1-2.5-1.8-3.1-1.8-.6 0-.6.4.2.9zM100.1 160.5c2 4.3 3.4 6.5 4.5 6.9 2.1.8 1.7-1.1-.3-1.9-1.7-.7-1.6-.8.2-1.5 1.6-.7 1.7-.9.3-.9-.9-.1-2.4-.9-3.4-1.8-.9-1-1.5-1.3-1.3-.8zM28 165.6c0 .3 2.1 2.7 4.8 5.1 2.6 2.5 4.6 4.9 4.4 5.5-.1.5.1.7.6.4 1.4-.8 5.3 2.4 4.6 3.7-.4.7-.3.9.1.4 1.7-1.5 1.2-4.3-.8-4.4-2.4-.2-4.7-2.1-4.7-4 0-.7-.7-1.6-1.5-1.9-.8-.4-1.2-1.1-.8-1.7.3-.5.1-.7-.4-.4-.6.4-2.2-.3-3.7-1.4-1.4-1.1-2.6-1.7-2.6-1.3zM176.4 166.5c.4 1.1-.1 1.5-1.7 1.5-1.8 0-1.9.2-.7 1 1.3.9 1.3 1 0 1.1-4.4.5-9 .3-9-.4 0-.4-.5-.7-1.1-.7-.5 0-.7.4-.4 1 .3.5 0 1-.7 1-.9 0-1.3 1.5-1.4 4.5-.1 2.5.1 4.5.5 4.5.9 0 4.5-6.3 4.2-7.4-.1-.5.8-.6 1.9-.3 1.3.3 4.7-.6 8.3-2.4 4-1.8 5.4-2.9 4-2.9-1.3 0-2.3-.5-2.3-1 0-.6-.5-1-1.1-1-.6 0-.9.7-.5 1.5zM212.3 168.1c-.8.8 0 2.6 3.3 6.6 2.4 2.9 4.4 6.3 4.4 7.3 0 1.1.5 2 1 2 .6 0 1-.6 1-1.4 0-2.1 2-3 3.3-1.7.6.6 1.6 1.1 2.2 1.1.5 0 .2-.5-.7-1.1-1-.5-1.8-1.7-1.8-2.5 0-1.1-.4-1.3-1.7-.5-1.5.8-2.4.3-5-2.6-1.8-2-3.3-4.7-3.3-6 0-2.5-1-2.9-2.7-1.2zM193 169.4c0 .7.6 2 1.3 3 1.2 1.6 1.4 1.6 2.6.2 1.5-1.8.9-3.2-1.9-3.9-1.2-.3-2 0-2 .7zM178.7 170.4c-.4.9-.1 1.6.5 1.6s1.9.7 2.8 1.5c1.4 1.3 1.6 1.2 1.7-.5.1-1.1-.3-2.3-.9-2.6-.7-.4-.8-.2-.4.4 1.1 1.8-.5 1.4-1.9-.4-1.1-1.6-1.2-1.6-1.8 0zM44.2 172.9c.7 1.1 1.5 1.8 1.9 1.5.4-.2.9.1 1.1.7.2.7 1 1 1.7.8 1.7-.6-2-4.9-4.3-4.9-1.3 0-1.4.3-.4 1.9zM124.6 173.6c.9 1.2 2.1 2.5 2.9 2.8 1.9.7 3.6-1.6 2.5-3.4-.6-.8-1-1.1-1-.6 0 .5-.6.4-1.2-.1-.7-.6-2-1-3-1-1.5 0-1.5.3-.2 2.3zM8.6 172.8c-.4.7-.2 1.2.3 1.2.6 0 1.1 1.3 1.1 3 0 1.6.5 3 1 3 1.3 0 1.2-1.8-.4-5.5-.8-1.9-1.5-2.5-2-1.7zM95.2 173.9c.9 1.5 1.5 1.7 2.9.8 2-1.3.8-2.7-2.4-2.7-1.4 0-1.5.3-.5 1.9z"/><path d="M106.8 174.2c-3.1 2.2-3.6 4.3-1.3 5.2.9.3 1.5 0 1.5-.9 0-.7.7-2.1 1.6-2.9 2.5-2.6 1.2-3.6-1.8-1.4zM153.4 175.3c.3 1.3.1 3.8-.4 5.6-1.4 4.9 1.2 3.4 3-1.8 1.3-3.7 1.3-4.3 0-5.1-2.4-1.6-3.3-1.1-2.6 1.3zM189.8 177.7c-1.1.3-1.8 1.4-1.8 2.9 0 4.2-4.9 13.4-7.1 13.4-1.7 0-1.8.3-.8 2.2.8 1.6.9 2.3.1 2.6-.6.2-.9.9-.6 1.6.3.8-.4 1.6-1.6 1.9-1.5.4-1.9 1.1-1.6 2.9.2 1.2-.2 3-1 3.8-1.1 1.3-1 1.7.5 2.7 1.5 1 2.2.8 3.8-1.1 1.1-1.2 1.8-2.7 1.6-3.2-.2-.6.3-1.7 1.2-2.4.8-.7 1.5-2 1.5-3 0-1.3.6-1.6 2.5-1.2 1.5.2 2.5 0 2.5-.7 0-.6-1.2-1.1-2.6-1.1-2 0-2.5-.4-2-1.6.3-.9.6-1.9.6-2.3 0-.5 1-1.9 2.3-3.3 2.7-2.9 6.3-12.6 5.1-13.7-.5-.4-1.7-.6-2.6-.4zM148 179.7c-1.6.7-3.9 3.3-4 4.6 0 .4.6.3 1.3-.3.6-.5 2.3-1.9 3.7-3 2.4-1.9 2-2.4-1-1.3z"/><path d="M180.7 179.7c-.4.4-2.8 1.4-5.4 2.3-2.6.9-4.9 2.2-5.1 3-.5 1.3-.3 1.3 1.1.1.9-.7 2.6-1.1 3.7-.8 1.1.3 2 .2 2-.3 0-.4.9-1 2-1.3 1.5-.4 2 0 2 1.6s.3 1.8 1.2.9c.9-.9 1.5-.9 2.7.1 1.2 1 1.4.9.8-.6-.4-1-.7-2.1-.7-2.3 0-.2-.7-.4-1.6-.4-1 0-1.4-.6-1-1.5.5-1.5-.5-2-1.7-.8zM101 181.6c0 .8 1 1.4 2.5 1.4 1.6 0 2.3-.5 1.9-1.3-.6-1.8-4.4-1.9-4.4-.1zM122 181.2c0 .4-.7.5-1.6.1-1.4-.5-1.4-.3-.3 1.5 1.6 2.6 3.9 3.6 5.2 2.3.6-.6.3-.9-.8-.8-1 .1-2-.4-2.3-1.2-.2-.8 0-1.1.6-.7 1.2.7 4.2-.3 4.2-1.4 0-.4-1.1-.7-2.5-.6-1.4 0-2.5.4-2.5.8zM128 185.5c-.7.8-.9 1.5-.4 1.5.5.1-.2.7-1.6 1.6l-2.5 1.4 2.5-.2c1.4-.2 2.5-.9 2.5-1.8 0-.8.4-2.1.8-2.8 1.1-1.7.2-1.5-1.3.3zM132.7 185.8c-1.6.3-1.5.5.4 2.1 1.1.9 2.2 2.9 2.2 4.4.1 1.5.8 2.7 1.5 2.7.9 0 1.1-.7.6-2.2-1.7-5.5-3-7.3-4.7-7zM221.6 185.9c-.4.5 0 1.2.6 1.4.7.3.4.6-.7.7-1.9.1-1.9.1-.2 1.1 2.5 1.4 5.3-.7 3.6-2.7-1.3-1.6-2.5-1.8-3.3-.5zM9.8 187.2c1.6 1.6 1.5 2.8-.3 2.8-.8 0-1.5.5-1.5 1.1 0 .6.9.8 2 .4 1.4-.5 2-.2 2 .9 0 2 1.6 2.1 2.4.1.3-.9 0-1.5-.9-1.5s-1.5-1-1.5-2.5c0-1.7-.6-2.5-1.7-2.5-1.3 0-1.4.3-.5 1.2zM209.5 191.5c.4 2.9 1.8 4.5 5.8 6.6 1.3.7 1.7.6 1.7-.5 0-1-.6-1.3-1.7-.9-1.6.6-1.6.5-.4-1 .9-1.2 1-1.7.2-1.7-.7 0-.9-.5-.6-1 .3-.6.1-1-.5-1-.7 0-1 .7-.6 1.5.3.9 0 1.5-1 1.5-.8 0-1.2-.5-.9-1 .3-.6.1-1-.5-1s-.9-.4-.6-.8c.2-.4 0-1.4-.5-2.2-.7-1.1-.8-.6-.4 1.5zM5 191.1c0 .5-.6.7-1.2.4-.7-.4-.5 0 .5.8.9.8 1.7 2 1.7 2.8 0 .8.5 2.1 1 2.9.7 1.1.8.5.4-2-.3-1.9-.6-4.1-.6-4.8-.2-1.5-1.8-1.6-1.8-.1zM55 191.2c0 .5-1 1.3-2.2 1.8-2.2.8-2.2.9.4.7 1.5-.1 2.4-.5 2.2-.9-.5-.8 1.7-1.2 4.4-.9.6.1 1.2-.3 1.2-.8s-1.3-.9-3-.9c-1.6.1-3 .5-3 1zM167 191c0 .4.6 1.3 1.4 2 1.2.9 1.2 1.7.4 3.5l-1.1 2.4-2.7-1.9c-3.5-2.5-3.9-2.5-3.3.1.6 2.1.6 2.1-2.2.3l-2.8-1.8 1.4 2.2c1.8 2.8 3.6 3.4 6.1 2.1 1.3-.7 2.3-.8 2.7-.1.6 1 5.1-.2 5.1-1.4 0-.3-.7-.3-1.6 0-.8.3-1.2.2-.9-.4.3-.5.8-2.3 1-3.9.2-2.2-.1-3-1.6-3.4-1-.3-1.9-.2-1.9.3zM226.2 191.7c-1 .4-1 .8-.1 1.9.9 1.1.9 1.4-.1 1.4-.7 0-.1 1.1 1.4 2.5 3.2 3 4.7 6.5 3.9 9.5-.5 1.7-.3 2.1.6 1.6.8-.5 2 0 3.2 1.3 1.1 1.2 2.5 2.1 3.2 2.1.9 0 .8.3-.1.9-1 .6-1 1 .3 2.1 2.7 2.2 1.8-1.4-1.7-7-2.6-4.2-3-5.5-2.1-7 1-1.4.9-1.7-.4-1.6-.9 0-2.5-1.4-3.6-3.2-1.7-2.8-1.8-3.5-.6-4.3 1.1-.7.9-.9-.6-.8-1.1 0-2.6.3-3.3.6zM26.3 194.6c.4.5-.3 1.4-1.5 2.2-1.3.7-1.6 1.1-.7.8.9-.2 2.2.1 2.8.7.9.9 1.1.7.6-.8-.7-2-.6-2 .9-.1s2.3 4.7 1 3.3c-.9-.9-4.4 1.1-4.4 2.4 0 .6.7.9 1.5.5 1.7-.6 2.1.9.5 1.9-.5.3-1 1.3-1 2.1s.5 1.2 1 .9c.6-.4.8-1 .5-1.4-.2-.5.9-1.1 2.5-1.5 1.7-.3 3.3-1.4 3.7-2.3.4-1 1.4-2.3 2.2-3 1.3-1 1-1.1-1.8-.7-1.8.3-3.1.2-2.8-.3.7-1.1-1.4-3.8-3.8-4.7-1.1-.4-1.6-.4-1.2 0zM45.6 196.7c-.3.7-1.6 1.3-2.8 1.4h-2.3l2.3 1.2c1.6.7 2.2 1.7 1.8 3-.3 1.1-.1 1.6.4 1.1.4-.5 1-2 1.2-3.4.1-1.4.9-3 1.7-3.6 1.1-.9 1.1-1.1-.2-1.1-.9 0-1.8.6-2.1 1.4zM150.5 196c-.8 1.3-1.6 9.2-1.5 14.7.1 4.6-1.2 5.6-3 2.3-.6-1.1-.8-2-.4-2s0-.8-.8-1.8c-.8-.9-2.1-3.2-2.8-5-1.7-4.3-2.7-4.8-2.6-1.2.1 1.7.5 3 1 3 .4 0 .5 1.1.2 2.5-.9 3.4.2 5.1 1.8 2.9 1.1-1.4 1.3-1.2 1.1 2 0 2 .3 3.6.8 3.6.4 0 .5.5.2 1-.3.6.1 1.3 1 1.6 1.2.5 1.3.9.5 1.4-1.4.9-5.2.1-4.6-.9.3-.4-.4-.8-1.5-.8-1.7-.2-1.8 0-.4 1.3 2.1 2.1 1.9 2.7-.6 1.4-2.5-1.4-4.1-.3-1.6 1.1.9.6 1.7 1.6 1.7 2.3 0 .8 1 1.1 3 .8 1.7-.2 3 0 3 .6s1 1.4 2.1 1.7c1.6.5 1.8.9.9 1.5-1 .6-.7 1.4.9 3.1 2.2 2.4 2.2 2.4.2 2.7-1.2.2-2.1.6-2.1.9 0 1.2 3.6 3.2 5.8 3.3 2.4 0 2.8-1 1-2.8-.6-.6-1.2-2-1.3-2.9-.1-1-.6-5.1-1-9.2-.6-5.2-.5-7.2.3-6.7.6.3 1.4.1 1.8-.6.4-.7.4-1-.1-.6-1.6 1.5-3.5-1.3-2.4-3.3.5-1.1 1.1-5.7 1.3-10.4.2-7.9-.3-10.1-1.9-7.5zM49.3 197.2c-.6.9-.6 2.1.2 3.6 1 1.9 1.4 2 1.8.8.4-.9.2-1.6-.4-1.6-.6 0-.6-.7.1-2 1.2-2.2-.2-2.8-1.7-.8zM171.5 202.8c-1.1 2-2.1 4-2.3 4.4-.2.5.1.8.6.8.9 0 4.5-8 3.9-8.7-.2-.1-1.2 1.4-2.2 3.5zM5 202.1c0 .4.6 1.2 1.4 1.9.8.6 1.2 1.9.9 2.7-.4 1.1-.2 1.4.5.9.7-.4 1.2-1.9 1.2-3.4 0-2.1-.5-2.8-2-2.8-1.1 0-2 .3-2 .7zM62.5 202c-.7 1.2 2.4 8 3.6 8 .5 0 .3-1.3-.5-2.9-.9-1.6-1.2-3.2-.8-3.6.4-.5.1-.4-.7 0-1.1.6-1.3.4-.8-.8.7-1.9.2-2.3-.8-.7zM58 202.9c0 1.5-3.3 2.2-4.2.9-.6-1-.8-.9-.8.3 0 .9.7 2 1.6 2.3.8.3 1.2 1 .9 1.6-.3.5-.2 1 .3 1 .4 0 1.6-1.6 2.5-3.5.9-1.9 1.2-3.5.7-3.5-.6 0-1 .4-1 .9zM35.9 204.2c-.9 4-.7 4.7 2.1 5.7 1.8.6 3 .6 3 0 0-.5-.9-.9-2.1-.9-1.5 0-1.9-.4-1.4-1.9.3-1.1.1-2.2-.5-2.6-.5-.3-1-.5-1.1-.3zM162.4 205.3c-.5 1.4-.9 1.5-2 .6-2-1.7-1.8.4.4 3l1.7 2.1 1.1-2.4c.6-1.3.8-3 .3-3.7-.6-1.1-.9-1-1.5.4zM77.5 209.1c1.7 1.3 3.2 2.7 3.3 3.1.2.5 1.3.8 2.5.7 2.2 0 2.2 0 0-.9-1.3-.5-2.3-1.6-2.3-2.5 0-.8-.6-1.5-1.4-1.5-.8 0-2.3-.3-3.3-.7-1-.3-.4.5 1.2 1.8zM14.4 210.8c.4.7.3 1.2-.3 1.2s-.8.7-.5 1.5c.4.8.1 1.5-.5 1.5s-1.1-.5-1.1-1.2c0-.6-.3-.8-.6-.5-.4.4-.1 1.3.6 2.2 1 1.2 1.6 1.3 2.6.4 1.7-1.4 1.8-4.5.2-5.5-.7-.4-.8-.3-.4.4zM41 213c-1.7 1-1.3 1.5 1.6 2.4 2.2.7 6.1-2 4.9-3.3-.4-.3-1.2.2-1.9 1.2-1.3 1.7-3.2 2.5-2.1.8.8-1.4-.9-2.1-2.5-1.1zM159.8 214.4c-3.8 3.2-3.5 3.9.7 1.5 1.9-1.2 3.2-2.5 2.9-3-.7-1.2-.5-1.3-3.6 1.5zM171.4 214.7c-1 .7-1.3 1.3-.6 1.3.6 0 .9.7.6 1.5-.4.8-.1 1.5.6 1.5.6 0 .8.5.5 1.1-.4.6-1.3.8-2.1.5-1.8-.7-3.6 2.7-2.7 5 .5 1.3.3 1.6-.9 1.1-1.1-.4-2.4.6-4 3.1-4.5 6.8-5.4 10.2-2.8 10.2 1.2 0 3-2 5.1-5.8 1.8-3.1 4.3-7.1 5.7-8.9 2-2.7 2.7-3.1 4.8-2.3 2.7 1.1 3.4-.4.9-1.8-1.8-1-1-4.2 1.1-4.2 2.2 0 .5-2.8-2-3.2-1.3-.3-3.2.1-4.2.9zM65.9 214.9c-1.2.4-1.4 1.2-.8 2.6.7 1.8.8 1.9.8.1.1-1.3.6-1.7 2.1-1.3 1 .3 2.4 0 2.9-.7 1.1-1.3-2.3-1.8-5-.7zM76.8 214.7c-1.4.2-2.9 1.1-3.2 1.9-.6 1.6.9 1.9 1.9.4.3-.6 2-1 3.6-1 1.8 0 2.8-.4 2.4-1-.3-.6-.9-.9-1.3-.9-.4.1-1.9.4-3.4.6z"/><path d="M80.3 218.8c2 .9 4 2.5 4.3 3.5.4 1.4.9 1.6 1.9.7.8-.7 2-.8 2.6-.4.8.4.9.3.5-.4S88 221 86.9 221c-1.2 0-1.9-.7-1.9-1.8 0-1.5-.8-1.9-4.2-2l-4.3-.1 3.8 1.7zM77.7 220.8c.8 2.2 2.3 3.1 3.9 2.5 1.6-.6.1-2.5-2.8-3.6-1.3-.4-1.5-.2-1.1 1.1zM217.1 219.9c-.8.5-2 .7-2.7.4-1.2-.4-3 1.4-2.2 2.2.6.7 6.8-1.8 6.8-2.7 0-1-.2-1-1.9.1zM66.6 221.9c-.4.5-.4 1.6 0 2.4.7 2-2.2 2.9-3.7 1.1-1-1.2-1.3-1.2-2.4.2-.7 1.1-1.7 1.4-2.5.9-1-.6-.9-1.1.6-2.2 1.8-1.4 1.8-1.4-.6-1.1-1.6.2-2.6 1-2.8 2.4-.3 1.8.2 2.1 3 1.9 4.9-.3 6.2.3 4.6 2.4-1.2 1.4-1.1 1.5.5.2 1.4-1.2 2-1.2 2.6-.2.6.9 1.1.8 2.2-.5 1.2-1.6 1.2-1.7-.3-1.1-2.1.8-2.4-.6-.4-2.2 1.1-.9 1.5-.8 2.1.6.5 1 .9 2.3.9 3 .1.6 1.1 2 2.4 3.1 2 1.8 3.2 4.9 1.4 3.8-.5-.3-.9.1-.9.9s.4 1.2.8.9c.4-.2.9.2 1.2.8.4 1 .7 1.1 1.8 0 .7-.6 1.8-1.2 2.4-1.2.5 0 .3.5-.5 1-1.1.7-.2.9 3 .7 3.3-.1 4.6-.6 4.8-1.9.3-1.5-.2-1.7-2.9-1.1-2.2.4-3 .3-2.5-.5.7-1.2 4.5-1.3 6.1-.1.7.5 1.1 0 1.2-1.2.2-1.7-.2-2-2.2-1.5-3 .8-5.5-.2-5.5-2.1 0-1.2-.2-1.2-1.6.1-2 2-4.8 2.1-4.1.2.3-.8.1-1.6-.4-1.8-1.6-.5.2-3.9 1.9-3.6.8.2 1.7-.3 1.9-.9.3-.9-.4-1.1-2.5-.7-2.4.5-3 .2-3.5-1.5-.3-1.2-1.1-2.1-1.8-2.1-1 0-1 .3-.2 1.1.6.6.9 1.7.6 2.5-.4 1-.9 1.1-2.4.1-1-.6-1.9-1.5-1.9-2 0-.4.5-.5 1.2-.1s.8.3.4-.4c-.9-1.4-1.3-1.5-2-.3zM30.6 223.2c.3.4 1.2.8 2 .8 2.2 0 1.7 1.3-2.1 4.5-1.9 1.7-3.5 3.5-3.5 4.1 0 .6-1 2.3-2.1 3.8-1.2 1.5-1.9 2.9-1.7 3.1.2.2 2.2-1.8 4.3-4.5 2.2-2.8 4.6-5 5.3-5 .7 0 1.1-.4.8-.8-.3-.5.4-1.6 1.5-2.5 3.1-2.7 2.4-4.7-1.6-4.5-1.9.1-3.2.5-2.9 1zM13.6 227.2c-.5 1.9-.8 2.1-1.6.8-.8-1.1-.9-.8-.4 1.2.4 2.1.2 2.9-1 3.3-.9.3-2.3.7-3.2 1-1.3.4-1.3.7-.2 1.7 2.5 2.3 7.9 4.8 10.4 4.8 2.1 0 2.3-.2 1.2-1.4-.7-.8-1.7-1.3-2.3-1.3-.5.1-.9-.3-1-.8 0-.6-.3-1.5-.7-2.1-.7-1.1-.4-4.7.6-6.2.2-.4.1-1.4-.3-2.1-.6-.9-1-.6-1.5 1.1zM203.3 231c-1.3.5-2.3 1.6-2.3 2.4 0 1.7-3.9 4.8-5.2 4-.4-.3-.5.2-.2 1 .9 2.2 2 2 4.2-.9 1.1-1.4 2.6-2.5 3.3-2.5 2.2-.1 5.2-2.8 4.4-3.9-.7-1.3-1.2-1.3-4.2-.1zM59.9 232.4c-.2.2-2.2.7-4.3 1-2.2.4-4.2.9-4.5 1.2-.6.6 1.9 2.4 3.4 2.4.6 0 .3-.5-.5-1s-1.3-1-1-1.1c5.5-1.1 7.3.2 3.5 2.7-1.4.9-2.3 1.9-2.1 2.2.3.3 1.2-.1 2.1-.8 1.2-1 1.8-1 3 0 .8.6 2 1 2.7.7.8-.3.3-.9-1.2-1.5-2.1-.8-2.2-1.1-.7-1.6 5.3-1.8 5.3-1.9 3.2-2.4-1.1-.2-2.3-.8-2.6-1.3-.3-.5-.7-.7-1-.5zM43.3 236c.1 1.1.7 2 1.5 2 .7 0 1-.5.6-1.1-.4-.7 0-.9 1.4-.5 1.3.5 2.2.1 2.6-1 .5-1.4.4-1.5-.8-.5-1 .8-1.6.9-2.1.1-1.1-1.8-3.4-1.1-3.2 1zM119 238.5l-2.5 1.5 3.6-.2c2.6-.1 3.5-.6 3.2-1.5-.6-1.6-1.2-1.6-4.3.2z"/></g></svg>