<?xml version="1.0" standalone="no"?>
<!DOCTYPE svg PUBLIC "-//W3C//DTD SVG 20010904//EN"
 "http://www.w3.org/TR/2001/REC-SVG-20010904/DTD/svg10.dtd">
<svg version="1.0" xmlns="http://www.w3.org/2000/svg"
 width="240.000000pt" height="240.000000pt" viewBox="0 0 240.000000 240.000000"
 preserveAspectRatio="xMidYMid meet">
<metadata>
Created by potrace 1.15, written by Peter Selinger 2001-2017
</metadata>
<g transform="translate(0.000000,240.000000) scale(0.100000,-0.100000)"
fill="#000000" stroke="none">
<path d="M0 2151 c0 -240 1 -249 20 -254 11 -3 18 -1 14 4 -3 5 0 9 5 9 6 0
11 6 11 14 0 8 7 16 15 19 11 5 11 0 -3 -28 -12 -24 -24 -35 -40 -35 -22 0
-23 -2 -20 -92 l3 -93 29 -3 c21 -3 26 -6 16 -12 -8 -5 -22 -4 -32 1 -15 8
-18 6 -18 -15 0 -13 6 -27 13 -29 10 -4 10 -6 0 -6 -10 -1 -13 -36 -13 -141
l0 -140 25 16 c14 9 25 21 25 27 0 7 -4 7 -12 -1 -7 -7 -17 -12 -22 -12 -14 1
24 23 43 27 8 1 22 -2 30 -7 14 -8 14 -9 0 -10 -20 0 -43 -52 -36 -79 3 -12
-1 -22 -10 -25 -12 -5 -13 -9 -3 -21 11 -13 10 -14 -2 -10 -11 4 -18 -2 -22
-18 -3 -14 -9 -33 -13 -44 -6 -16 -5 -16 11 -4 15 12 19 12 33 -2 15 -15 14
-16 -10 -23 -23 -5 -27 -12 -27 -40 0 -31 2 -34 33 -35 17 -1 36 -1 40 0 64
10 95 22 101 37 3 9 1 12 -4 9 -14 -9 -12 3 3 19 10 12 16 12 39 0 16 -9 25
-20 22 -28 -4 -9 2 -14 18 -15 42 -1 68 -5 68 -10 0 -2 -6 -12 -14 -20 -16
-19 -27 -116 -14 -129 6 -6 3 -12 -6 -15 -13 -5 -16 1 -16 27 0 19 -6 37 -13
39 -9 4 -9 6 1 6 15 1 16 43 0 59 -9 9 -9 12 0 12 6 0 9 6 7 13 -3 6 -23 13
-45 13 -23 1 -37 -2 -34 -8 3 -5 12 -7 20 -4 7 3 16 1 19 -4 4 -6 -5 -10 -19
-10 -13 0 -37 -5 -53 -11 -33 -13 -84 -18 -77 -8 5 9 -21 19 -52 19 -28 0 -32
-16 -7 -23 16 -4 15 -6 -3 -12 -22 -7 -22 -9 -23 -306 0 -251 2 -301 14 -305
12 -5 12 -10 -3 -32 -9 -14 -11 -23 -5 -19 8 5 23 -2 38 -17 13 -13 34 -28 46
-31 17 -6 19 -9 8 -16 -10 -6 -5 -9 16 -9 17 0 37 -5 45 -10 10 -7 -1 -8 -35
-3 -27 4 -63 7 -80 8 -34 0 -29 25 -42 -203 l-5 -102 51 0 c51 0 51 0 51 32 0
35 12 32 14 -4 1 -17 8 -24 28 -26 28 -3 28 -4 18 63 -1 6 -8 -6 -16 -25 l-14
-35 5 34 c3 18 5 41 5 50 0 14 2 14 10 1 5 -8 10 -10 10 -5 0 6 10 16 21 24
20 12 21 11 17 -13 -3 -14 -2 -23 2 -21 12 7 19 -18 13 -48 l-5 -26 331 -1
c300 0 332 1 338 16 6 16 7 16 19 0 9 -13 24 -16 66 -14 48 3 53 5 56 28 4 22
2 23 -14 10 -10 -8 -15 -10 -11 -3 4 6 3 14 -2 18 -6 3 -7 13 -4 21 4 11 9 12
16 5 20 -20 25 -11 16 29 -9 41 -29 80 -40 80 -13 0 -26 -47 -22 -81 3 -22 0
-39 -9 -46 -15 -13 -16 10 -2 92 12 73 10 83 -11 99 -19 14 -16 15 33 16 l52
0 0 36 c0 26 5 37 18 41 13 3 18 13 17 36 -1 24 5 37 24 50 l26 19 -25 -6
c-15 -4 -9 2 15 14 22 11 47 19 55 19 11 -1 10 -3 -2 -6 -18 -4 -26 -43 -9
-43 11 0 22 -71 13 -84 -5 -6 -7 -22 -5 -36 2 -14 4 -31 5 -37 1 -7 6 -13 11
-13 5 0 7 6 4 14 -3 8 1 13 11 12 10 0 17 6 17 16 0 20 15 37 15 17 0 -23 20
12 20 37 0 30 25 61 35 44 5 -9 4 -11 -3 -6 -7 4 -12 2 -12 -3 0 -6 6 -11 14
-11 8 0 18 -16 23 -37 5 -24 17 -42 31 -49 20 -10 21 -12 7 -18 -20 -7 -56 -7
-38 1 10 3 10 7 0 18 -7 7 -16 10 -22 7 -5 -3 -4 2 4 11 12 15 11 17 -3 17
-19 0 -49 -28 -59 -55 -4 -10 -10 -15 -14 -12 -3 4 -12 2 -19 -4 -10 -8 -10
-15 2 -37 10 -20 10 -28 1 -34 -6 -4 -8 -10 -4 -14 4 -4 15 0 24 8 32 27 43
31 36 11 -3 -10 -3 -15 2 -11 4 4 14 3 21 -3 9 -7 19 -7 32 0 15 8 29 5 58 -9
33 -17 39 -18 47 -5 4 8 16 15 25 16 11 0 12 2 4 6 -7 3 -19 0 -26 -7 -9 -7
-16 -7 -20 -1 -7 11 62 33 76 25 5 -3 3 -12 -3 -21 -7 -8 5 -4 27 8 29 18 36
19 25 6 -12 -15 -11 -17 7 -17 12 0 24 4 27 10 13 21 24 9 13 -15 -6 -14 -13
-23 -16 -21 -5 6 -37 -24 -37 -35 0 -4 -3 -11 -8 -15 -4 -4 -7 1 -7 11 0 10
-3 15 -6 12 -4 -3 -15 -2 -26 4 -25 13 -43 2 -27 -17 9 -11 15 -11 25 -3 8 6
14 7 14 2 0 -5 13 -25 30 -43 17 -18 30 -40 30 -47 0 -23 -15 -14 -28 16 -16
36 -42 49 -42 20 0 -12 -4 -17 -11 -13 -6 3 -8 15 -6 26 4 14 1 18 -8 14 -7
-2 -16 1 -19 9 -8 22 -59 23 -78 1 -18 -20 -25 -41 -10 -32 5 3 9 -1 9 -9 0
-18 -13 -20 -20 -2 -3 7 -6 4 -6 -7 -1 -16 -3 -16 -17 -5 -12 10 -17 10 -23 1
-5 -8 -15 -10 -27 -5 -17 6 -18 5 -4 -12 14 -17 14 -18 -7 -7 -28 15 -30 15
-30 -2 0 -10 19 -14 79 -15 56 -1 78 2 78 11 0 9 3 9 12 0 17 -17 58 -15 81 6
19 16 20 16 14 0 -4 -12 -1 -18 9 -18 8 0 12 5 9 10 -3 6 -1 10 4 10 6 0 11
-4 11 -9 0 -13 182 -12 197 1 9 7 13 7 13 -1 0 -6 5 -11 11 -11 5 0 8 4 5 8
-2 4 4 8 14 8 10 0 17 -3 14 -7 -2 -4 25 -7 61 -8 55 -1 63 2 58 15 -3 9 0 20
8 25 10 6 10 9 2 9 -7 0 -13 7 -13 15 0 8 4 15 10 15 12 0 24 -45 16 -65 -7
-18 15 -20 33 -2 11 10 13 9 7 -1 -6 -10 27 -12 153 -11 89 1 159 4 157 8 -3
4 5 8 17 8 15 2 18 0 8 -6 -7 -5 19 -8 61 -8 l75 -1 2 155 2 156 -23 -7 c-13
-3 -26 -6 -30 -6 -4 0 -5 -7 -2 -15 4 -8 10 -12 15 -9 5 3 6 -3 2 -12 -4 -11
-8 -13 -11 -6 -7 22 -26 12 -80 -41 -40 -40 -55 -49 -61 -38 -7 11 -10 11 -17
-1 -11 -17 -44 -31 -44 -18 0 5 10 14 21 21 17 9 19 13 8 20 -10 6 -11 9 -1 9
26 0 10 15 -18 16 -17 1 -27 -2 -24 -8 4 -6 -1 -8 -14 -4 -15 5 -21 1 -27 -16
l-8 -23 -4 22 c-4 19 -9 21 -39 16 -29 -5 -33 -3 -28 11 6 16 -3 20 -38 17
-10 -1 -18 2 -18 7 0 13 -39 22 -46 11 -9 -16 -24 -10 -24 10 0 16 -5 17 -42
10 -24 -5 -60 -11 -80 -14 -30 -5 -36 -9 -33 -25 2 -11 0 -22 -6 -25 -11 -7
-12 -35 -1 -35 4 0 16 14 27 30 19 29 43 35 37 10 -2 -7 5 -9 17 -5 19 6 20 4
9 -27 -6 -18 -15 -37 -19 -42 -12 -13 -12 11 0 33 7 13 6 18 -4 18 -8 0 -12
-5 -8 -10 3 -5 -3 -6 -16 -2 -14 4 -23 2 -27 -9 -5 -12 -9 -13 -25 -3 -17 10
-23 8 -41 -13 l-20 -25 16 28 c10 16 15 34 12 40 -3 9 -5 9 -5 0 -1 -6 -10 -9
-20 -6 -13 3 -18 10 -13 21 5 15 4 15 -20 0 -26 -17 -99 -21 -114 -5 -4 3 -18
4 -32 0 -15 -3 -23 -2 -19 3 3 6 22 11 42 12 20 2 59 7 87 12 35 7 55 7 62 0
13 -13 26 -13 26 0 0 6 -7 10 -15 10 -8 0 -15 7 -15 15 0 16 16 21 22 6 4 -13
100 8 110 23 5 7 8 8 8 0 0 -7 18 -8 60 -1 46 8 67 7 85 -3 33 -18 314 -7 370
14 22 8 53 15 68 16 19 0 27 4 24 13 -2 6 -11 11 -21 9 -9 -2 -16 1 -16 6 0
15 26 33 34 24 4 -4 6 0 4 8 -2 9 -20 17 -48 21 l-45 6 48 1 c47 2 47 2 47 36
0 28 -4 35 -25 40 -14 4 -25 13 -25 20 0 16 27 29 41 20 5 -3 9 27 9 69 0 60
-4 77 -20 95 -12 12 -16 22 -11 22 6 0 14 -6 18 -14 5 -9 9 11 10 49 1 39 -2
67 -9 71 -7 5 -9 2 -5 -9 3 -9 2 -19 -3 -22 -6 -4 -10 2 -10 11 0 14 -3 15
-12 6 -7 -7 -20 -12 -30 -12 -10 0 -18 -4 -18 -10 0 -5 -4 -10 -10 -10 -5 0
-10 9 -10 19 0 15 12 22 55 32 l55 12 0 84 c0 49 -4 82 -9 78 -5 -3 -13 -1
-16 5 -4 6 -1 9 7 8 10 -2 13 21 13 107 l0 110 -30 -3 c-16 -2 -35 -8 -41 -13
-7 -6 -21 -6 -35 0 -24 10 -24 10 -2 10 13 1 43 6 68 13 l45 12 -2 186 c-2
136 -6 184 -15 183 -15 -3 -27 33 -16 49 16 27 12 38 -13 32 -15 -4 -24 -2
-24 6 0 6 5 8 10 5 6 -4 22 1 36 10 l25 16 -3 227 c-2 182 -6 226 -16 224 -8
-1 -11 2 -7 8 3 6 11 8 16 5 5 -4 9 37 9 100 l0 106 -262 -2 c-145 -1 -271 -6
-282 -11 -13 -7 -16 -7 -12 1 5 8 -31 11 -124 11 -107 0 -132 -3 -136 -15 -4
-8 -18 -15 -32 -15 -25 0 -25 1 -6 15 17 13 14 14 -41 14 l-60 1 -28 -83 c-31
-93 -34 -142 -12 -194 23 -55 20 -63 -17 -52 -49 14 -60 12 -53 -10 6 -21 -14
-34 -36 -21 -11 7 -10 10 4 15 15 6 14 9 -6 26 -21 18 -21 19 -3 33 10 8 15
19 11 25 -3 6 4 25 16 42 21 30 21 33 5 45 -10 7 -35 15 -56 19 -31 5 -41 12
-49 36 -11 32 -10 33 37 20 34 -10 46 3 12 14 -11 3 -23 18 -27 33 -3 15 -11
32 -17 37 -15 15 -120 20 -111 6 3 -6 -1 -11 -9 -11 -9 0 -16 5 -16 10 0 6
-69 10 -187 10 -165 -1 -186 -2 -169 -15 11 -8 31 -12 50 -9 26 4 28 3 11 -6
-16 -8 -13 -9 16 -5 25 4 40 1 49 -10 7 -8 18 -15 24 -15 6 0 4 5 -4 11 -12 8
-11 9 5 7 12 -2 19 -10 17 -20 -1 -9 2 -19 8 -23 6 -3 7 0 4 9 -3 9 -1 16 4
16 13 0 26 -19 18 -27 -11 -11 -51 -8 -64 4 -10 9 -19 10 -32 3 -23 -12 -33
-13 -26 -1 3 4 -7 6 -22 3 -26 -5 -26 -5 -4 -15 12 -5 24 -19 28 -29 4 -15 9
-17 17 -9 9 9 8 14 -3 21 -13 9 -13 10 0 10 32 0 41 -16 20 -35 -15 -13 -23
-15 -33 -6 -8 6 -16 8 -20 5 -3 -3 -8 4 -12 16 -5 15 -12 19 -26 15 -23 -8
-24 2 -4 25 12 13 12 20 2 33 -11 14 -16 14 -44 2 -18 -8 -33 -21 -33 -29 0
-9 -7 -12 -20 -9 -23 6 -27 23 -5 23 8 0 15 5 15 10 0 6 -10 10 -22 10 -12 0
-18 -3 -15 -7 4 -3 2 -12 -5 -20 -9 -11 -13 -11 -27 0 -24 20 -105 49 -92 33
8 -10 8 -16 -3 -25 -11 -9 -16 -9 -22 0 -4 8 -3 9 4 5 7 -4 12 -2 12 5 0 7 -9
9 -22 6 -20 -6 -19 -3 6 18 l29 25 -91 0 c-63 0 -92 -4 -95 -12 -4 -10 -6 -10
-6 0 -1 9 -40 12 -161 12 l-160 0 0 -249z m2042 216 c-6 -7 -11 -39 -11 -72
-1 -95 -3 -105 -13 -105 -6 0 -5 -7 2 -15 11 -13 10 -14 -4 -9 -9 3 -16 15
-16 27 0 23 -10 18 -14 -8 -1 -9 -9 -20 -16 -25 -8 -5 -11 -12 -7 -16 3 -4 13
-1 22 6 9 8 15 8 15 2 0 -6 -10 -14 -22 -18 -27 -8 -33 -7 -33 5 0 14 -15 26
-16 13 -1 -7 -2 -16 -3 -22 0 -5 -11 -17 -23 -25 -23 -16 -29 -11 -24 20 1 6
-9 -3 -21 -19 -29 -35 -43 -23 -51 43 -4 36 -1 46 17 60 11 9 49 44 83 78 34
33 64 59 67 57 4 -2 2 1 -3 8 -8 8 -15 8 -28 -3 -16 -13 -17 -12 -4 4 8 10 27
17 45 17 24 0 27 -3 16 -10 -8 -5 -10 -10 -4 -10 6 0 17 7 24 15 7 8 17 15 22
15 7 0 7 -5 0 -13z m-565 -85 c-9 -10 -15 -22 -12 -25 3 -4 0 -3 -5 1 -7 6 -7
18 0 37 8 21 14 25 22 17 9 -9 7 -16 -5 -30z m-765 -10 c-7 -2 -12 -7 -12 -12
0 -12 38 -19 44 -9 2 5 3 4 2 -3 -3 -18 -20 -20 -41 -5 -20 16 -14 54 7 41 9
-6 9 -9 0 -12z m1598 -12 c13 -24 4 -60 -15 -60 -18 0 -46 46 -39 64 9 23 41
20 54 -4z m-1325 -8 c6 -4 16 -7 23 -8 8 -2 21 -9 30 -17 10 -8 27 -18 38 -21
25 -8 36 -49 24 -80 -5 -12 -9 -16 -9 -9 -1 7 -7 10 -15 7 -8 -3 -27 1 -43 10
-19 10 -22 15 -11 16 9 0 20 -4 23 -10 3 -5 11 -10 16 -10 6 0 8 4 5 9 -4 5 0
12 6 15 7 3 2 3 -11 0 -16 -4 -21 -3 -17 5 9 15 -3 33 -16 25 -6 -4 -5 -10 3
-16 10 -7 8 -8 -9 -5 -12 3 -20 1 -16 -4 3 -5 1 -9 -5 -9 -17 0 -111 45 -111
53 0 5 4 5 10 2 5 -3 7 0 4 9 -3 8 -17 17 -31 21 -18 4 -23 9 -16 16 8 8 17 7
32 0 17 -10 21 -9 21 4 0 13 6 15 33 10 17 -4 37 -10 42 -13z m629 -45 c20
-32 22 -59 5 -65 -5 -2 -6 -9 -3 -14 4 -7 2 -8 -5 -4 -6 4 -9 12 -6 17 4 5 0
9 -7 9 -11 0 -10 2 0 9 11 7 10 10 -3 15 -9 3 -25 6 -35 6 -23 0 -20 28 5 46
26 19 27 18 49 -19z m-858 -8 c1 -11 -6 -14 -26 -11 -21 3 -26 8 -23 22 4 14
10 17 26 11 11 -4 21 -14 23 -22z m122 -15 c21 -9 46 -20 57 -24 72 -30 154
-71 160 -80 4 -7 2 -17 -5 -23 -10 -9 -12 -8 -7 5 4 11 -3 20 -24 28 -38 16
-44 9 -19 -20 26 -30 25 -32 -5 -18 -16 7 -24 17 -20 26 4 10 0 12 -11 8 -11
-4 -15 -2 -11 8 3 8 -2 20 -11 28 -15 11 -15 11 -5 -3 7 -9 10 -19 6 -23 -15
-14 -10 -36 9 -42 11 -3 17 -8 15 -11 -3 -2 -15 1 -27 7 -16 9 -20 18 -16 36
4 13 2 24 -3 24 -5 0 -12 8 -15 18 -4 11 -33 30 -69 45 -34 14 -56 26 -49 26
8 1 30 -6 50 -15z m-118 -24 c0 -5 12 -7 26 -4 17 3 23 1 19 -7 -5 -8 -1 -9
14 -4 11 3 21 2 21 -2 0 -5 15 -7 33 -6 23 3 40 -3 62 -22 29 -25 29 -26 5
-19 -14 4 -27 11 -28 15 -2 5 -8 7 -13 3 -5 -3 -9 0 -9 6 0 5 -12 10 -27 9
-16 -1 -64 5 -108 14 -44 9 -91 18 -105 21 -14 3 1 4 32 2 31 -1 55 1 52 6 -3
4 2 5 10 2 9 -3 16 -10 16 -14z m-670 -16 c-9 -21 -8 -25 4 -21 12 5 13 1 4
-24 -13 -38 -28 -47 -28 -16 0 39 12 87 21 87 5 0 4 -12 -1 -26z m1469 5 c-10
-6 -11 -9 -1 -9 6 0 12 -5 12 -11 0 -5 -4 -8 -9 -4 -6 3 -6 -6 -1 -25 7 -25 6
-32 -7 -37 -13 -5 -13 -7 1 -15 11 -6 22 -6 31 2 8 7 22 10 30 6 8 -3 15 -1
15 4 0 6 18 9 40 8 21 -1 46 5 55 12 14 11 21 11 46 -4 16 -9 34 -14 39 -11 6
3 10 2 10 -3 0 -12 -35 -22 -76 -22 -30 0 -31 -2 -29 -38 3 -46 -25 -73 -52
-50 -13 11 -12 14 7 30 12 10 19 18 16 18 -13 0 -76 -55 -76 -66 0 -20 -26
-34 -69 -36 -33 -1 -41 -5 -41 -20 0 -10 5 -18 10 -18 21 0 9 -27 -17 -41 -16
-8 -34 -21 -41 -29 -10 -13 -11 -13 -6 3 4 12 1 17 -11 17 -11 0 -16 -7 -14
-22 2 -13 0 -29 -5 -36 -5 -8 -6 -53 -3 -100 4 -54 3 -79 -3 -67 -5 11 -9 73
-9 137 -1 70 -5 119 -11 123 -7 4 -1 17 14 32 22 22 28 24 43 12 15 -11 16
-11 6 1 -7 8 -13 23 -13 33 0 16 3 17 15 7 12 -10 15 -10 15 2 0 19 27 43 65
56 29 10 29 10 5 12 -14 1 -28 2 -32 1 -11 -2 -10 13 5 48 7 17 16 29 19 26 3
-3 6 12 6 34 1 46 9 64 24 55 6 -4 5 -10 -3 -15z m-797 -20 c77 -15 182 -50
190 -63 4 -6 6 -17 3 -24 -3 -7 0 -10 5 -7 6 4 26 -3 45 -15 20 -12 47 -25 61
-29 25 -6 37 -22 68 -90 20 -42 20 -47 1 -31 -8 7 -15 18 -15 24 0 6 -12 13
-27 14 l-28 2 23 -15 c12 -9 22 -21 22 -26 0 -6 -7 -3 -16 5 -8 9 -23 17 -32
17 -9 1 -21 2 -27 4 -5 1 -23 3 -40 4 -30 3 -30 3 -5 11 23 7 23 8 3 9 -12 1
-25 6 -28 11 -4 7 9 8 38 5 32 -4 48 -1 57 10 11 13 9 15 -13 15 -14 0 -29 -5
-32 -11 -4 -6 -12 -8 -19 -6 -42 16 -58 18 -52 8 4 -6 2 -11 -3 -11 -6 0 -11
9 -11 19 0 12 7 18 17 17 12 0 19 7 21 22 2 12 -1 22 -7 22 -6 0 -11 -8 -11
-17 0 -15 -2 -16 -10 -3 -5 8 -10 12 -10 8 0 -4 -19 -1 -42 6 -24 7 -54 9 -68
5 l-25 -7 27 -1 c37 -1 79 -61 43 -61 -8 0 -15 5 -15 11 0 5 -5 7 -11 3 -15
-9 17 -28 36 -20 7 2 16 -1 18 -8 3 -9 15 -12 31 -9 20 4 26 1 26 -11 0 -10
-4 -14 -10 -11 -5 3 -18 8 -29 10 -10 2 -51 13 -91 25 -39 12 -78 19 -86 16
-8 -3 -14 0 -14 6 0 6 -8 17 -17 24 -15 11 -16 15 -4 23 8 5 29 9 48 9 49 0
51 9 5 17 -34 5 -39 9 -34 27 4 15 2 19 -7 14 -8 -5 -12 -3 -10 5 3 29 -2 41
-15 36 -8 -3 -20 1 -26 9 -10 12 -7 14 18 14 17 0 55 -5 84 -11z m1265 -20
c-24 -14 -21 -39 5 -39 21 0 21 -1 6 -17 -14 -13 -20 -14 -33 -3 -9 7 -13 21
-10 31 6 19 -5 26 -19 12 -3 -4 -14 -7 -24 -8 -9 -1 -28 -5 -42 -9 -20 -7 -23
-6 -13 4 6 7 26 13 42 14 17 1 31 4 31 8 0 9 63 27 70 21 3 -3 -3 -9 -13 -14z
m-1581 -35 c-3 -7 5 -9 19 -6 21 4 43 -13 32 -24 -10 -10 -87 -14 -87 -5 0 5
6 11 13 14 8 3 6 9 -8 20 -19 15 -19 15 8 14 15 -1 25 -7 23 -13z m1427 -25
c-3 -11 -11 -18 -18 -15 -8 3 -16 -2 -19 -10 -9 -23 -7 -36 3 -29 5 3 12 1 15
-4 9 -14 -4 -41 -21 -41 -8 0 -12 -4 -9 -9 3 -5 -1 -11 -9 -15 -17 -6 -22 29
-5 39 6 3 10 19 10 35 0 19 9 35 26 49 33 26 33 26 27 0z m-1332 -40 c-19 -8
-21 -12 -11 -24 11 -14 15 -14 31 1 24 22 116 30 116 10 0 -8 -8 -11 -18 -9
-9 3 -20 0 -23 -6 -4 -6 -29 -13 -56 -17 -27 -4 -47 -10 -44 -15 9 -15 -16
-49 -36 -49 -16 0 -18 5 -13 38 6 41 38 82 62 81 10 0 7 -4 -8 -10z m1459 -6
c0 -7 11 -13 24 -13 27 0 40 -22 23 -39 -6 -6 -26 -11 -45 -11 -28 0 -32 -3
-23 -13 9 -11 4 -13 -26 -8 -23 4 -37 12 -39 23 -1 11 3 15 12 11 8 -3 14 -9
14 -14 0 -5 9 -1 19 8 13 11 17 22 12 32 -5 9 -7 21 -4 27 5 15 33 13 33 -3z
m-1613 -22 c11 -17 9 -17 -29 -4 -23 8 -48 11 -56 8 -11 -4 -12 -2 -4 8 15 18
75 10 89 -12z m1045 -6 c3 -14 0 -28 -6 -32 -6 -3 -8 -3 -4 2 4 4 0 14 -8 22
-8 8 -12 19 -9 24 11 16 23 9 27 -16z m-893 -115 c8 0 12 -2 9 -5 -3 -3 17
-28 46 -55 l51 -48 -82 1 c-44 1 -79 -1 -76 -5 2 -5 -10 -8 -26 -8 -17 0 -31
5 -31 11 0 6 7 8 16 5 8 -3 12 -2 9 4 -3 6 -13 10 -21 10 -10 0 -14 12 -14 45
0 34 3 43 14 39 8 -3 23 -1 33 5 10 6 27 9 38 6 11 -3 26 -5 34 -5z m1261 -15
c0 -8 1 -18 1 -22 1 -5 -14 -11 -34 -14 l-36 -6 22 28 c24 31 47 37 47 14z
m-887 -42 c19 -69 19 -69 -23 -65 l-39 4 20 39 c21 42 35 49 42 22z m1327 -50
c0 -2 -5 -12 -11 -22 -12 -17 -13 -17 -30 0 -26 26 -24 30 11 27 17 -1 30 -4
30 -5z m-1566 -33 c9 -7 16 -21 16 -30 0 -15 -6 -18 -35 -14 -22 3 -44 -2 -59
-11 -18 -12 -26 -13 -31 -4 -6 8 -9 8 -15 0 -5 -9 -10 -8 -19 3 -10 12 -7 14
21 12 38 -3 60 3 53 14 -3 5 3 6 14 3 10 -3 22 1 26 8 6 9 -1 11 -28 6 -28 -4
-37 -2 -37 9 0 10 -5 9 -20 -6 -26 -26 -37 -25 -36 3 1 15 9 24 26 27 34 8
106 -4 124 -20z m240 0 c14 -5 26 -16 26 -24 0 -8 11 -28 25 -44 26 -31 31
-42 18 -42 -5 0 -18 16 -31 36 l-24 36 -20 -22 c-15 -16 -23 -19 -28 -10 -5 8
-15 10 -26 6 -11 -4 -34 -10 -51 -12 -43 -6 -45 20 -3 35 17 5 30 15 30 21 0
6 10 15 23 20 29 12 31 12 61 0z m1401 -10 c-23 -25 -18 -38 11 -32 20 4 25 1
22 -9 -3 -8 -14 -13 -24 -12 -10 1 -21 -2 -24 -7 -8 -12 -80 20 -80 36 0 8 5
14 11 14 5 0 7 -4 4 -10 -3 -5 3 -10 15 -10 17 0 19 4 14 25 -6 23 -4 24 30
23 33 -1 35 -3 21 -18z m-2217 -17 c-2 -16 -7 -32 -11 -38 -4 -5 -15 -19 -23
-30 -15 -19 -15 -19 -8 4 5 18 3 22 -7 16 -8 -5 -5 3 7 16 12 13 24 32 27 42
10 26 18 20 15 -10z m160 -58 c0 -14 -4 -28 -9 -31 -5 -3 -9 11 -9 31 0 20 4
34 9 31 5 -3 9 -17 9 -31z m395 8 c-10 -8 -13 -12 -6 -9 6 4 14 2 18 -4 7 -12
-15 -13 -30 -2 -9 6 -11 20 -6 36 0 2 10 2 21 -1 19 -5 20 -6 3 -20z m1314
-80 c2 -5 -3 -16 -12 -23 -13 -11 -18 -11 -28 0 -9 10 -9 14 1 17 6 3 10 8 7
13 -3 5 3 7 12 6 9 -2 18 -7 20 -13z m-1712 -93 c3 -5 12 -7 20 -3 8 3 23 2
33 -2 16 -7 15 -8 -3 -15 -11 -4 -28 -3 -38 2 -11 5 -30 7 -45 3 -22 -5 -24
-4 -13 9 15 18 37 21 46 6z m544 -4 c9 -11 6 -13 -21 -11 -49 4 -50 4 -43 15
9 15 51 12 64 -4z m1131 -26 c5 8 10 10 10 4 0 -21 -13 -24 -32 -8 -14 14 -20
14 -33 4 -13 -11 -14 -10 -9 3 9 24 38 26 47 3 7 -17 10 -18 17 -6z m-80 9 c0
-5 -8 -9 -17 -9 -10 0 -29 -3 -43 -6 -22 -5 -23 -4 -9 8 18 15 69 20 69 7z
m-90 -17 c0 -4 -9 -13 -20 -20 -11 -6 -17 -18 -14 -26 3 -9 -4 -15 -20 -18
-27 -5 -27 -3 6 45 18 25 48 37 48 19z m-1503 -49 c21 -20 23 -24 8 -18 -11 4
-28 10 -37 12 -19 6 -23 15 -11 26 9 10 9 10 40 -20z m1407 -67 c-6 -16 -44
-23 -44 -8 0 7 42 30 48 26 1 0 0 -9 -4 -18z m-1402 -24 c-3 -8 -14 -12 -28
-9 -13 2 -24 0 -24 -6 0 -6 -3 -7 -6 -4 -12 11 14 32 39 32 16 0 23 -4 19 -13z
m198 -58 c0 5 7 3 15 -4 8 -7 15 -9 15 -4 0 5 7 -2 16 -14 17 -25 10 -49 -10
-33 -7 6 -17 7 -21 3 -5 -4 -5 -1 -1 6 5 7 15 11 25 7 12 -5 13 -4 4 6 -7 7
-25 12 -42 12 -21 0 -28 5 -26 16 2 9 4 18 4 21 1 3 6 -2 11 -10 5 -8 10 -11
10 -6z m1808 -33 c11 -7 10 -10 -3 -15 -9 -3 -22 -3 -27 1 -7 4 -8 1 -3 -7 6
-10 3 -12 -13 -8 -12 4 -20 3 -17 -2 6 -9 -23 -22 -35 -15 -4 3 -13 -2 -20
-10 -16 -19 -40 -19 -40 -1 0 8 23 21 53 31 28 9 59 21 67 26 19 11 22 11 38
0z m-1759 -50 c18 -11 26 -12 28 -4 5 15 42 2 85 -28 16 -12 41 -25 56 -30 23
-7 20 -8 -15 -5 -35 3 -43 1 -44 -12 -1 -10 -2 -21 -4 -27 -1 -5 -3 -16 -3
-22 -1 -7 -13 -13 -27 -13 -14 0 -25 -5 -25 -12 0 -6 -2 -9 -5 -6 -11 10 7 37
21 31 8 -3 14 0 14 6 0 6 -4 11 -10 11 -5 0 -10 9 -10 19 0 12 -10 21 -27 26
-21 5 -24 8 -12 16 7 5 9 9 4 9 -6 0 -17 -6 -24 -12 -11 -11 -14 -10 -18 0 -3
6 -9 10 -14 6 -5 -3 -9 0 -9 6 0 10 -18 9 -100 -6 -23 -4 -24 -3 -5 7 11 7 30
22 41 35 15 17 27 22 39 17 13 -4 16 -3 11 5 -9 14 18 6 53 -17z m1069 -6 c-2
-17 -8 -25 -21 -25 -14 0 -18 -6 -15 -27 2 -14 -2 -28 -7 -30 -11 -3 -12 78
-1 96 4 6 16 11 26 11 15 0 19 -6 18 -25z m-155 -42 c-3 -7 1 -13 10 -13 8 0
17 -7 21 -15 5 -13 2 -14 -17 -3 -12 7 -28 11 -34 10 -18 -4 -16 9 5 24 11 9
13 13 4 14 -7 0 -10 5 -6 11 9 15 24 -9 17 -28z m694 0 c4 -10 11 -21 17 -26
7 -4 2 -9 -11 -13 -13 -4 -20 -11 -17 -16 4 -6 0 -14 -7 -19 -9 -5 -10 -9 -2
-9 6 0 10 -8 8 -17 -1 -10 1 -25 6 -34 6 -12 2 -19 -17 -28 -14 -6 -27 -11
-29 -11 -11 0 -4 22 10 36 17 17 20 44 5 44 -5 0 -10 7 -10 15 0 8 -6 15 -14
15 -18 0 -29 -27 -13 -34 7 -2 0 -4 -15 -3 -16 1 -28 5 -28 9 0 4 -4 8 -10 8
-5 0 -10 -7 -10 -15 0 -13 -4 -14 -22 -4 -21 11 -22 11 -9 -4 11 -14 11 -21
-3 -42 -9 -14 -22 -25 -29 -25 -8 0 -7 4 3 10 9 6 10 10 3 10 -6 0 -15 -5 -19
-11 -5 -8 -8 -8 -14 0 -5 9 -10 8 -19 -2 -9 -12 -9 -15 1 -14 7 0 22 -1 33 -2
16 -1 17 -3 5 -11 -8 -5 -12 -12 -8 -15 3 -3 12 1 21 9 13 13 17 13 26 2 9
-11 6 -15 -13 -20 -14 -3 -30 -15 -36 -26 -12 -23 -32 -18 -23 5 10 28 -64 19
-92 -11 -17 -18 -31 -25 -45 -21 -24 6 -25 1 -6 -19 8 -7 16 -19 18 -26 4 -10
10 -10 29 -2 65 30 119 35 119 12 0 -5 -7 -7 -16 -4 -15 6 -15 4 -3 -11 7 -10
9 -15 5 -11 -5 4 -15 3 -22 -3 -6 -5 -41 -12 -76 -14 -68 -4 -98 -12 -98 -26
0 -5 -8 -4 -18 2 -14 9 -18 25 -19 68 0 31 -4 72 -8 91 -9 47 17 81 65 86 64
7 140 25 140 33 0 11 97 61 118 61 10 1 42 12 72 25 67 29 69 30 77 8z m111
-8 c-9 -21 -8 -28 7 -45 17 -19 17 -21 2 -38 -10 -10 -17 -23 -17 -28 0 -5
-19 -22 -42 -38 -23 -17 -38 -25 -35 -19 4 7 3 14 -3 18 -5 3 -10 11 -10 18 0
6 7 2 15 -9 11 -14 14 -15 15 -4 0 8 -12 24 -26 37 l-26 22 21 18 c12 9 21 24
22 33 0 9 2 10 5 3 3 -7 0 -21 -6 -32 -10 -19 -9 -20 13 -10 22 10 25 21 18
61 0 4 -9 5 -18 2 -10 -3 -2 4 17 14 51 29 62 28 48 -3z m-1498 -16 c0 -5 5
-7 11 -3 6 3 4 -5 -6 -19 -17 -26 -45 -43 -45 -27 0 5 9 14 21 20 16 9 18 14
8 26 -8 10 -8 14 0 14 6 0 11 -5 11 -11z m774 -24 c4 -12 14 -14 41 -9 19 3
35 3 35 -1 0 -8 -46 -46 -57 -47 -4 0 -18 -4 -31 -9 -21 -8 -22 -7 -15 19 4
15 6 35 5 45 -1 21 14 23 22 2z m-614 -21 c0 -19 -4 -25 -15 -20 -10 3 -15 -1
-15 -11 0 -9 -3 -14 -6 -10 -3 3 -3 19 1 36 8 38 35 42 35 5z m37 -7 c-3 -7 5
-22 16 -34 l20 -23 -24 12 c-17 8 -26 21 -27 41 -2 18 1 26 8 22 6 -4 9 -12 7
-18z m1403 -25 c-25 -12 -37 -26 -41 -47 l-7 -30 -1 35 c-1 37 20 56 64 59 13
1 8 -5 -15 -17z m-726 -36 c-9 -7 -14 -18 -10 -24 4 -7 3 -12 -2 -12 -6 0 -15
-13 -20 -29 -8 -23 -7 -31 4 -35 8 -3 14 0 14 6 0 6 3 8 7 4 4 -4 9 -29 11
-56 4 -63 -24 -110 -66 -109 -26 0 -26 1 -6 11 12 5 27 21 33 35 11 23 10 25
-9 20 -11 -3 -20 -2 -20 3 0 12 27 31 40 28 7 -2 15 3 18 11 4 11 -2 13 -27 8
-28 -6 -43 5 -23 17 5 3 7 25 6 50 -2 34 2 48 14 56 26 14 6 12 -34 -5 -19 -8
-32 -10 -29 -5 3 5 22 14 43 20 20 7 41 16 46 21 5 4 13 6 18 3 5 -3 1 -12 -8
-18z m436 14 c0 -5 -9 -10 -19 -10 -11 0 -23 -5 -26 -10 -4 -6 -1 -9 7 -8 7 2
12 -4 10 -12 -2 -11 1 -10 12 3 8 10 17 14 20 9 7 -11 -18 -24 -52 -28 -17 -2
-22 1 -18 12 3 7 0 14 -6 14 -23 0 19 24 70 39 1 1 2 -3 2 -9z m-1182 -45 c-4
-20 0 -25 24 -30 15 -4 26 -10 23 -15 -3 -5 -17 -2 -32 5 -21 11 -29 12 -36 2
-6 -8 -7 -5 -3 7 9 25 -8 35 -64 38 -43 1 -42 2 15 8 33 4 64 7 69 8 4 1 6 -9
4 -23z m-208 -2 c-14 -3 -29 -11 -33 -19 -4 -8 -13 -14 -18 -14 -6 0 -7 5 -4
10 3 6 -2 10 -12 11 -35 1 19 18 57 17 27 -1 29 -2 10 -5z m1638 -25 c28 -31
40 -78 19 -78 -9 0 -18 4 -21 9 -3 5 -14 8 -24 6 -9 -1 -11 0 -4 2 20 7 14 50
-8 56 -11 3 -20 10 -20 16 0 19 36 12 58 -11z m-888 -13 c-7 -8 -18 -15 -26
-15 -8 0 -12 -10 -11 -27 2 -24 -2 -29 -25 -31 -18 -2 -28 -9 -28 -20 0 -13
10 -17 41 -19 l41 -1 -6 39 c-7 46 14 63 42 35 15 -15 15 -16 0 -16 -15 0 -15
-3 -1 -30 13 -26 17 -29 31 -18 14 10 15 10 5 -2 -7 -7 -24 -14 -38 -16 -14
-1 -32 -9 -40 -18 -16 -16 -20 -31 -6 -22 8 6 23 -45 16 -53 -2 -2 -12 0 -22
4 -10 5 -22 9 -28 10 -5 0 -9 6 -8 13 2 6 -3 9 -10 6 -8 -3 -14 -11 -14 -19 0
-8 3 -12 7 -10 11 7 80 -17 80 -28 0 -5 -7 -7 -15 -3 -13 5 -14 2 -4 -17 7
-12 14 -34 15 -49 3 -23 0 -28 -19 -27 -12 0 -16 3 -9 6 21 8 13 33 -13 43
-14 5 -25 15 -25 21 0 6 7 9 15 5 17 -6 18 -4 9 18 -7 19 -31 21 -37 4 -3 -10
-12 -9 -38 4 -21 10 -27 17 -16 17 9 1 17 3 17 6 0 10 -30 65 -36 65 -3 0 -2
-4 1 -10 3 -5 1 -10 -5 -10 -6 0 -8 -4 -5 -10 3 -5 1 -10 -5 -10 -8 0 -10 -9
-6 -26 5 -17 3 -23 -4 -19 -5 3 -10 -1 -10 -9 0 -9 -2 -16 -4 -16 -2 0 -13 -3
-23 -6 -17 -5 -17 -5 0 9 14 11 16 26 13 75 l-5 61 27 -2 c17 -1 26 3 24 11
-2 14 7 15 28 3 20 -13 34 -2 19 15 -17 21 -3 47 22 41 17 -5 20 -2 16 13 -4
16 2 21 29 26 19 3 34 10 34 15 0 5 5 9 11 9 8 0 8 -5 -1 -15z m740 1 c-5 -5
-10 -16 -10 -23 0 -19 30 -4 31 16 0 9 2 11 5 6 2 -6 -2 -30 -10 -55 -8 -25
-14 -37 -15 -26 -1 13 -6 17 -21 13 -24 -6 -25 4 -5 42 8 16 12 31 10 33 -3 3
2 5 10 5 11 0 12 -4 5 -11z m-1841 -19 c-29 -29 -56 -40 -65 -26 -3 6 -13 8
-21 5 -8 -4 -11 -2 -7 5 3 6 22 9 40 7 22 -3 34 0 34 8 0 7 6 15 13 17 27 11
29 6 6 -16z m1011 -7 c0 -5 -13 -10 -28 -10 -15 0 -33 -5 -40 -12 -7 -7 -12
-9 -12 -5 0 4 -9 3 -20 -3 -16 -9 -18 -8 -14 5 4 8 1 15 -4 15 -6 0 -13 -10
-15 -22 -3 -17 -5 -14 -6 10 l-1 32 70 0 c40 0 70 -4 70 -10z m-367 -17 c-6
-16 -13 -16 -54 1 l-33 14 45 -1 c33 -2 45 -6 42 -14z m1228 -66 c-12 -15 -5
-27 16 -27 9 0 11 5 7 13 -5 8 -2 8 9 -2 9 -7 17 -21 17 -30 0 -9 6 -23 13
-30 10 -10 9 -11 -5 -6 -9 4 -18 15 -21 26 -5 17 -9 19 -26 10 -27 -15 -36
-14 -22 3 9 11 8 15 -4 20 -13 5 -14 8 -3 20 16 19 35 21 19 3z m-1649 -19
c31 1 30 -12 -2 -21 -11 -3 -18 -1 -14 4 3 5 -4 9 -15 9 -12 0 -21 5 -21 11 0
5 5 7 11 3 7 -4 25 -7 41 -6z m1588 2 c0 -5 -3 -10 -7 -11 -5 0 -33 -2 -63 -3
l-55 -3 40 13 c49 15 85 17 85 4z m23 -30 c-3 -10 -15 -21 -26 -24 -18 -5 -19
-8 -7 -15 10 -7 17 -6 22 2 6 9 8 9 8 -1 0 -7 5 -10 10 -7 6 3 10 1 10 -4 0
-6 -5 -11 -11 -11 -6 0 -9 -7 -5 -15 3 -8 2 -15 -3 -15 -5 0 -11 9 -14 20 -3
11 -10 20 -17 20 -6 0 -9 -4 -6 -8 9 -15 -12 -35 -29 -28 -13 5 -15 9 -6 20 7
8 11 18 10 22 -4 24 3 42 17 48 8 3 12 2 9 -4 -3 -6 -2 -10 4 -10 6 0 14 12
17 26 4 17 9 22 14 14 4 -7 5 -20 3 -30z m-1830 -19 c-3 -22 -2 -23 5 -7 5 12
11 15 15 9 4 -6 0 -16 -8 -23 -9 -7 -16 -11 -18 -9 -17 30 -22 47 -19 61 6 28
29 -1 25 -31z m1639 8 c-4 -3 -27 -12 -52 -19 -25 -8 -50 -17 -56 -22 -6 -5
-18 -6 -27 -2 -8 3 -18 1 -21 -5 -4 -6 -29 -13 -56 -17 -27 -4 -55 -13 -61
-20 -6 -8 -15 -11 -20 -9 -4 3 -20 -13 -35 -37 -18 -28 -23 -43 -15 -46 9 -3
9 -7 0 -18 -7 -9 -8 -14 -1 -14 5 0 15 14 21 30 11 33 26 42 18 11 -4 -18 16
-37 36 -33 18 4 5 -16 -15 -21 -18 -5 -19 -8 -8 -21 15 -19 0 -22 -18 -4 -10
10 -15 10 -22 -2 -5 -8 -9 -22 -9 -30 0 -8 4 -5 10 8 5 13 14 20 20 17 7 -5 7
-11 1 -17 -12 -12 -5 -38 10 -38 6 0 6 6 -1 14 -7 9 -8 17 -3 20 15 9 23 -23
12 -45 -6 -10 -16 -19 -23 -20 -9 0 -9 -2 0 -5 7 -3 9 -12 6 -20 -3 -8 0 -14
6 -14 6 0 11 -4 11 -9 0 -4 -10 -8 -22 -7 -14 1 -22 -4 -20 -11 1 -7 -5 -13
-14 -13 -12 0 -15 6 -10 20 20 66 20 63 -2 58 -15 -4 -22 -2 -22 8 0 8 -5 14
-11 14 -7 0 -8 7 -4 18 4 9 11 30 15 45 8 24 7 27 -9 22 -14 -4 -20 1 -24 22
-6 31 1 53 15 53 6 0 31 17 57 39 62 51 95 67 182 87 41 9 79 21 84 26 7 7 3
9 -13 5 -12 -3 -20 -1 -17 3 3 5 30 8 60 7 30 -1 51 -5 47 -8z m-382 -39 c-13
-8 -12 -10 4 -10 20 0 20 0 0 -15 -18 -14 -18 -14 11 -15 21 0 26 -3 16 -9 -7
-5 -21 -6 -31 -4 -16 4 -20 27 -11 61 1 1 7 2 14 2 8 0 7 -4 -3 -10z m688 -24
c12 4 11 2 -3 -7 -11 -7 -26 -20 -33 -28 -10 -13 -10 -11 -2 12 5 15 7 27 4
27 -3 0 -2 6 3 13 5 9 8 8 11 -5 2 -11 9 -15 20 -12z m-1028 -67 c0 -11 -7
-22 -15 -25 -8 -4 -15 -17 -15 -31 0 -13 4 -21 10 -18 6 3 10 1 10 -4 0 -24
-29 -9 -39 20 -14 40 -14 52 -1 44 6 -3 15 6 20 20 11 29 30 25 30 -6z m918
-6 c8 -8 9 -13 3 -13 -16 0 -14 -30 2 -36 23 -8 17 -35 -6 -28 -13 4 -18 2
-15 -7 2 -7 14 -13 26 -14 12 -1 25 -5 29 -10 5 -4 0 -5 -11 -1 -14 5 -17 3
-12 -10 5 -14 4 -15 -8 -5 -7 6 -30 9 -50 7 -37 -5 -50 10 -18 21 39 14 43 24
21 54 -11 16 -15 29 -9 29 7 0 9 8 5 20 -5 16 -3 19 12 13 10 -4 24 -13 31
-20z m-928 -113 c0 -11 -4 -20 -8 -20 -9 0 -10 -3 -13 -58 -1 -19 -7 -31 -13
-29 -13 5 -9 60 5 65 5 2 4 12 -2 24 -8 16 -8 23 2 29 22 14 29 11 29 -11z
m482 -81 c-3 -22 -1 -30 7 -25 6 4 11 16 11 27 0 10 5 19 10 19 19 0 10 -39
-12 -51 -13 -7 -29 -19 -36 -28 -12 -14 -13 -13 -7 9 3 14 8 40 12 57 7 42 21
34 15 -8z m602 6 c4 -11 -2 -15 -25 -15 -24 0 -30 -4 -27 -17 2 -11 11 -17 23
-15 16 3 17 2 6 -12 -20 -24 -48 -20 -55 8 -4 15 -15 26 -29 29 -19 3 -19 4 8
11 17 4 41 11 55 15 36 13 37 13 44 -4z m-1962 -42 c19 -17 25 -53 8 -53 -5 0
-10 -7 -10 -15 0 -8 -9 -24 -20 -35 -11 -11 -20 -29 -20 -39 0 -11 -4 -22 -10
-26 -5 -3 -7 -11 -5 -18 7 -18 -7 -33 -38 -41 l-29 -7 7 43 c4 24 16 53 26 66
10 13 21 37 25 55 7 37 31 87 41 87 4 0 15 -7 25 -17z m1796 6 c-4 -13 -85
-22 -101 -12 -10 7 17 13 91 21 8 1 12 -3 10 -9z m42 -28 c0 -32 -25 -44 -56
-28 -18 9 -23 17 -15 21 7 4 17 3 24 -3 17 -14 41 3 34 24 -4 9 -3 14 3 10 6
-3 10 -14 10 -24z m-1507 -48 c-7 -2 -9 -12 -6 -21 3 -13 2 -14 -4 -4 -6 7
-21 13 -34 13 -39 1 -70 9 -65 17 2 4 30 5 63 3 32 -2 53 -6 46 -8z m1710 -60
c12 -7 -13 -33 -33 -33 -14 0 -20 24 -11 47 1 3 31 -7 44 -14z m-463 -18 c15
-29 32 -33 28 -8 -2 10 4 19 15 21 9 2 17 -1 17 -7 0 -6 -4 -11 -9 -11 -5 0
-12 -11 -15 -25 -4 -17 -11 -23 -19 -19 -9 5 -9 4 -1 -5 15 -17 44 -3 37 17
-5 14 -3 14 15 -2 23 -20 30 -56 11 -56 -6 0 -9 7 -5 15 7 19 -15 15 -31 -5
-11 -13 -14 -13 -24 0 -10 13 -10 13 -6 0 5 -17 -29 -66 -36 -53 -7 13 -1 54
9 61 13 10 10 75 -4 80 -14 4 -16 22 -4 22 5 0 15 -11 22 -25z m-1000 5 c0 -5
-7 -10 -17 -10 -14 0 -14 -2 2 -20 10 -11 22 -17 28 -13 5 3 8 0 5 -7 -7 -21
-28 -24 -28 -3 0 14 -2 15 -9 4 -5 -7 -14 -10 -20 -7 -15 9 -14 39 1 54 15 15
38 16 38 2z m962 -33 c-7 -8 -10 -16 -8 -18 2 -2 -5 -12 -14 -22 -12 -12 -20
-15 -25 -8 -3 6 -1 11 4 11 6 0 11 4 11 9 0 5 5 22 10 37 8 20 14 24 22 16 8
-8 8 -15 0 -25z m-34 -112 c-6 -14 -17 -25 -25 -25 -7 0 -13 -4 -13 -10 0 -8
-57 -3 -69 6 -1 1 4 12 12 24 11 16 16 18 20 8 4 -9 8 -6 12 9 8 25 32 34 57
21 15 -7 16 -13 6 -33z m342 -26 c8 -13 17 -18 28 -14 12 4 14 3 6 -5 -12 -13
-44 -3 -44 14 0 6 -4 4 -10 -4 -11 -18 -23 -8 -14 14 8 22 21 20 34 -5z"/>
<path d="M532 2393 c-9 -3 3 -13 29 -24 23 -11 44 -17 48 -14 3 3 -5 8 -17 12
-12 3 -22 12 -22 19 0 14 -14 17 -38 7z"/>
<path d="M622 2385 c-11 -12 -8 -14 20 -8 62 12 77 22 33 22 -23 0 -46 -6 -53
-14z"/>
<path d="M1098 419 c-10 -6 -18 -17 -18 -26 0 -13 3 -13 15 -3 8 7 15 9 15 4
0 -4 5 -3 12 4 17 17 -2 34 -24 21z"/>
<path d="M1711 242 c-1 -7 -4 -11 -9 -8 -4 2 -16 -3 -27 -11 -14 -11 -15 -14
-4 -10 9 3 21 1 27 -5 13 -13 27 13 19 34 -4 10 -6 10 -6 0z"/>
<path d="M1299 163 c-1 -5 -2 -12 -4 -18 -1 -5 -3 -16 -3 -22 -1 -7 -7 -13
-13 -13 -7 0 -9 10 -5 28 5 18 4 22 -3 13 -6 -10 -19 -12 -41 -7 -32 6 -32 5
-26 -25 3 -17 6 -40 6 -50 0 -11 7 -19 16 -19 14 0 14 3 4 15 -9 11 -10 19 -2
27 7 7 14 4 24 -11 16 -27 52 -29 46 -3 -3 10 1 27 8 37 8 10 14 15 14 9 0 -5
4 -3 9 5 5 8 7 20 4 28 -5 14 -32 18 -34 6z"/>
<path d="M1150 108 c0 -9 -9 -18 -20 -21 -20 -5 -28 -27 -10 -27 6 0 10 -5 10
-11 0 -5 -4 -8 -9 -4 -6 3 -13 -1 -18 -8 -4 -8 -15 -17 -23 -20 -9 -4 -4 -6
10 -5 14 2 31 -1 38 -5 14 -9 28 16 17 33 -3 5 0 10 9 10 8 0 17 -6 19 -12 3
-7 6 1 6 17 0 17 -6 39 -14 49 -12 16 -15 17 -15 4z"/>
</g>
</svg>
