<svg version="1" xmlns="http://www.w3.org/2000/svg" width="320" height="320" viewBox="0 0 240 240"><g fill="#ccc"><path d="M171.9 16.3c-2 .7-4.3 1.8-5.2 2.5-.9.8-2.9 1.2-4.4 1.1-3.8-.4-5.3.7-5.3 4.1 0 1.6-.4 3.2-1 3.5-.5.3-1 1.7-1 3s-.7 3-1.5 3.9c-1.9 1.9-1.9 3.9.1 7.9 2.6 4.9 2 8.8-1.6 11.8-2.1 1.8-3.2 3.7-3.4 6-.2 1.9-2 6.1-4.2 9.4-2.1 3.3-3.9 6.7-4.1 7.5-.3 2.1-3.3 4-6.2 4-4.4 0-7.3 1.2-6.7 2.6.4 1-.3 1.4-2.5 1.4-2.6 0-3 .3-2.6 2 .3 1.1.1 2-.4 2s-.9-.8-.9-1.8c-.1-1.6-.2-1.6-1.4.1-1.4 1.7-1.5 1.7-2.4.1-.9-1.7-1.1-1.7-3.6-.1-1.4 1-2.6 1.3-2.6.7 0-.6-1.5-.8-3.5-.5-2 .2-3.4.1-3.1-.3.2-.4-2.1-.7-5.1-.8-3 0-5.8-.5-6.1-1-.9-1.3-6.2-1.6-6.2-.4 0 .6-.7 1-1.5 1-1 0-1.2.6-.8 1.7.6 1.5.4 1.6-.8.6-.8-.6-3.1-1.4-5.2-1.8-2.1-.4-4.1-1.4-4.4-2.1-.3-.9-2.1-1.4-5.2-1.4-3.2 0-4.2.3-3.1 1 .8.5 1.2 1.2.8 1.5-.3.3-1.4-.2-2.3-1.2-1.2-1.1-3.7-1.8-7.4-2-3.1-.2-9.9-.5-15.1-.8-5.2-.3-10.8-.9-12.3-1.5-3.3-1.1-6-.3-5.3 1.6.3.8-.1 1.4-.8 1.4-.8 0-1.6-.6-1.9-1.3-.2-.7-2.5-1.2-6.3-1.3-3.2-.1-7.1-.5-8.6-.9-2.2-.6-2.8-.4-2.8.8 0 1-.6 1.3-2 1-1.6-.4-2 0-2 2 0 1.6.7 2.7 1.8 3 1.6.4 1.6.5 0 .6C.3 87 0 88 0 92.4c0 5.7 1 6.9 4.8 5.9 1.1-.2 2.3.1 2.8.8.5.9.2 1.1-.9.6-.9-.3-2.7-.2-3.9.3-1.3.5-1.7.9-1 .9.6.1 1.2.5 1.2 1.1 0 .5-.6.7-1.4.4C.3 101.9.1 105 .1 123c0 18.4.2 21.4 1.6 22.9 1.5 1.5 1.5 1.6 0 1.9-2.5.5-2.5 11.9 0 12.5 1.7.4 1.7.5.1.6-1.3.1-1.8.9-1.7 3.3 0 2.8.2 3 .9 1.3.8-1.9.9-1.9.9.2.1 1.2.4 2.3.9 2.6.4.2.2.2-.5.1-1.8-.4-2 1.1-2.2 20.7-.2 12.7.2 20 1 22.9 1 3.3 1 4.6 0 6.2-1.5 2.3-1.3 13.7.3 15.7.8 1.1.8 1.3-.1.7-.7-.4-1.3-.3-1.3.3 0 .5.6 1.2 1.3 1.4.9.4.9.6 0 .6-.7.1-1.3.8-1.3 1.6 0 1.3 2.8 1.5 19.5 1.5s19.5-.2 19.5-1.5c0-.9.9-1.5 2.5-1.5 2.6 0 3.4 1.5 1.3 2.3-.7.3 1.1.6 4 .6 3.4.1 5.1-.3 4.7-.9-.4-.6-1.1-.8-1.6-.5-.5.3-.6-.1-.3-1 .6-1.4.9-1.4 2.8.4 2.2 2 3.2 2.1 50.5 2.1 42.4 0 48.2-.2 47.7-1.5-.4-1.2.3-1.5 2.9-1.5 2.5 0 3.5-.5 3.5-1.5 0-2.1 2.1-2.8 5-1.7l2.4.9-2.7.7c-1.6.3-2.5 1-2.3 1.5.3.5-.2.8-1.1.7-.9 0-1.8.5-2 1.1-.7 2 4.2 1.6 5.8-.4 1-1.1 1-1.4.2-.9-.8.4-1.3.2-1.3-.5s1.3-1 3.7-.7c2.7.3 4.2 0 5.3-1.3.8-1 3.5-2.4 6-3.3 4.1-1.4 4.3-1.5 1.5-1.6-1.7 0-3.7-.6-4.4-1.3-1.1-.9-1.4-.9-1.8 0-.7 1.9-3.7 1.5-5-.6-.7-1.1-2.5-2.2-4.1-2.6-2.3-.5-2.9-1-2.5-2.6.5-1.9 2.3-2.7 2.3-.9 0 .5.7.7 1.5.4 1.6-.6 7.5 1.6 7.5 2.9 0 .4.9.2 2-.5 1.7-1.1 2.2-1 3 .2.9 1.3 1.3 1.2 2.6-.5 3.4-4.4 3.5-5.1.1-5.1-7.7-.1-10.7-.5-10.7-1.5 0-.5.5-.7 1.2-.3.7.5.8.3.3-.6-.6-1-1.1-1-2 .3-.7.9-1.5 1.4-1.8 1.1-.3-.3.2-1.4 1.1-2.4 1.2-1.4 2-1.6 3.4-.9 1.1.6 1.6 1.5 1.1 2.2-.5.9-.3.9.8.1.8-.6 2.2-1.1 3.1-1.1 1.5 0 1.5.3.5 1.5-1 1.3-.8 1.4 1.3.8 6.5-1.9 10-2.3 10-1.1 0 .7.7 1.6 1.6 1.9 2.2.9 2.4.8 2.4-.9 0-.8-.5-1.5-1.1-1.5-.5 0-.7-.5-.4-1 .3-.6.1-1-.6-1s-.9-.3-.6-.6c.4-.4 1.4-.1 2.4.7 1.4 1.2 1.6 1.2.8 0-.6-1.1-.4-1.3 1-.7 1.1.4 4.2 1.4 6.9 2.2 8.4 2.6 12.8 4.7 11.5 5.5-1.5.9-1.5 10.2 0 10.7.6.2 1.1.9 1.1 1.7 0 .7.7 1.8 1.5 2.5s1.2 1.6.9 2.1c-.3.5.9.9 2.6.9 2.2 0 2.9-.4 2.4-1.2-.6-1-.4-1 .7 0 1.7 1.6 9.6 1.6 10.2-.1.4-.9.6-.9.6 0 .1.9 1.7 1.3 4.6 1.3 4.1 0 4.5-.2 4.3-2.4-.1-1.5-.8-2.3-1.8-2.1-.8.1-1.4 1-1.2 2.1.2 1.5.1 1.6-.7.4-.5-.8-.7-1.8-.4-2.4.4-.5-.4-.7-1.8-.3-1.3.4-3 .7-3.6.7-.7 0-1.3.7-1.3 1.5s-.4 1.5-1 1.5c-1.4 0-1.2-1.6.4-3.2.7-.8 1.2-2.7 1-4.3-.2-2.2-.1-2.6.6-1.5.8 1.3 1 1.2 1-.2s.4-1.6 2.5-.8c1.5.6 2.6.6 3 0 .4-.6.4-1.1.1-1.1-4.2-.9-4.2-1.1-.6-1.8l3.5-.6.3-8.3c.2-4.5-.1-8.2-.5-8.2-.5 0-2.3-1.3-4-2.9-3.2-2.9-3.2-3-1.7-6 1.5-3 1.2-5.1-.6-5.1-.5 0-.7.8-.3 1.7.3 1 .3 1.5-.2 1.1-.7-.7-1.6-5.4-1.6-9.1 0-1-.8-1.7-2.2-1.8-1.7-.1-1.8-.2-.4-.6 1.6-.4 2.5-3.4 1-3.2-.5.1-1 .1-1.3-.1-.3-.1-1.8-.3-3.4-.5-1.6-.2-3.2-.8-3.5-1.4-.4-.5-1.8-1.2-3.1-1.4-8.6-1.6-10-2-10-2.7 0-.5-1-1-2.2-1.2-1.3-.2-2.3-.9-2.3-1.7 0-.7 1-1.7 2.3-2.2 1.4-.5 2.2-.5 2.2.2s1 .9 2.6.5c1.8-.5 2.4-.3 1.9.5-1 1.6 1.6 3 3.2 1.7.9-.7 1.7-.7 2.7.1.7.6 2.2.8 3.1.4 1.3-.4 1.6-.3 1.1.5-.4.7-.6 1.2-.4 1.2.2.1 2 .3 4.1.6 2.7.4 3.7.2 3.7-.8s.3-.9 1 .2c.6 1 1 1.1 1 .2 0-.6.5-1.2 1-1.2.6 0 1 .7 1 1.5 0 1 1 1.5 3.1 1.5h3l-.4-7.4c-.3-4.6-1.1-8.3-2.1-9.7-.9-1.3-1.6-2-1.6-1.5s-.7.3-1.6-.5c-1.3-1-1.7-1-2.5.2s-1.1 1.1-2.3-.4c-1.7-2.1-2.6-2.2-2.6-.1 0 1.1-.5 1.4-1.7.9-1-.4-2.4-.8-3-.8-.7 0-1.3-1-1.3-2.1 0-1.5.3-1.7.9-.8.7 1.1 1.8 1.1 6.5.1 4.8-1.2 5.6-1.7 5.6-3.7 0-1.4.4-2.1 1.1-1.6.8.4.9-.1.3-1.7-.5-1.3-.9-4.6-.9-7.4 0-3.7.4-5 1.5-5.1.8 0 2.1-.2 2.8-.2.7-.1 1.2-1.9 1.2-4.7 0-4.4-.1-4.5-2.7-3.9-1.6.4-3.8 1.1-5 1.5-1.7.6-2.3.5-2.3-.5 0-.8-.6-1.7-1.2-1.9-.7-.3.4-.6 2.5-.6 3-.1 3.7-.5 3.7-2 0-1.1.6-2.2 1.3-2.4.7-.3.4-.6-.6-.6-1.2-.1-1.7-.7-1.5-1.9.3-1.9-.7-2.4-3.9-1.5-1.4.3-2.3 1.3-2.3 2.4 0 1.1-.7 2.2-1.5 2.5-.8.4-1.2 1-.9 1.5.3.6-.9.9-2.8.8-1.8-.1-4 .1-4.9.5-1 .4-2.3 0-3.4-1-1.7-1.7-1.7-1.8.1-2.5 1.4-.4.7-.8-2.5-1.4-2.4-.4-3.9-1-3.4-1.4 1.3-.8 2.3-5.1 1.2-5.1-.4 0-.6-.7-.3-1.5.4-1 0-1.5-1.5-1.5-1.7 0-2.1.6-2.1 2.9 0 2.6-.4 3-3.2 3.4l-3.3.4 3.3.1c2.2.1 3.2.7 3.2 1.8s-.6 1.4-2 .9c-1.1-.4-2-.2-2 .4 0 .6.7 1.1 1.5 1.1s1.5.4 1.5 1c0 .5-1.1 1-2.4 1-1.3 0-2.7.6-3 1.2-.5 1-.7 1-1.2 0-.9-1.9-3.4-1.4-3.4.7 0 1.1-.6 2.3-1.2 2.8-1.4.8-6.7.5-8.3-.5-.5-.4-1.6-.7-2.3-.8-1.8-.3-2.9-1.4-1.4-1.4.7 0 1.2-1.2 1.2-2.8l-.1-2.7-1.5 2.5c-.8 1.4-1.3 1.7-1 .7.3-1 .6-2.3.6-2.8s1-.9 2.3-1c2.1 0 2.1-.1.2-1-1.6-.7-1.4-.9 1.2-.6 1.8.2 3.4-.1 3.6-.7.6-1.7-.4-3.7-1.5-3-.6.4-.9.1-.6-.7.6-1.8 4.7-2.4 6.2-.8.8.9.8 1-.1.5-.7-.4-1.3-.2-1.3.3 0 .6.8 1.1 1.8 1.1 2.2 0 2.7-3.9.6-4.7-1.6-.6-1.9-3.4-.4-4.9.5-.5 1.1-2.6 1.2-4.6.2-2 .6-3.4 1.1-3.1.4.2.7-.1.7-.6 0-.6 1-1.1 2.2-1.1 2 0 2 .1.5 1.2-1.5 1.1-1.3 1.3 1.8 1.6 2.1.1 3.4-.2 3-.7-.3-.5-.1-1.2.5-1.6.8-.5 1.6 4.7 1.1 7.7-.2 1.7 4.9.7 5.9-1.1 2.1-4 .1-8.8-2.3-5.6-.4.6-1 .1-1.3-1.2-.5-1.8-1.1-2.2-3.1-1.7-1.5.4-2.8.2-3.3-.6-.6-.9-1.2-.9-3 0-1.5.8-5.4 1.1-11.4.8-7.8-.4-8.7-.3-6.1.8 1.6.6 3.5 1 4.2.7 1.7-.7 1.7 1.1 0 2.6-.8.6-1.2 2.3-.9 4.3.4 2.8.6 3 1.7 1.4.7-1 1.6-1.7 1.9-1.7 1.8.2 1.7-.1-.4-1.9-2.1-1.8-2-2.5.3-2.1.4.1 1-.6 1.3-1.4.3-.8 1-1.2 1.6-.9.5.3.4 1.2-.3 2-1 1.2-.9 1.3.4.9.8-.4 1.8-.1 2.3.6.4.7.3 1-.3.6-.7-.4-1 .5-.9 2.5.1 3-.2 3.3-4.1 4.2-3.9.8-6 2.6-3.2 2.6.8 0 .8.5-.1 1.5-1.9 2.3-3.9 1.9-3.2-.7.3-1.4.2-1.9-.6-1.4-.7.4-1.2.1-1.2-.9 0-.9-.4-1.3-1-1-.5.3-1 1.9-1 3.5 0 2.2.6 3 2.3 3.3 1.5.4 1.2.5-.8.4-1.9-.1-2.9-.7-2.7-1.5.2-.9-.4-1.2-1.5-.8-2.6.8-4.7-.9-4-3.3.4-1.7-.1-2.2-2.9-2.7-3.7-.7-4.3-1.9-4.1-7.9.2-3.6.5-4 3.2-4.6 1.7-.4 2.2-.7 1.3-.8-2.2-.1-2.4-2.1-.2-2.1.8 0 1.2-.5.9-1-.3-.6-.1-1 .4-1 .6 0 1.1.4 1.1 1 0 .5 1.2 1 2.7 1 1.4 0 2.3-.3 1.9-.8-.4-.4-1.3-.7-1.9-.7-.7 0-1.3-1.1-1.3-2.4-.1-2.2 0-2.3 1.1-.8.7.9 1.9 1.7 2.8 1.7 1 0 1.4.5 1.1 1.5-.4.8-.1 1.5.5 1.5s1.1-.7 1.1-1.6c0-1.1.5-1.4 1.6-1 .9.3 2 .6 2.5.6.6 0 .8.4.4 1-.3.5-1.3.6-2.3.3-1.2-.4-1.4-.3-.7.5.6.6 2.4 1.4 4 1.7 2.3.5 2.6.4 1.5-.4-1.3-.9-1.3-1.1.3-1.1.9 0 1.7.4 1.7.8s1.9.9 4.2 1.1c2.3.1 4.6.5 5.1.8.6.4.8-.3.5-1.5-.5-1.9-.3-2 1.3-1.1 2 1 3.3-.4 2.7-3.1-.3-1.3 6.8-3.3 8.4-2.4.3.2.4-.6 0-1.8-.3-1.4-.2-1.9.6-1.4.7.4 1.2 1.4 1.2 2.2 0 1.3 3.4 1.9 8.3 1.5.9-.1 1.7.3 1.7.8 0 .6.9 1.1 2 1.1s2 .5 2 1.1c0 .6-.9.8-2 .4s-2-.2-2 .4c0 1.2.9 1.4 5.3 1.3 3.6-.1 3.8 3.4.2 4-1.3.3-2.2.1-1.9-.3.3-.5-.4-.9-1.6-.9-1.2 0-1.9.4-1.5.9.3.5-.3 1.2-1.2 1.4-1.1.3-.7.5 1 .6 1.9.1 3 .8 3.6 2.3.5 1.3 1 1.7 1.5 1 .4-.6 1.4-.8 2.4-.5 1.3.4 1.3.2-.3-1-2-1.6-2-1.6.3-1.7 1.9 0 2.2-.4 1.7-2-.5-1.5-.3-1.8.9-1.4.9.3 1.6.2 1.6-.4 0-.6-.6-1.3-1.2-1.5-.8-.3-.7-.6.4-.6 1.1-.1 1.8.8 2 2.6.2 2.3.8 2.8 3.1 2.8 2.1.1 2.7-.4 2.7-2.1 0-1.3-.4-2.6-1-2.9-.5-.3-1-1.1-1-1.6 0-.6.4-.8.9-.4 1.5.9 1.1-7.8-.5-10.3-1.8-2.8-3.9-2.8-5.9 0-1.4 2.2-1.7 2.2-4.3.8-1.6-1-2.9-2.7-3.3-4.5-.3-1.7-1.1-2.9-1.8-2.7-.7.1-1-.1-.7-.6.6-1-1.4-9.4-2.6-10.7-.6-.6-1.2-.5-1.8.5-.9 1.3-1.1 1.3-1.9.1-.5-.8-1.9-1.6-3-1.8-1.9-.3-1.9-.1-.6 3.6 1.2 3.4 1.2 4-.1 4.5-.8.3-1.4 0-1.4-.7 0-.9-.2-.9-.8.1-.6.8-1.5 0-3.1-2.8-1.2-2.2-2.9-4.7-3.8-5.5-2.5-2.6-.9-4.5 3.9-4.6 2.4 0 5.2-.4 6.3-.9 1.5-.7 1-.8-1.9-.6-4.9.4-9.6-1.1-9.6-3.1 0-.8-.9-2.6-2-4s-2-3.9-2-5.4c0-2.9-.2-3.5-3.4-9.6-.9-1.8-1.9-4.6-2.1-6.2-.4-3.2-3.3-10-4.4-10.2-5.2-.7-13.4-.5-16.2.4zM161 51.8c0 .5-1.1 1.9-2.6 3.3-1.8 1.7-2.3 1.9-1.8.6.3-1 .1-1.7-.6-1.7-.6 0-.8-.5-.5-1.1.4-.6 1.3-.8 2.1-.5.8.3 1.4.1 1.4-.4 0-.6.5-1 1-1 .6 0 1 .4 1 .8zm30.3 15.4c-.5 1.9-.3 2.1.8 1 1.1-1 1.5-.8 2.5.9 1.4 2.6-.2 9-2 8.3-.7-.3-1.2.5-1.2 1.8.1 1.3-.3 2.4-.8 2.5-.5.1-1.3.7-1.7 1.5-.7 1-.9.9-.9-.3 0-.9.7-2.2 1.5-2.9.8-.7 1.2-1.6.9-2.2-.3-.5.1-1.9.9-3.1 1.3-2 1.3-2.5.1-4.2-1.3-1.7-1.7-1.8-3.5-.6-1.5.9-2.4 1-3.2.2-.8-.8-.5-1.1 1.1-1.1 1.2 0 2.2-.5 2.2-1.1 0-.5.4-.8.9-.5.5.3 1.1-.1 1.5-.9.8-2.3 1.5-1.8.9.7zm-38.5 5.3c.4.5-.1.5-1 .2-1.2-.4-2.1 0-2.8 1.3-.8 1.5-.7 1.8.3 1.4 1.8-.6 4.2 2.1 2.7 3.1-.5.3-1-.1-1-.9 0-2.4-1.7-1.9-2.3.6-.4 1.2-.5 2.3-.4 2.5.2.1 4.2.3 9 .5 7.8.2 8.7.4 8.7 2.1 0 1.7-.2 1.8-1.7.6-1.5-1.2-1.6-1.2-.8.1s.7 1.3-.9 0c-1.1-.8-4.3-1.5-8.2-1.6-6.1-.2-6.4-.1-4.9 1.5.8 1 1.5 2.3 1.5 3 0 1.5-3.2 1-4.6-.8-.9-1.2-1.2-1.1-1.7.3-.4.9-.3 1.5.2 1.2.4-.3 1.7.5 2.9 1.9 1.4 1.6 1.7 2.5.9 2.9-.7.2-.5.5.4.5 1.1.1 1.5.9 1.3 2.7-.4 3.7-1.4 4.3-1.5.8 0-1.6-.3-2.3-.6-1.7-.2.7-1.9 1.2-3.6 1.2-1.8-.1-2.4-.3-1.4-.6.9-.2 1.7-.9 1.7-1.4 0-.6.4-.7 1-.4.6.3.7-.1.4-.9-.7-1.8-2-2.1-2.9-.6-.3.5-1.3 1-2.1 1s-1.2-.5-.9-1c.4-.6.9-.8 1.3-.6.4.2 1.5-.2 2.5-.9 1.5-1.1 1.6-1.3.2-1.9-1.9-.7-2-4.6 0-4.6.8 0 1.5-.5 1.5-1.1 0-.5-.3-.8-.7-.6-.5.3-1.4-.1-2.1-.9-.8-.8-.9-1.4-.2-1.5l2-.4c.6-.1 1.5-.3 2-.4.6 0 1-.6 1-1.2s-.7-.8-1.6-.5c-1.4.5-1.5.4-.4-.9.7-.8.9-1.5.5-1.5s-.2-.6.4-1.3c.6-.8.8-1.6.5-2-.3-.3.6-.4 2-.3 1.5.2 3 .7 3.4 1.1zm24.9.2c-1.5.2-2.5.7-2.3 1.1.2.4-.7.7-2 .7-2.2 0-2.3-.1-.7-1.3.9-.6 3.1-1.1 4.7-1.1 3.1.2 3.1.2.3.6zm7.7 1.8c-.6 1.5-3.1 2.3-5.8 1.7-1.6-.3-1.4-.6 1-2.1 3.1-2 5.6-1.7 4.8.4zm23 3.1c2.4.9 1.9 2.7-.5 2.1-1.6-.4-2-.1-1.9 1.6.3 3.5.1 4.7-1 4.7-.5 0-1-.7-1-1.5s-.9-1.5-2-1.5c-2.7 0-2.5-1.8.3-3 1.8-.7 1.8-.9.4-.9-1-.1-1.5-.6-1.2-1.1.7-1.1 4.5-1.3 6.9-.4zm10.5 3.1c-.1 1.7-.3 2.1-.6 1-.2-.9-1.3-1.7-2.4-1.7-1 0-1.9-.5-1.9-1 0-.6 1.1-1 2.5-1 2.1 0 2.5.5 2.4 2.7zM195.1 86c-.5 2.5-.5 2.4-1.2-.5-.3-1.7-.7-3.5-.9-4-.6-2.5.1-2.8 1.3-.5.7 1.4 1.1 3.6.8 5zm-20.5-3.4c1.7 1.4 1.7 1.5.1 1-1-.3-2.7-.6-3.8-.6-1 0-1.9-.5-1.9-1 0-1.5 3.4-1.2 5.6.6zM15 83.7c.1 1.6.2 1.6 1.5-.1.8-1.1 1.5-1.5 1.5-.9 0 .7-.5 1.5-1 1.8-.8.5-.8 1.1 0 2 .8.9.8 1.5 0 2-.5.3-1.3-.1-1.6-.9-.3-.9-1.4-1.6-2.4-1.6-1.6 0-1.9-1.1-1.1-3.8.1-.1.8-.2 1.6-.2s1.5.8 1.5 1.7zm170.9.9c-1.2 1.5-1.1 1.6.6 1.1 1.1-.4 2.7-.2 3.5.3 1.7 1.1 1.8 1.1-3.8 1.3-2.3.1-4.4-.3-4.7-.8-.3-.6-.7-.5-1.1.2-.8 1.8-4.1 1.6-4.1-.2 0-.9 1-1.5 2.6-1.5 1.4 0 3.3-.5 4.1-1 .8-.5 2.1-1 2.9-1 1.1 0 1.1.3 0 1.6zm46.4.4c.5 0 .5.5.1 1.1-.4.8-.9.8-1.7 0-1.6-1.6-4.7-1.4-4.7.3 0 1.2-.5 1.2-3 .3-3.3-1.3-4.2-3.2-1-2.2 1.1.3 2 .2 2-.3 0-.6 1.4-.7 3.8-.1 2 .5 4.1.9 4.5.9zM56 88.7c0 .7-1 1.3-2.1 1.3-1.7 0-1.9.3-1 1.3.8 1 .7 1.4-.4 1.4-.8 0-1.5-.4-1.5-.8s-.9-1.1-2-1.4c-1.1-.3-2-1.5-2-2.6 0-2.4 2.3-2 3.2.6.5 1.7.6 1.6.7-.7.1-2.4.3-2.5 2.6-1.5 1.4.7 2.5 1.8 2.5 2.4zm-10 .4c0 1-.7 1.9-1.5 1.9-1.6 0-1.9-.9-.9-3.4.8-2 2.4-1.1 2.4 1.5zm91.1-1.1c-.8.4-1.1 1.5-.8 2.4.4.9.2 1.6-.3 1.6-.6 0-1-.5-1-1.1 0-.6-.7-.9-1.5-.5-.9.3-1.5 0-1.5-.9 0-.8.9-1.5 1.9-1.5 1.1 0 2.3-.5 2.6-1.1.4-.6 1-.8 1.3-.4.4.3 0 1-.7 1.5zm31.9-1c1.2.8.9 1-1.3 1-1.6 0-2.6.4-2.2 1 .3.5.1 1-.4 1-.6 0-1.1-.6-1.1-1.3 0-.8-.2-.9-.8-.1-1.1 1.7-4.9 2.6-5.7 1.4-.4-.7.2-1.4 1.4-1.7 1.2-.3 2.1-.9 2.1-1.4 0-1.2 6.1-1.1 8 .1zm62.8.6c1.2.4 2.2 1 2.2 1.4 0 .5-1 .6-2.2.2-1.1-.3-1.9-.1-1.6.4.4.5-.4.9-1.7.9-1.9 0-2.1-.3-1.4-1.8 1.1-1.9 1.4-1.9 4.7-1.1zm-106.1 2.8c-.6 1.6 4.1 2.9 7 2 1.6-.5 1.6-.4-.1 1-1.5 1.2-1.7 1.8-.7 3 1.3 1.6.7 3.6-1 3.6-.6 0-.7-.5-.4-1 .3-.6.1-1-.5-1-.7 0-.9.8-.4 2.2.7 2.5 2.4 3.9 3.6 3.2 1.4-.9.8 1.3-.7 2.6-1.3 1.1-1.4 1-.9-.5.6-1.6.4-1.7-2.2-1.1-4.3 1.1-9.3 1.3-8.7.3.3-.5-.1-1.3-.8-1.8-.9-.6-.2-.7 1.9-.4 2.3.4 3.1.2 2.7-.5-.4-.6-.1-1.8.6-2.6 1-1.3 1-1.7-.2-2.5-1-.7-.6-.8 1.2-.3 1.5.3 3 .1 3.3-.5.4-.7.1-.8-.8-.5-.9.3-1.6.2-1.6-.4 0-.6.6-1.3 1.3-1.5.6-.3 0-.6-1.4-.6-1.4-.1-3.4-.8-4.5-1.7-1-.8-1.4-1.3-.9-1 .6.2 1.7.1 2.5-.5 2-1.2 2.3-1.1 1.7.5zM20.2 93c1.1 0 1.8.5 1.5 1.2-.2.7-1.1 1.2-2.1 1-.9-.2-1.6.2-1.6.8 0 .5-.9 1-2 1-1.4 0-1.8-.5-1.3-1.7.4-1.1.3-1.4-.6-.9-.7.5-1 .2-.9-.6.3-1.5 4.1-2.8 4.6-1.6.2.4 1.3.8 2.4.8zm79.4-1.1c1.7-1.4 6-.7 5.7.8-.2 1 .3 1 2.1.2 3.1-1.5 10.1.1 10.1 2.1s1.5 3 4.3 3c2.1 0 2.2.2.8 1.5-1.9 2-4.5 1.9-5.3-.2-.6-1.5-.7-1.5-1.4.3-.6 1.5-.8 1.2-.8-1.3-.1-3.5-1.9-5.3-3.2-3.2-.7 1.1-1.1 1-2.4-.6-1.2-1.5-1.5-1.6-1.2-.4.8 2.4-7.3 3.7-8.9 1.4-.6-.8-1.7-1.5-2.5-1.5-1.1 0-1.1.2.1 1 1.3.9 1.3 1 0 1.1-2.7.3-4.5.1-6.2-.6-1.1-.4-1.8-.3-1.8.4 0 .6.9 1.1 2.1 1.1 1.1 0 1.7.4 1.4 1-.3.5-.1 1 .5 1s.9.4.5.9c-.3.6-2.3 0-4.6-1.2-2.7-1.4-3.6-2.3-2.5-2.5.9-.2 1.6-.8 1.6-1.3s.8-.9 1.8-.9c.9-.1 2.8-.7 4.2-1.5 1.5-.8 2.9-1 3.4-.5.6.6 1.5.5 2.2-.1zm56.2 2.3c-.2.6 1 1.2 2.7 1.2 2.7.1 3 .4 2.7 3.1-.2 1.6-.8 3.3-1.4 3.6-1.6 1-4.8-.2-4.8-1.7 0-.8-.4-1.4-1-1.4-1.2 0-1.2-.2-.1 3.8.8 2.5.7 3.2-.2 2.9-.7-.2-1.1-1.2-1.1-2.1.1-.9-.2-1.6-.6-1.6-1.1 0-.2-5 1.1-6.6.5-.6.6-1.4.2-1.7-.3-.4.1-.7 1-.7 1 0 1.6.5 1.5 1.2zM37 96.8c1.4.2 3.8.3 5.3.3s3 .6 3.4 1.4c.3.8 1 1.2 1.6.8.5-.3.7-.1.4.4-.9 1.4-5.8.4-5.1-1.1.3-.6-.1-.3-.9.7-1.2 1.5-1.9 1.6-3.6.8-1.3-.7-2.2-.8-2.6-.1-.3.5-1.1 1-1.6 1-.6 0-.7-.5-.4-1 .3-.6.2-1-.3-1-.6 0-.8-.9-.5-2.1.3-1.1.9-1.7 1.2-1.2.3.4 1.7.9 3.1 1.1zm17.4-.3c-1.8 1.3-1.7 1.4 1.4 2.1 1.8.4 3.5 1 3.7 1.4.7 1.2 8.5-1 8.2-2.3-.2-1.1 7.9-2.8 8.8-1.9.3.3-.1 1.2-.8 2-.6.9-.7 1.3-.2 1 .6-.4 1.2.3 1.2 1.4.2 1.6-.1 1.8-1 .9-1.6-1.6-3-1.4-2.3.4.3.8.1 1.5-.4 1.5-.6 0-1-.4-1-.8s-.9-.8-2-.8c-2.2 0-2.7 1.2-.7 1.9.6.3 0 .5-1.4.4-1.9-.1-2.5-.5-2.1-1.6.3-.9.1-1.2-.6-.7-.7.4-1.2 1.4-1.2 2.2 0 .8-.4 1.4-1 1.4-.5 0-.7-.7-.4-1.5.4-1 0-1.5-1.6-1.5-1.1 0-1.8.4-1.5 1 .3.5.2 1-.3 1-.6 0-1.3-.7-1.6-1.5-.3-.9-1.4-1.5-2.3-1.3-1 .2-1.7-.2-1.6-.9.2-.6-.7-1.5-1.9-1.9-2.1-.6-2.1-.6.3-2 3.2-1.8 4.8-1.8 2.3.1zm85.6 3.6c0 1.1.3 1.8.8 1.8.4-.1 1.9-.1 3.4 0 2.6.1 2.7.3 1.6 2.6-1 2.3-2.8 2.6-2.8.4 0-.6.5-.7 1-.4.6.3 1 .1 1-.6 0-.8-1.4-1-4.3-.7-4.2.5-4.4.4-3.9-2 .4-1.9.1-2.4-1-2-.8.4-1.5.1-1.5-.6 0-.8 1.1-1 2.9-.8 1.9.3 2.8 1 2.8 2.3zm-31.2.6c.1.7.2 2.3.3 3.5.1 2.1.7 2.3 7.2 2.5 3.9.2 7.4.6 7.8 1 .9.9 0 6.3-1 6.3-.4 0-.5 1.4-.3 3.1.4 2.4.9 3 2.3 2.6 1.1-.3 1.9-.2 1.9.3 0 1.1-3 2.1-4.1 1.4-.6-.3-1.5-.1-2.2.5-.8.6-1.8.6-2.7.1-1.2-.8-1.2-1 .3-1.6 2.1-.8 2.3-2.4.3-2.4-1.5 0-3.2 3.5-2.8 5.7.2.7-.2 1.3-.8 1.3-.5 0-1-.7-1-1.5 0-1.2-1.3-1.5-5.7-1.5-3.2 0-6.9-.3-8.3-.7-2.3-.6-2.4-.6-.8 1 .9.9 2.2 1.7 2.8 1.7.7 0 .8.6.1 1.9-.6 1-2 1.8-3.3 1.7-2.1-.1-2.3-.6-2.1-4.9.3-4.7-1.3-6.7-1.9-2.5-.3 2-.8 2.3-3.8 2-2.1-.2-4.3-1.2-5.3-2.5-1-1.2-1.6-1.6-1.2-1 .4.8 0 1.3-1 1.3s-1.3.5-.9 1.2-.3.4-1.6-.7-2-1.5-1.7-.8c.9 1.4-.2 4.3-1.5 4.3-.5 0-.6-.5-.3-1 .3-.6.1-1-.4-1-.6 0-1.1.6-1.2 1.2 0 1-.2 1-.6 0-.9-2.2-2.3-1.3-2.3 1.5 0 2.3.2 2.5 1.1 1.3.8-1.1 1.2-1.2 1.6-.2.2.6.9 1 1.4.6.5-.3.9 1.2.9 3.3 0 4.8.9 6.1 4 6.4 5.7.5 6.7 0 6.8-3.1 0-1.7-.4-3-.9-3s-.9.6-.9 1.2c0 .9-.3.8-1-.2-.5-.8-1.2-1.1-1.6-.7-.4.4-.2 1.3.4 1.9.7.7 1.2 1.7 1.2 2.2 0 .6-.5.3-1.1-.7-.5-.9-1.7-1.7-2.4-1.7-.8 0-1.5-.6-1.6-1.3 0-.6-.2-2.4-.3-4-.1-2.1.3-2.7 1.9-2.7 1.1 0 2.7.5 3.5 1.1 1.2.8 1 .9-.7.4s-2.3-.2-2.3.9c0 1.3 1.3 1.6 6.6 1.6h6.6l-.7 3c-.5 2.5-.3 3 1.2 3.2 4.4.3 7.1.7 11.1 1.6 4.4 1 4.7.7 4.3-4.8 0-.8.2-1 .5-.4.5 1.1 8.4 1.1 13.1-.1 1.2-.3 2.4-.1 2.7.4.3.5 1.6.7 2.9.4 1.8-.4 1.9-.3.7.6-1.7 1.2-.2 1.5 2.4.5 1.8-.7 2.2-3.4.6-3.4-.6 0-1-.7-.8-1.6.4-2.5-2.2-2.9-2.9-.5-.6 2.4-.7 2.5-3.2.9-2.7-1.7-.3-3.8 4.3-3.8 2.9 0 3.6-.4 3.6-2 0-2.3.4-2.4 3-1 1.3.7 2.1.7 2.5 0 .4-.7 1.1-.7 1.8-.2 1.7 1.3 6.7 2.1 6.7 1.1 0-.5-.7-.9-1.5-.9s-1.5-.7-1.5-1.5c0-1.3-.4-1.4-2-.5-1.6.9-2 .8-2.1-.7 0-1.4-.2-1.3-.9.4-.7 1.6-1.4 2.1-2.7 1.6-.9-.4-1.2-.8-.6-1 .7-.3.9-1.1.6-1.9-.3-.8 0-1.4.6-1.4s1.1-.6 1.1-1.3c0-1.6 12-1.5 16.2.1 2.7 1.1 4.7 3.2 2.9 3.2-.5 0-1.1-.4-1.3-.9-.1-.5-2-1.2-4-1.6-3.4-.7-3.8-.5-3.8 1.4 0 1.2.6 2.1 1.5 2.1.8 0 1.5-.5 1.5-1 0-.6 1-1 2.3-1 1.7 0 1.9.2.7 1-1.3.8-1.3 1 0 1.4 2.4.9 5.5 0 5.2-1.5-.2-.9.1-.9 1-.2 1.8 1.4 5 2.5 4.4 1.5-.2-.4-.1-1.4.3-2.1.6-.9 1-.5 1.3 1.3l.5 2.6-8.1.1c-4.4.1-7.1.4-5.8.6 2.1.4 2.6 1.3 2.3 4-.1.6.3 1.4.9 1.8.5.3 1 0 1-.7 0-.8.9-2.1 2-3.1 2-1.7 2.4-1.2 2.1 2.5-.1 1 .3 1.8.8 1.8 1 0 1.5-1.9 1.2-4.5 0-.6.8-1.1 2-1.1 1.6 0 1.9.6 1.7 3.1-.2 1.7-.8 2.9-1.5 2.7-.7-.1-1.3.7-1.3 1.8s.4 2 1 2c.5 0 .7.7.4 1.5-.4.8-.1 1.5.5 1.5 1.9 0 4.9-3.2 4.4-4.6-.4-1 .3-1.4 2.2-1.4 2 0 2.6.4 2.1 1.5-.4 1.2.6 1.5 5.4 1.6 3.3.1 6.4.2 6.9.3 1.5.2 2.6 1.6 1.3 1.6-.7 0-1.1 1-1.1 2.2.1 1.8.2 1.9.6.5.4-1.7.6-1.7 2.3.3 1.3 1.5 2 1.7 2.4.8.5-1 .7-1 1.2-.1.3.8 2.4 1.3 4.9 1.3 4 0 4.3.2 4.7 3.1.5 3.2-1.2 4.9-5.1 4.9-1.1 0-2.3.5-2.7 1.1-.4.8-.9.8-1.8-.1-.8-.8-.7-1.3.4-2s.7-1-1.7-1c-1.8 0-3.3-.3-3.3-.8 0-.4-2.3-.5-5-.4-4.8.4-5 .5-4.7 3 .3 2.4 1 2.8 5.8 3.8l5.4 1.2-4.5.2c-2.5.1-3.9.4-3.2.7 1.4.6 1.6 4.9.2 5.8-.6.4-1-.5-1-1.9s-.5-2.6-1.1-2.6c-.7 0-.9 1.2-.7 3.1.5 3 .4 3.1-2.9 2.6-2.8-.5-3.4-.3-2.9.8.3.8 0 1.5-.6 1.5-.7 0-.9-1.5-.5-4.5.6-4 .5-4.5-1.3-4.5-1.5 0-2 .7-2 2.6 0 1.4.4 2.3 1 1.9.6-.3 1-.2 1 .4 0 1.7-1.2 4.1-2.1 4.1-.4 0-.6-.6-.3-1.4.6-1.6-2.1-2.7-8-3.2-2.7-.2-3.5 0-2.6.7.8.5 2.5.9 3.8.9 1.3 0 2 .4 1.7 1-.3.5-.1 1 .6 1s.2.9-1.1 2-1.8 2-1.2 2c.6 0 1.3-.4 1.7-.9.3-.6 3-.8 6-.6 3 .2 5.5 0 5.5-.4 0-.5 1.2-1.2 2.6-1.5 3-.8 5.5.9 4.7 3-.4 1.1.4 1.4 3.2 1.4 3.1 0 3.5-.2 2.6-1.4-.9-1-.8-1.5.2-1.9 2.2-.8 6.7.4 6 1.7-.4.6.1.5 1-.3 2.7-2.1 2-3.1-2.1-2.9-5 .2-6.2-.7-6.2-4.3 0-3.9 1.8-3.7 2.2.3.3 2.8.5 3 1.3 1.4.5-1.1.4-2.5-.3-3.6-1.4-2.2-.3-3.7 3.3-4.6 1.7-.4 3.5-.9 4-1.3 1-.6 2.2-.7 8-1 5.6-.2 6.2.1 5.8 2.8-.4 2.1-.2 2.3.6 1.1.8-1.1 1.1-.4 1.1 3.1 0 3-.6 5.1-1.6 6-.9.7-1.3 2.1-1 3.3.9 3.7-.9 5.1-6.9 5.2-4.4.1-5.5-.1-5.1-1.2.3-.8.1-1.4-.4-1.4-.6 0-1 .5-1 1.2 0 .8-3.1.9-11.7.4-29.2-1.8-30.4-1.8-30.1-.5.2.6-.3 1.4-.9 1.6-2.4.9.2-3.7 3.2-5.8 2.3-1.6 2.6-2 1-1.8-1.1.2-3.7-.5-5.7-1.5s-4.2-1.5-4.8-1.1c-.6.4-3.5.9-6.3 1.1-6.3.4-8.7 2.7-6 5.6 1.2 1.4 1.4 2.1.5 3-.8.8-.7 1.5.6 2.5 1.6 1.4 1.6 1.4 0 .9-1.2-.3-1.8 0-1.8.9s.6 1.2 1.8.8c1.6-.5 1.6-.5 0 .8-.9.8-1.8 2.3-2.1 3.4-.3 1.3-.5.8-.6-1.3-.1-4.1-2.1-4.3-2.1-.1 0 3.7-1.2 3.1-3.4-1.6-1.1-2.2-2.4-3.5-3.6-3.5-2.3 0-2.5 1-.7 3 1 1.2.9 1.2-.5.1-1.3-1-1.8-1-1.8-.2 0 .7-.4 1-.9.7-.5-.3-1.1.3-1.4 1.4-.3 1.3.1 2.1 1.4 2.5 1.1.4 1.7 1 1.4 1.4-.2.5.7 1.3 2.1 2 2.1.9 2.8.8 4.2-.5 1.5-1.5 1.6-1.5 2.2.2.5 1.5.7 1.5 1.2.2.4-.8 1.9-1.6 3.5-1.7 8.4-.6 8.7-.6 9.1 1.2.3 1.5 0 1.6-2.3.5-2.2-1-2.8-.9-3.6.3-.6 1-.9 1-.9.1s-.5-1-1.9-.3c-1 .6-2.1.7-2.5.4-.3-.3-.6-.1-.6.5 0 .7-.7 1.2-1.5 1.2-1.7 0-1.9.9-.5 3 .8 1.3 1 1.2 1-.3 0-2.1 2.6-2.3 3.4-.1.3.9.2 1.2-.5.9-.6-.4-1.9.1-3 1.1-1.7 1.6-1.9 1.6-1.9.1 0-2.1-.9-2.1-3.4-.2-1.1.8-3.7 1.5-5.8 1.5-3.1 0-3.6.3-3.1 1.7.4 1 .2 1.4-.5.9-.6-.3-1.3-.2-1.7.4-.3.5-.1 1 .4 1 .6 0 1.1 1 1.1 2.1 0 1.9.2 2 1.8.8.9-.7.5 0-1 1.5-1.6 1.5-2.8 3.1-2.8 3.6s-.7.7-1.5.4c-2-.8-1.9 1.3.1 3.3 1.3 1.3 1.3 1.7.2 2.4-1.7 1.1-4.1 1.2-3.4.1.2-.4-.4-.8-1.4-.8-1 0-1.6.4-1.4.8.7 1.2-.4 1-3.9-.6-1.8-.8-4.1-1.7-5.2-1.9-1.7-.4-1.7-.5.3-.6 1.5-.1 2.1-.5 1.6-1.3-.5-.7-.3-.8.6-.3 1 .6 1.2.3.7-1.4-.3-1.5 0-2.4 1-2.8.8-.3 1-.8.5-1.2-1.2-.7-.4-6.1 1-6.1.5 0 .6.5.2 1.1-1.2 2.1 1.9.4 3.3-1.8 1.3-1.9 1.2-2-1.3-1.5-4.3.8-8 5.5-7.5 9.6.2 1-.2 1.5-.8 1.2-.5-.4-1.4.2-2 1.1-.9 1.6-1 1.6-1.1.2 0-.9-1-1.9-2.2-2.2-2.8-.8-2.7-.8-2.1 2.6.3 1.6.9 2.4 1.2 1.8.4-.5 1.2-.6 2-.2 1.1.7 1 1.3-.3 3.3-2.1 3.2-1.1 5.8 2.3 5.9h2.6l-2.5 1.1-2.5 1.1 2.5.7c2 .7 2.1.8.5.9-2.8.1-3.9-.9-5.4-4.6-.8-2-1.8-3-2.5-2.6-1.7 1.1-8 .3-9.8-1.4-.9-.8-1.8-2.3-2.1-3.3-.4-1.7-.1-1.9 2.7-1.4 2.4.3 3.7 0 5-1.5 2.8-3.1 1.7-5.5-2.9-6.2-3.6-.6-3.7-.6-.9-.8 3.1-.1 3.2-.2 2.4-3.6-.4-2-1.4-4.2-2-5-1.3-1.5-.5-2 2.8-1.6.9.2 1.2-1 1-4-.3-3.7 0-4.4 1.8-4.8 1.8-.5 2-1 1.3-2.9-1-2.7-2.5-2.8-4.1-.2-.7 1.1-1.6 2-1.9 2-.7 0-2.4-11.6-2-13.7.1-.6-.4-1.5-1-1.9-.7-.4-.9-.3-.6.3.4.6-.9.3-2.9-.7-2-1.1-4.3-1.6-5.2-1.2-1.5.5-1.5.4.1-1.2 2.1-2.2 2.2-3 .1-2.2-1.2.4-1.5.2-1-.9.3-.8.1-1.5-.4-1.5-.6 0-1 1.6-1 3.5s-.4 3.5-1 3.5c-.5 0-1-.8-1-1.8 0-1.1-.8-1.8-2.1-1.9-2.6-.2-2.5-.1-3.3-3.6-.4-1.6-.2-2.7.4-2.7.5 0 1 .4 1 .8 0 1.7 5.5.6 6.5-1.3 1.6-3 4-2.6 3.8.6-.2 2.4.3 2.7 5.5 3.9 4.4 1 5.2 1.4 3.7 2-1.2.4-2.3.3-2.7-.4-.5-.6-.8-.2-.8 1.1 0 1.9.6 2.3 3.3 2.4 1.7.1 4.3.3 5.7.4 3.6.4 6-1.6 6-4.7 0-1.6-.4-2.8-.9-2.8-1.6 0-2.2 1.8-.9 2.3.7.3-.6.5-2.9.5-3.7 0-4.3-.3-4.4-2.2-.1-1.7-.2-1.7-.6-.4-1 3.7-2.7 1.7-2.6-3 .1-1.5-2.2-1.6-4.9-.1-1.7.9-1.9.8-1.4-.9.7-2-1.7-3.8-3.5-2.6-.5.3-.9.3-.9-.1 0-.3.9-.9 2-1.3 1.5-.5 1.7-1.1.9-2.2-.9-1.2-1.1-1.3-1.6-.1-.5 1.1-.7 1.1-1.4 0-.8-1.1-1.1-1.1-2 .3-1.4 2.6-5.9 2.4-5.9-.2 0-1.1-.4-2-1-2-2.4 0 0 5.3 2.8 6.1.8.3.5.9-.8 1.7-1.9 1.1-2.1 1.1-1.8-.5.2-1.4-.4-1.8-2.5-1.9-4.1-.1-6.4-3.9-2.9-4.7 1-.2.1-.7-2.2-1.2-2.8-.6-4-.4-4.7.6-.5.9-.3 1.6.7 1.9 1.3.5 1.4.8.2 1.6-3 2.4-3.3 2.2-3-3.3.4-5.2.5-5.5 2.8-5 1.3.2 2.4 0 2.4-.4 0-.5-.7-.9-1.5-.9-1.7 0-2.1-4.5-.5-5.5.6-.4 1 .5 1 1.9 0 2.1.5 2.6 2.5 2.6 1.4 0 2.5-.5 2.5-1 0-.6.5-1 1.1-1 .5 0 .7.4.4 1-.3.5.3 1 1.4 1 1.1 0 2.2-.4 2.5-.9.3-.5 1.5-1.1 2.6-1.4 1.5-.4 2-.1 1.8 1-.2 1 .5 1.7 2 1.8 1.8.1 2.2-.3 2.1-2.9 0-2.6-.2-2.8-.9-1.1-.7 1.8-.8 1.8-1.5-.8-.4-1.5-.4-3.8-.1-5.2.6-2.3.4-2.5-2.7-2.5-3.3 0-3.4.1-3.3 3.7l.1 3.8-4.7.3c-4.5.3-5.8-.4-4-2.2.4-.4.7-2.2.7-3.9 0-2.4.5-3.2 2.5-3.8 2.5-.7 2.5-.7-.3-.8-1.8-.1-2.7-.6-2.4-1.4.2-.8 1.9-1.1 4.7-.9 2.3.1 4.9-.3 5.6-.9 2.8-2.3 3.7-.3 1 2.4l-2.7 2.7h2.8c2.2 0 2.5-.2 1.3-1-1.3-.8-1.2-1 .3-1 1 0 1.5-.5 1.2-1-.4-.6.5-1 1.9-1s2.6-.5 2.6-1.1c0-1.2 8-.4 9 .9.3.4 3.4.4 7 .1 3.6-.3 5.4-.7 4-.8-1.8-.3-2-.5-.7-.8.9-.2 1.7-1.2 1.8-2.1 0-1.1.2-1.2.6-.5.2.8 2.2 1.3 4.4 1.3 3.8 0 4.6.8 4 4.2 0 .5 1 .8 2.4.8 1.9 0 2.5-.5 2.5-2.1 0-1.1-.5-1.7-1-1.4-.6.4-1 .3-.9-.2.6-2.6-1.4-4.1-4.8-3.7-2 .3-4 .7-4.4 1-.5.3-.9 0-.9-.5 0-1.1 1.3-1.5 3.6-1.2.7.1 1-1 .8-2.6-.3-3 2.2-8 4.1-8 .6 0 1.2.6 1.3 1.4zm42.3 10.3c1 0 1.9-.6 1.9-1.3 0-.8 1.7-1.1 5.7-1 3.2.1 6.8.2 8.1.2 1.7.1 2.2.7 2.2 2.7 0 1.7-.4 2.3-1.2 1.8-.7-.5-3.3-.9-5.8-.9-13.1-.4-20.1-.9-17.2-1.2 2.4-.3 3.2-.9 3.3-2.6.2-2.2.2-2.2.6 0 .3 1.5 1.2 2.3 2.4 2.3zm-16.2-.8c1 2.7-.3 5.8-2.5 5.8-.8 0-1.2.5-.8 1.1.5.8.1.8-1.4 0s-2.1-.8-2.4.1c-.3.7-.7.4-1-.7-.4-1.6 0-2 2.1-2 1.4 0 2.7-.5 2.9-1 .1-.6-1-1-2.5-1-3.1 0-4.4-1.1-3.6-3.2.3-.8 2.1-1.3 4.4-1.3 3.2 0 4.1.4 4.8 2.2zm-97.2 10.6c-1 .4-1.8 1.2-1.8 1.7 0 .6-.9 1.3-2.1 1.8-1.6.6-1.9.4-1.4-.9.4-1.1.1-1.4-1.2-1-1.2.4-1.9.1-1.9-.6 0-.9 1.8-1.4 5.1-1.5 3-.1 4.4.1 3.3.5zm86.7 3.5c.4-.4.3.4-.2 1.7-1.1 2.8-3.2 3.9-3.2 1.5 0-.9.5-1.3 1-1 1.4.9 1.2-.8-.2-2.5-1.1-1.2-1-1.2.3-.2.9.6 1.9.9 2.3.5zm-74.7 1.8c1.2 0 2.5.3 2.8.8.7 1.2-6.2.6-9.5-.9-2.2-.9-2.1-1 1-.4 1.9.3 4.5.6 5.7.5zm158.3 4.6c0 1.2.3 3 .7 4 .7 1.7.6 1.7-2.1 0-2.1-1.4-3-1.6-4.2-.6-1.1.9-1.4.8-1.4-.5 0-1-.5-1.4-1-1.1-.6.4-.8 1.1-.5 1.6.4.5.1.9-.5.9s-.9.3-.7.7c.3.5 3.1.8 6.4.8 3.2 0 6.1.4 6.5 1 .5.6.8.5.8-.2 0-.9 1.1-1.1 3.5-.7 3.4.5 3.5.4 3.5-2.7 0-4.3 1.1-3 1.6 1.9l.3 3.9-3.7-.4c-2.1-.2-7.3-.7-11.7-1.1l-7.9-.7-.7-3.4c-1.1-5.1-.4-5.7 5.6-5.7 5 .1 5.5.3 5.5 2.3zm-181.4.8c-.3.9 0 1.5.9 1.5 1 0 1.4 1 1.3 3.2 0 1.8.2 4.3.6 5.5.6 1.8.3 2.3-1.1 2.5-6 .5-7.2.4-7-.5.1-.5-1.7-1.1-4-1.4-3.8-.4-4.2-.2-3.8 1.7.4 2.2.2 2.3-3.5 1.3l-2.5-.7 2.5-.7 2.5-.7-2.7-.1c-1.6-.1-2.8.3-2.8.9 0 .5-.9 1-2 1-3.3 0-.2-2.6 3.4-2.8 1.6-.2 3.4-.6 4-1.1 1.8-1.4 8.4-2.2 9.1-1.1.3.5 1.2 1 1.8 1 .7 0 .6-.4-.3-1-1.2-.7-.8-1 1.4-1 2.3 0 2.6-.3 1.7-1.4-.7-.8-.8-1.6-.3-1.8.5-.1 0-1.2-1.1-2.3-1.6-1.6-1.9-1.7-1.4-.3.3 1 0 1.9-.9 2.2-2.5 1-3.4.7-3.4-.9 0-.8.7-1.5 1.5-1.5s1.5-.4 1.5-.9c0-.8 1.8-1.6 4.4-2 .4 0 .6.6.2 1.4zm20.1 11.1c.2.5-.5 1.4-1.5 2.1-1.5.9-2.1.7-3.2-1.1-1.2-1.9-1.2-2 .3-.7 1.5 1.2 1.7 1.1 1.7-.4 0-1.7 2.1-1.7 2.7.1zm174.1 1.1c.1 1.5-.4 2.3-1.4 2.3-1.3 0-1.4-.3-.5-1.4 1-1.2.9-1.4-.7-1-1 .3-2.4-.1-3-.9-.9-1.1-.6-1.3 2.1-1.3 2.7.1 3.3.5 3.5 2.3zm-164.1 1.5c.1 1.1.7 2.4 1.3 2.8 1.5.9 1.5 2.1-.1 3-.7.5-.9 1.5-.4 2.6.6 1.7.9 1.5 1.8-1.1.6-1.6 1.7-3.6 2.6-4.5 1.3-1.3 1.4-1.3.9.2-.4.9-1 3.2-1.3 5.1-.6 2.9-.4 3.6 1.2 4 1.5.4 1.5.5.1.6-.9 0-2-.4-2.3-.9-.3-.6-1.5-1-2.6-1-1.3 0-1.9-.7-1.9-2.3 0-1.8-.2-1.9-1.1-.7-.9 1.2-1 1.1-.4-.5.3-1.1.9-3.3 1.2-4.9.5-2.3.3-2.7-.8-2.1-1.2.8-1.2.6 0-.8 1.7-2.1 1.6-2.1 1.8.5zm89.3 20.7c0 .5-.7 1.4-1.5 2.1-1.2 1-1.3 1.6-.3 2.9 1.1 1.4 1.1 1.4-.3.3-1.3-.9-1.9-4.3-1-6 .3-.6 3.1-.1 3.1.7zm87.6-.1c1.3.8 1.1 6-.3 7.2-1.9 1.9-7.3 1.5-7.3-.6 0-.8-.5-1.2-1-.9-.6.4-.8 1.1-.5 1.6.4.5-.1.9-1 .9-1 0-1.3-.5-.9-1.2.5-.8.2-.9-1.2-.4-3.2 1.3-3.7 1.2-4.9-1.1-.7-1.3-1.5-2-1.9-1.6-.4.4-.4 0 0-1 .5-1.3 1.8-1.7 5.4-1.7 2.8 0 5 .5 5.2 1.2.3.7 1.2.9 2.3.4 1.7-.6 1.7-.9.5-1.7-1.1-.8-.9-.9.9-.4 1.6.5 2.1.4 1.7-.4-.8-1.2 1.3-1.5 3-.3zm-60.8 3.1c.7.1 1 .6.6 1.2-.4.7 0 .9 1.3.5 1.5-.5 1.9-.2 1.9 1.5-.1 1.2.5 2.4 1.2 2.6.7.3 1.2-.4 1.2-1.5s.6-2.2 1.4-2.5c1-.4 1.3.1 1.2 1.7-.2 1.2.1 3.1.5 4.1.5 1.6.7 1.3.6-1.1 0-4.2 1.1-5.7 3.7-5 1.1.3 5.1.6 8.8.7 6.3.2 6.7.4 6.3 2.3-.2 1.2-.7 4.2-1 6.8-.7 5.3-1 5.4-5.9 3.4-1.8-.7-5.1-1.7-7.4-2.1-2.2-.3-5.1-1.5-6.3-2.6-2.7-2.3-4.7-2.6-2.4-.3 2 2.1 1.1 3.1-1.2 1.3-1.1-.9-1.4-1-.9-.2.4.7.3 1.3-.2 1.3-.6 0-1.3-.8-1.7-1.8-.6-1.6-.7-1.6-2.1.2-1.4 1.9-1.4 1.9-1.5-.5-.1-1.3 0-3.6.1-5.2.2-3.1-.5-3.4-6.4-2.3-1.4.3-2.6.1-2.6-.3 0-1.8 2.5-2.9 5.8-2.6 2.1.2 4.3.4 5 .4zM7 174.5c0 .3-.6 1.4-1.2 2.6-1.1 1.7-1 2.2.5 3 .9.6 1.5 1.5 1.1 2-.4.6-1.1.5-2-.2-1.3-1.1-1.3-.9-.3 1.5 1.1 2.3 1 2.9-.2 3.6-.9.6-1.5.5-1.8-.2-.2-.7.1-1.4.7-1.6.9-.3.9-.9.1-2.3-1.1-2.2.5-8.9 2.2-8.9.5 0 .9.2.9.5zm56.1 2.5c.6 0 .6.7-.1 1.9-1.8 3.4-.8 6.5 2.5 7.8l3 1.1-3.2.1c-1.8.1-3.3.6-3.3 1.1 0 .6 1.1.8 2.5.4 2.9-.7 3.4 1 1 3.6-1.2 1.4-1.2 2-.1 4.2.9 1.7 1 2.8.4 3-.6.2-1.1 1.8-1.2 3.5-.1 1.7-.9 4-1.9 5-.9 1.1-1.5 2.2-1.3 2.4 1 1 1.4 5.9.5 6.4-.5.4-.9-.1-.9-.9 0-.9-.4-1.6-1-1.6-.5 0-1 .8-1 1.7 0 1.4-.2 1.5-1.2.4-1.1-1-.9-1.5.7-2.7 1.6-1.2 1.7-1.7.6-2.3-1-.7-1.1-1.3-.1-3 .6-1.2.9-2.7.6-3.4-.2-.7-.5-.5-.5.4-.1 1.2-.8 1.5-2.6 1.1-2.9-.5-3-1-.9-4.1 1.1-1.5 2.3-2.1 3.6-1.8 1.8.5 2 .2 1.4-2.6-.4-1.8-1.1-3.4-1.7-3.5-.6-.3-.5-.9.2-1.9 1.1-1.2.9-1.2-1.4-.2-1.5.7-2.7 1.8-2.7 2.4 0 1.8-5.8 2.5-6.4.8-.3-.8.2-1.3 1.4-1.3 2.7 0 8.4-3.6 7.1-4.4-1.6-1-1.4-2.6.3-2 1.8.7 3.5-4.1 3.2-9.1-.2-4.2.6-7.2 1.2-4.3.2 1 .8 1.8 1.3 1.8zM44 175.7c0 .5 2.1.8 4.8.8 4.7 0 7.4 1.5 7.8 4.1.1.8-.2 1.4-.7 1.4-.5 0-.9-.7-.9-1.5s-.4-1.5-1-1.5c-.5 0-1 .7-1 1.6 0 1.1-.7.8-2.4-1-2.5-2.8-4.1-3.2-5.1-1.5-.4.6 0 .9 1.1.7 1.3-.2 2 .4 2.2 1.9.3 1.9-.1 2.3-2.3 2.3-2 0-2.6-.4-2.1-1.5.3-.8.1-1.5-.3-1.5-.5 0-1.1.7-1.5 1.5-.3.8-.1 1.5.3 1.5 1.3 0 2.3 3.2 1.4 4.1-.5.5-1.5.4-2.3-.1-1.3-.8-1.3-1 0-1 .9 0 .7-.6-.8-1.6-2.2-1.5-2.2-1.7-.6-3.5.9-1 1.4-2.5 1.1-3.3-.3-.8-.3-1.7 0-2 .9-.8 2.3-.7 2.3.1zm38.5 1.5c2.5.7 4.5 1.6 4.5 2 0 1.3-6 .9-6.1-.5 0-.9-.2-.9-.6.1-.3.8-1.6 1.1-3.8.6-2.9-.5-3.4-.3-3.8 1.8-.4 2.2-.4 2.2-.6-.3-.2-4.8 2.5-5.8 10.4-3.7zm-56.9 6.5c.8 1.4.7 2.2-.8 3.7-1.8 1.9-1.8 1.9-1.8-.3 0-1.2.4-1.9 1-1.6.6.3 1 .1 1-.4 0-.6-.4-1.1-1-1.1-.5 0-1-.5-1-1 0-1.6 1.4-1.2 2.6.7zm131.9.3c1.8 0 2.5.4 2 .9-2.2 2.1-9.5 1.2-9.5-1.1 0-.6 1-.8 2.3-.4 1.2.3 3.5.6 5.2.6zm31.2 1.2c-1.8.9-7 0-6.3-1.1.3-.4 2.1-.5 4.2-.3 2.8.4 3.3.7 2.1 1.4zm-18.4 1.8c1.3 0 3.4 1.2 4.8 2.7l2.4 2.7-3.1-2.2c-1.7-1.1-5.4-2.4-8.2-2.8-2.9-.3-5.2-1-5.2-1.4 0-1.6 1.4-1.8 4.1-.5 1.5.8 3.9 1.5 5.2 1.5zm-17.6 1.3c-.1.6.8 1.3 2.1 1.5 2 .3 2 .5.7 1.9-2 1.9-4.5 1-4.5-1.7 0-1.1-.5-2-1.1-2-.5 0-.8-.4-.4-1 .8-1.2 3.5-.1 3.2 1.3zm-142.8.2c-.9 3.7-1.2 4.5-2.1 4.5-.5 0-.6-.9-.3-2 .4-1.3.2-2-.7-2-1 0-.9-.3.2-1 1.8-1.1 3.2-.9 2.9.5zm4.7 2.2c-.2.2 0 1.8.4 3.4.7 2.2.5 2.9-.5 2.9-.8 0-1.2.6-.9 1.4.4 1 0 1.3-1.3 1.1-1-.2-2.1-.4-2.5-.4-.5-.1-.8-.6-.8-1.2 0-.5.5-.7 1.1-.3 1.7 1 2.7-1.4 2.2-5.2-.4-2.8-.2-3.3 1.2-2.8.9.4 1.4.9 1.1 1.1zm135.7 7.2c-.3 1 0 2.9.7 4.1 1 1.8 1.4 1.9 2.7.8 1.4-1.1 1.5-1.1 1.1.2-.2.8-1.4 1.6-2.6 1.8-1.3.2-2.2 1.1-2.2 2 0 1.5.2 1.5 1 .2 1.3-2 1.3-.4 0 2.1-.8 1.4-.7 1.9.2 1.9 1.1 0 1.1.2 0 .8-.9.6.1 1.6 3.3 3.2 2.5 1.3 4.5 2.7 4.5 3.1 0 .4 1 .5 2.3.2 1.8-.4 1.9-.3.7.6-.8.6-2.3 1.1-3.2 1.1-1.6 0-2.2 1.1-1.9 3.2 0 .6-6.9-.1-7.8-.8-1-.8 2.4-3.5 4.3-3.3 4.6.3 5.2 0 3.4-1.7-1.4-1.5-1.8-1.5-4.2.1-3.3 2.2-4.8 1.1-5-3.5-.1-1.7-.7-3.5-1.4-3.9-.9-.6-1.2-2-.8-4.5.4-2.4.2-3.5-.4-3.1-.6.3-1-.4-1-1.7-.1-2.2-.1-2.2-1.5-.4-1.9 2.5-3.9 1.2-2.2-1.5 1-1.6.9-2.1-.3-2.9-1.2-.8-1.2-1 .2-1.5 1-.4 2.5.2 3.8 1.5 2.5 2.5 3.6 2.1 2-.9-.8-1.5-2.1-2.1-4.8-2.2-3.7-.1-3.7-.1-.7-.8 1.7-.4 3.9-1.2 5-1.8 1.6-.9 2.1-.6 3.6 2.3.9 1.9 1.5 4.3 1.2 5.3zm38.8-7.2c1 1.1 1 1.4.2.9-.9-.5-1.3 0-1.3 1.3 0 2.3 1.5 2.8 2.3.8.3-.6.6-.2.6 1 .1 1.7-.5 2.3-1.9 2.3-2 0-2.4-.9-2.1-4.3.1-.9-.3-1.7-.9-1.7-.6 0-.8-.5-.5-1 .9-1.5 2.1-1.2 3.6.7zm-114 .4c2 1 2 1.1.2 2.4-1 .8-2.8 1.5-4.1 1.5-2.3 0-2.3 0-.5-2.5 2.1-2.9 1.9-2.8 4.4-1.4zM182 194c0 .5-.8.6-1.7.3-1.6-.6-1.6-.5-.4 1 1.1 1.4 1.1 1.7 0 1.8-1 0-1.1.2-.1.6.6.2 1.2 1.1 1.2 1.9 0 .8.6 1.1 1.6.7 1.4-.5 1.5-.1.9 2.8-.9 4.3-1.3 4.9-3.1 4.9-1.4 0-1.8 1.1-1.5 3.7.1.7-.2 1.3-.7 1.3-1.5 0-2.2-1.2-1.4-2.4.7-1.1.8-1.7 1.1-3.7 0-.6 1-.9 2.1-.6 2.7.7 2.5-.4-.4-2.7-3.8-2.7-3-10.6 1-10.6.8 0 1.4.4 1.4 1zm-136 2.5c0 .5-.9 2.1-1.9 3.4-1.8 2.3-1.8 2.3-2.4.2-.3-1.1-.1-2.4.4-2.7.5-.3.7-.9.5-1.3-.3-.3.4-.7 1.5-.7 1 0 1.9.5 1.9 1.1zm116.6 0c-2.2 1.7-4.6 2-4.6.6 0-1 2.2-1.8 5-2 1.1 0 1 .4-.4 1.4zM10 202.6c0 .1-.4.5-1 .9-.5.3-1.6-.8-2.5-2.4-2.1-4.2-1.9-4.6 1-1.5 1.4 1.5 2.5 2.8 2.5 3zm161.7-5c-.3.4-.2 1.5.4 2.5 1.1 2.2-.9 2.7-2.9.7-1.7-1.7-1.5-2.6.6-3.1.9-.3 1.9-.5 2.1-.6.2 0 .1.2-.2.5zm29.6 2.9c1.7 2.4 1.6 4.5-.4 4.5-.5 0-.9-1-.9-2.2 0-2-.1-2.1-2-.3-1.1 1-2 2.4-2 3.2 0 .7-.8 1.3-1.7 1.3-1.5 0-1.6-.2-.3-1 1.2-.8 1.2-1.1-.3-2.8-1.9-2.1-2.2-3.2-.6-3.2.5 0 .8.4.5.9-.7 1.1 1.4 2 3.2 1.4.6-.3 1.2-1.3 1.2-2.4 0-2.6 1.1-2.3 3.3.6zm7.7 1.5c0 .5-.5 1-1.1 1-.6 0-.3.8.7 1.7 1.7 1.7 1.7 1.8-1 2.1-3.7.5-4.2-.2-2.2-3.3 1.7-2.5 3.6-3.3 3.6-1.5zm6.4 2.7c.7 1.6-.6 1.7-2.2.1-.9-.9-1.2-.9-1.2.1 0 1.1-.3 1.1-1.5.1-1.1-.9-1.2-1.5-.2-2.5 1.3-1.4 4.3-.1 5.1 2.2zm-139.3.7c.5-.3.9-.1.9.3 0 .5-1.9 1.4-4.2 2-3.2.9-4.5.9-5 0-.6-.9-.8-.9-.8.1 0 .7-.4 1.1-1 .7-.5-.3-.6-1.3-.3-2.1.4-1.2 1.5-1.4 4.4-.9 2.9.5 3.9.3 4-.7 0-1 .2-1 .6 0 .2.6.9 1 1.4.6zm140.3 8.3c.7.7 2 1 8.1 1.9 4.4.6 6 1.4 2.7 1.4-2.5 0-3.7 1.6-1.8 2.3.8.3 1.7.1 2-.6.3-.7.5-.6.5.4.1 1.9-1.9 4.4-4.1 5.2-1.4.5-1.8.1-1.9-2.1-.1-1.5 0-3.4.1-4.1.1-1.1-.2-1.2-1.2-.4-.7.6-3.1 1.3-5.3 1.6l-4 .6 3.8-1.2c4.1-1.4 4.7-2 3.3-3.4-.5-.5-.6-.3-.2.4.4.7.2 1.3-.3 1.3-.6 0-1.1-.5-1.1-1.1 0-.5-.4-.8-.9-.5-.5.3-1.1-.1-1.5-.9-.6-1.5.5-2 1.8-.8zM40 217.9c-1.3 2.6-1.3 2.7 1 2.8 1.3.1 1.8-.2 1.4-.9-.4-.7-.2-.8.4-.4 2.4 1.4 1.1 2.7-2.5 2.4-7.3-.4-11.5-3.8-4.8-3.8 1.9 0 3.5-.5 3.5-1 0-.6.5-1 1-1 .7 0 .7.6 0 1.9zm193.6 1c-.8 1.3 2 2.1 3.1 1 .6-.6 1-.4 1 .6 0 1.1-.7 1.5-1.9 1.2-1-.3-2.1-.1-2.4.4-.7 1.2-5.4 1.1-5.4-.1 0-.6.5-1 1.1-1 .6 0 1.7-.7 2.5-1.5 1.7-1.7 2.8-2 2-.6zm-14.8 3.4c-.7 1.4-.7 1.7.1 1.2.8-.5 1 .2.6 2.2-.5 2-.4 2.4.3 1.4.8-1.2 1.3-1.2 2.5-.2 1 .8 1.7.9 2.2.1.3-.5 1.1-1 1.8-1 .6 0 .4.7-.5 1.7-1.4 1.3-2 1.4-3.2.4-1-.9-1.6-.9-2.1-.1-.4.6-1.3.9-2.1.6-.8-.3-1.4-.2-1.4.3 0 .4-1.4.8-3 .7-1.9-.1-2.8-.5-2.6-1.3.3-.6.1-1.3-.3-1.5-.5-.2-.5-1.2 0-2.3.7-1.8.8-1.8.8-.2.1 1 .5 1.6 1 1.2.6-.3.8-1.4.6-2.5-.2-1.1 0-2 .6-2 1.4 0 1.1 5.7-.3 6.4-.7.3-.4.4.7.3 1.6-.2 2-1 2-3.8 0-2.6.4-3.5 1.7-3.5 1.3 0 1.4.4.6 1.9zm-168.4 7.5c-.4.9-.6 2.3-.5 3.1.1.7-.2 1-.9.6-.6-.4-.9-1.3-.6-2 .2-.7-.5-1.6-1.7-1.9-2.1-.6-2-.7.8-2 3.2-1.4 4.2-.6 2.9 2.2zm54.8 3.2c.6 0 .1.9-1.1 2-1.6 1.3-3.1 1.7-5.2 1.3-1.8-.3-2.9-.1-2.9.6 0 .6-.5 1.1-1.1 1.1-.8 0-.9-.4 0-1.3.6-.8.9-1.6.6-1.9-.3-.2.5-.4 1.8-.3 3.1.3 4.8-.5 4-1.8-.4-.7 0-.8 1.1-.4 1 .4 2.2.7 2.8.7z"/><path d="M117.1 109.2c-.1 1.1-.6 1.5-1.6 1.2-1-.4-1.5 0-1.5 1 0 1.4.4 1.5 2 .6 2.3-1.2 2.7.2.5 2-.8.7-1.5 1.7-1.5 2.2 0 1.2 2.2-1 3.8-3.7.6-1.1 1.2-1.4 1.2-.8 0 1.8 2 1.6 2-.2 0-.8-.9-1.5-1.9-1.5-1.1 0-2.2-.6-2.4-1.3-.3-.7-.6-.5-.6.5zM150 134c-.9.6-1.1 1-.3 1 .7 0 1 .7.7 1.5-.5 1.1-1.1 1.2-2.4.5-2.1-1.1-2.4-.8-3.4 3.4-.6 2.6-.6 2.8.9 1.6.9-.7 1.3-2 1-2.7-.3-.9 0-1.3.7-1.1.7.3 1.3 1.1 1.3 1.9 0 1.6 7.2 2.6 20.3 2.8 7.9.1 8.2 0 8.1-2.2-.1-1.6-.2-1.8-.6-.5-.3 1.1-1.4 1.8-2.6 1.8-2.3-.1-5.7-2.1-5.7-3.5 0-.4.6-.3 1.3.4 1 .8 1.7.7 2.7-.2 1-1 1.2-.8.6.8-.5 1.4-.4 1.7.3 1 .6-.6 1.4-2.6 1.7-4.5.6-3.2.5-3.4-.8-1.6-.9 1.1-2.4 2.1-3.4 2.2-1.1.2-3.9.6-6.3.9-2.8.4-4.1.3-3.7-.4.4-.5.2-1.3-.4-1.6-.6-.4-.9-.1-.8.7.2.7-.3 1.2-1.1 1-1.2-.3-1.2-.1 0 1.4.9 1.2.9 1.5.2 1-.7-.4-1.3-.2-1.3.3 0 2-1.8 1.1-2.5-1.2-.4-1.2-.7-2.5-.6-3 .1-.4-.6-.7-1.5-.7-.8 0-1.2-.5-.9-1 .8-1.2.4-1.2-1.5 0zM67.7 139.4c-1.1 2.8-.8 3.6 1.3 3.6 1.5 0 2-.7 2-2.8 0-1.9-.3-2.3-.9-1.3-.7 1.1-.9 1.1-1.3 0-.3-.9-.6-.8-1.1.5zM114.3 140.8c.4.6 2.1 1.3 3.7 1.7 3.8.8 3.9 3.2.3 3.8-2.3.3-2.2.4.9.6 2 0 4.4.4 5.4.8 1.1.4 1.5.3 1.1-.4-.4-.6-.3-1.3.1-1.5.5-.1.5-1.4.1-2.8-.4-1.6-.7-1.9-.8-.8-.1 1.8-3.1 2.6-3.1.9 0-.5-1.1-1.2-2.4-1.5-1.3-.3-3.2-.9-4.2-1.3-1.1-.4-1.5-.3-1.1.5zM82.2 144c.1 1.8.6 3 1.5 3 .8 0 1.3-1.2 1.3-3 0-1.9-.5-3-1.4-3-1 0-1.4 1-1.4 3zM106.2 146.6c-1.4 1-.9 1.1 2.8.4 2.5-.5 4.9-.6 5.4-.3.5.4.6.1.2-.5-.9-1.4-6.2-1.2-8.4.4zM129 146c-1.7 1.1 2.9 1.7 6.5.9 3.2-.7 2.8-1-2.1-1.4-1.8-.1-3.7.1-4.4.5zM205 152.9c-1.3 2.6-1.3 3.1.5 3.1.9 0 1.5-.9 1.5-2.5 0-3-.6-3.2-2-.6zM109.4 165.9v5.1h3.4c2.9 0 3.2-.2 2.3-1.4-1-1.2-.8-1.3.8-.9 1.8.5 2.1.1 2.1-3.1 0-2.4-.5-3.6-1.4-3.6-.7 0-2.6-.3-4.2-.6-2.9-.5-2.9-.5-3 4.5zM119 166.9c0 6.1 1.4 7.5 1.7 1.8.2-2.3.7-4.3 1.3-4.5 1.4-.5.2-2.2-1.6-2.2-1 0-1.4 1.3-1.4 4.9zM89.4 164.4c-.4 1-.2 2.2.4 2.8.8.8 1.3.7 1.8-.6.4-1 .2-2.2-.4-2.8-.8-.8-1.3-.7-1.8.6zM129.6 164.5c.5 1.1.9 1.3 1.4.5.5-.8 1.1-.7 2.2.3.9 1 2 1.2 2.9.7 1.8-1.2 1.1-1.7-3.4-2.5-3.2-.6-3.6-.5-3.1 1zM133 169.3c0 2 3.7 2.9 4.4 1.1.3-.8.1-1.4-.3-1.4-.5 0-1.6-.3-2.5-.6-1-.4-1.6-.1-1.6.9zM102.9 174.9c1 .6 1 1.3.3 2.8-2.4 4.4 1.9 9.1 5.3 5.7 1.9-1.9 1.9-2.5.1-4.9-1.2-1.7-1.2-2.1.3-3.2 1.3-1 .9-1.2-2.9-1.3-2.9 0-4 .3-3.1.9zM97 191.1c0 1.1-.4 1.8-.9 1.4-.5-.3-1.2-.1-1.5.4-.6.9 7.4.5 8.3-.4.8-.9-2.2-3.5-4-3.5-1.3 0-1.9.7-1.9 2.1zM87.9 204.6c-1 1.3-1 1.7.2 2.5 1.8 1.1 3.3.6 3.7-1.3.4-2.2-2.4-3-3.9-1.2zM188 177c0 1.1.7 2 1.5 2s1.5-.9 1.5-2-.7-2-1.5-2-1.5.9-1.5 2zM193 177.5c0 1.6.6 2.5 1.5 2.5s1.5-.9 1.5-2.5-.6-2.5-1.5-2.5-1.5.9-1.5 2.5zM76.6 83.8c-.3.5 1.5.8 3.9.8s4.2-.3 3.9-.8c-.3-.4-2-.8-3.9-.8s-3.6.4-3.9.8zM212.6 89.6c-.4 1 .1 2.2 1.1 3 1 .7 2 .8 2.1.3.2-.5 1.2-.9 2.3-.9 1.1 0 1.9-.7 1.9-1.8 0-1.4-.2-1.5-1-.2s-1 1.3-1 .1c0-1.1-.4-.9-1.5.5-1.5 1.8-1.5 1.8-1.3 0 .4-2.4-1.7-3.2-2.6-1zM199 104.4c0 1.4.5 2.6 1 2.6.6 0 1-.7 1-1.5s0-1.8.1-2.2c0-.4-.4-.9-1-1.1-.6-.2-1.1.8-1.1 2.2zM219 106c0 .6.4.9.9.6.5-.3 1.1 1.7 1.3 4.4.2 2.9-.1 5-.7 5.1-.5.1.1.5 1.5.9 2.4.8 2.3.8-.7.9-1.8.1-3.3-.3-3.3-.8s-1-.7-2.2-.3c-2.1.5-2.1.6-.2 1.3 5.3 2.1 17 0 19-3.3.6-1 .5-1-.7-.1-1.2 1-2 .9-3.7-.3-1.8-1.2-2.2-1.2-2.2-.2 0 .9-1.1 1.4-2.7 1.3-2.7 0-2.8-.2-2.9-5-.1-3.8-.5-5.1-1.7-5.3-1-.2-1.7.2-1.7.8zM190.2 119.6c-.4.7-1.6 1.4-2.7 1.7-1.1.2.4.5 3.3.6 3.1.1 5.1-.3 4.7-.8-.3-.6.3-1.4 1.2-2 1.4-.8 1-.9-2-.8-2.1.1-4.2.7-4.5 1.3zM220 121.5c0 .8.9 1.5 2 1.5s2-.7 2-1.5-.9-1.5-2-1.5-2 .7-2 1.5zM183.1 226.4c-1.1.5-2.1 1.6-2.1 2.4 0 1.3.3 1.3 1.8-.1 1-.9 3.2-1.7 5-1.9 1.7-.1 2.9-.5 2.6-.8-.9-.8-5-.7-7.3.4zM191.1 229.4c-.1 1.2-.6 1.6-1.6 1.2-.8-.3-2.5-.1-3.7.4-1.9.7-1.6.9 1.9.9 3.3.1 4.1.4 3.7 1.6-.4.8-.2 1.5.4 1.5.5 0 1.3 1.2 1.6 2.6.6 2.2.9 2.4 2.3 1.2 1.2-.9 1.5-.9.9-.1-.5.9 0 1.3 1.5 1.3 1.8 0 2-.2.8-1.6-.7-.8-2.1-1.3-3.1-1.1-1.3.4-1.8 0-1.8-1.5 0-1 .5-1.6 1-1.3.6.3 1 .2 1-.3 0-.6-.7-1.2-1.5-1.6-.9-.3-2-1.6-2.5-2.8-.7-1.9-.9-2-.9-.4zM238.3 230.2c.3 2.1-.1 2.8-1.7 3.1-1.6.3-1.5.5.7.6 2.8.1 3.2-.9 1.6-4.4-.8-1.7-.9-1.6-.6.7z"/><path d="M185.8 234.1c1 1.4 1 1.8-.3 2.3-1.9.7-2 2.6 0 2.6.8 0 1.4-.6 1.3-1.2-.2-.7.5-1.2 1.5-1 .9.2 1.7-.3 1.7-.9 0-.7-.3-.9-.7-.6-.3.4-1.6-.1-2.7-1-1.7-1.5-1.8-1.5-.8-.2zM202.7 237c-2.3 2.7-2.2 3 1.2 3 3.3 0 6.1-2.4 3.7-3.3-.7-.3-1.9 0-2.5.6-.9.9-1.1.8-.6-.6.9-2.2.3-2.2-1.8.3z"/></g></svg>