<svg version="1" xmlns="http://www.w3.org/2000/svg" width="212" height="320" viewBox="0 0 159 240"><g fill="#ccc"><path d="M140.4 5.6c-1.3 3.6-3.7 5.4-7.1 5.4-3.7 0-4 .6-1.7 3.1 1.2 1.4 1.3 2.2.4 3.9-.8 1.5-1.5 1.8-2.3 1.2-.7-.6-5-1.9-9.7-3-7.1-1.7-9.1-1.9-12.3-.9-4.1 1.3-5.4 4.3-1.3 3.3 2.4-.6 3.6.7 3.6 4 0 2.2-6.2 1.8-8.9-.7-1.2-1.2-2-2.4-1.6-2.7.3-.4 1 0 1.5.8.6.8 1 1 1 .4 0-.5-.8-1.9-1.7-3-1-1.1-2.3-2.9-2.9-4C95.1 9.4 87 8 87 11.7c0 1.9-2.9 8.3-4.8 10.5-.8 1-2.5 1.8-3.7 1.8-1.5 0-2.5.8-2.8 2.1-.4 1.4-1.1 2-2.1 1.6-1.8-.7-8.6 1.1-8.6 2.2 0 1.5-4.7 2.2-7.5 1.1-3.5-1.3-5-2.9-5.9-6.3-.9-3.7-3-3-3.4 1.1-.2 2.2.2 3.4 1.2 3.8 2.3.9 2 3.4-.4 3.4-1.6 0-2-.7-2-3.2 0-2.9-.1-3-1.3-1.4s-1.4 1.6-2.6.2c-.7-.8-1.9-1.2-2.8-.9-1.9.8-5.2-3.3-5.3-6.4 0-1.2-.9-2.7-2-3.3-1.5-.8-2.1-.6-3 1-.6 1.1-1.5 1.8-2 1.5-1.6-1-9.4 1.6-11.2 3.7-1.2 1.3-2.4 1.7-3.8 1.3-1.7-.5-1.8-1-.9-2.7 1.1-2 .9-2.1-3.1-1.5-3.5.4-4.1.3-3.5-1.1.3-.8 0-1.9-.7-2.4-2-1.2-2.8-.9-2.8 1.1 0 1.1-.4 2.3-1 2.6-.7.4-1 38-1 109.6V240h159V133.6c0-103.5-.1-106.4-1.9-106.9-1.1-.3-2.2-1.7-2.6-3.5-.7-3.3-2.9-5.7-4.3-4.8-1.1.7-3.8-2.1-2.9-3 1-1.1 7.4 2.7 8.7 5.1 2.2 4.2 3 2.8 3-5.4V7.2l-3.2-.8c-1.8-.4-4.4-.9-5.8-1-1.4-.2-4-.6-5.7-1-2.7-.5-3.4-.3-3.9 1.2zm-21.6 12c3.3.9 2.7 3.1-.7 3-3.4-.1-4.6-1-3.6-2.5.7-1.3 1.2-1.3 4.3-.5zM144 20c0 1.1-.7 2-1.5 2-1.5 0-2.1-2.1-.8-3.3 1.2-1.3 2.3-.7 2.3 1.3zM43.3 32c2.4 2.8 2.2 3-2 2.3-4.8-.7-5.1-1-2.7-2.8 2.5-1.9 2.6-1.9 4.7.5zM20.5 12c-.9 1.5.3 2.9 2.5 2.7 1-.1 2.1-.9 2.3-1.9.4-1.4-.1-1.8-1.8-1.8-1.3 0-2.7.4-3 1z"/><path d="M43.4 15.1c-.3.6.1 1.8 1 2.7.9.9 1.6 1.1 1.6.5 0-.6.3-1.8.6-2.7.7-1.8-2.1-2.3-3.2-.5zM57.5 23.3c-.9 3.4 1 6 2 2.8.3-1.1.2-2.8-.4-3.8-.8-1.6-1-1.4-1.6 1z"/></g></svg>