<svg version="1" xmlns="http://www.w3.org/2000/svg" width="320" height="212" viewBox="0 0 240 159"><path d="M0 79.5V159h240V0h-30c-20 0-30 .3-30 1s-.6.7-1.9 0c-1.3-.6-14-1-34.5-1C111.7 0 111 0 111 2c0 1.2-.7 2-1.6 2-1.1 0-1.5-.6-1.1-2 .6-2.2-.8-2.6-3.3-1-1.3.8-1.2 1 .4 1 1.3 0 1.6.5 1.1 1.7-.4 1-.8 2.4-.8 3 0 .7-.7 1.3-1.5 1.3-1.2 0-1.2-.2-.1-1.7 1.3-1.5 1.1-1.6-1.5-1.1-4.1.8-5.6 0-5.6-2.9 0-2-.4-2.4-2.7-2.1-2.5.3-2.6.6-2.6 5.6.1 4.5-.1 5.1-1.4 4.1-.8-.7-1.3-2.2-1.2-3.3.1-1.2-.3-3.2-.9-4.6-1-2.4-1-2.4-1 .8.1 3.5-2.1 7.1-2.3 3.9-.2-2.5-.4-3.1-1.2-4.4-.4-.6-.1-1.3.5-1.6.7-.3-17.9-.5-41.4-.6L0 0v79.5zM124.6 5.3c1.8 1 1.8 2.7 0 2.7-.8 0-1.7.6-1.9 1.2-.3.7-.5-1-.5-3.7 0-2.8.3-4.1.5-3 .3 1.1 1.1 2.4 1.9 2.8zm-7.3 11.8c-.6.6-.9 1.8-.6 2.5.3.8 0 1.4-.7 1.4-.6 0-.8-.5-.5-1 .3-.6-.3-1-1.4-1-2.6 0-2.8-1.7-.3-2.3 3.4-.9 4.7-.8 3.5.4zM66.8 140.5c-.2.1-2.5.6-5.2.9-3.4.5-4.6.4-4.1-.3.3-.6 1.1-.9 1.6-.6.5.4.9.2.9-.2 0-.5 1.6-.7 3.6-.5 1.9.2 3.4.5 3.2.7z" fill="#ccc"/></svg>