<svg version="1" xmlns="http://www.w3.org/2000/svg" width="320" height="320" viewBox="0 0 240 240"><g fill="#ccc"><path d="M199.6 126.2c.8 6.6 1.4 7.4 1.4 2.1 0-2.3.5-4.3 1.2-4.5 1.5-.5.1-2.8-1.8-2.8-1.1 0-1.3 1-.8 5.2zM15.5 129.6c-.7 1.7-.8 4.4 0 5.2.1.1 1 0 1.9-.4 1.9-.7 2.1-2.4.3-4.8-1.3-1.8-1.4-1.8-2.2 0zM36.7 136c-.9 4.3.1 6 3.3 6 1.6 0 3.1.4 3.4.8.5.8-5.7.7-15.9-.4-2.7-.3-9.2-.8-14.3-1-5-.3-9.2-1-9.2-1.5s-1-.9-2.2-.8c-2.2 0-2.2.1-.3.9 1.7.7 1.7.9.3.9-1.4.1-1.8 1-1.8 4.6 0 4.1.2 4.5 2.4 4.5 1.3 0 2.7-.6 2.9-1.3.4-.9.8-.9 1.4-.1.4.7 1.7 1.4 2.8 1.7 1.1.2-.6.5-3.7.6L0 151v8.9h17.7c9.7.1 17.9.3 18.1.6.3.3-7.6.5-17.6.5-18 0-18.2 0-18.2 2.2 0 1.2.3 1.8.6 1.5.4-.3 1.5-.2 2.5.4 1.1.6 1.9.6 1.9 0 0-.5 3.3-.9 7.2-.9 4 .1 6.3.3 5.1.5-1.6.3-2.3 1.1-2.2 2.6 0 2.1.1 2.1.9.2.6-1.4.9.3.9 5.4.1 4.1-.2 7.1-.6 6.8-.3-.4-1.2-.2-2 .5-1.1.8-1.2.7-.7-.6.4-1.1.1-1.6-1.1-1.6-.9 0-1.3.4-1 1 .3.5-.1 1-.9 1-1 0-1.6-.9-1.6-2.4 0-2-.4-2.3-2.1-1.9-1.2.3-2.5 0-2.9-.7-.7-1.1-1.1-1-2.4.3-1.7 1.7-2.1 2.8-.8 2.6.4-.1 1.9-.1 3.5 0 2.2.1 2.7.6 2.7 2.6 0 1.4-.3 2.4-.7 2.4-.5-.1-2-.1-3.5 0L0 183v17.4c0 13 .3 17.6 1.3 17.9.9.4.9.6 0 .6-2.9.2-1 2 2.5 2.4l3.7.4-3.7.1c-3.1.2-3.8.6-3.8 2.3 0 1.7.4 2 2.7 1.5 1.6-.3 7.8-.7 14-.8 6.1-.1 10.9-.6 10.7-1-.3-.4.1-.8.9-.8s1.7-.7 2.1-1.5c.3-.8 1.6-1.5 2.8-1.4 2.2.1 2.2.1-.2.9-2.3.7-2.3.8-.3.9 1.2.1 2.9.4 3.9.8 1 .3 1.5.2 1.2-.3-.4-.5.8-1 2.5-1.1 2.8-.2 2.9-.1 1.5 1.4-.9.8-2.8 1.7-4.3 1.9-1.5.1-3.2.7-3.8 1.3-.6.6-4.6 1.1-8.9 1.1-4.9 0-7.8.4-7.8 1.1 0 .7 2.7.9 8.5.6 6.2-.4 8.5-.2 8.5.7 0 1.7 7.2 1.5 7.8-.3.3-.8 0-1.1-.5-.8-.5.3-1 0-1-.7 0-1.5 4.3-1.6 6.5-.3 1.7 1.1 1.5 2.7-.3 2.7-.8 0-1.5.4-1.5 1 0 .5.6 1 1.3 1 .9 0 .9.2 0 .8-1.7 1.1 15.5.4 20.2-.8 4.1-1 6.9-.9 8.1.3.4.4 1.5.7 2.5.7s2.1.5 2.4 1.1c.5.6-1.1 1-4.7.9-17.5-.4-23.5.5-16.3 2.3 1.1.3-1.6.5-6 .5-9.9.1-10.5.1-8 1.2 2.4 1.1 35.5 1.1 44.5 0 3.6-.4 5.8-.8 5-.9-2.5-.2-2.2-3.8.3-4.5 4.3-1.1 11.4-.6 12.7.9 1.8 2.2.8 2.7-5.3 2.8-3.4 0-5.4.5-5.4 1.2 0 .9 17.4 1.3 71.9 1.4l71.8.2v-79.2l-5.7.4c-3.2.2-9.5 1.2-14.1 2.2-6.3 1.4-8.5 1.6-9.4.7-.9-.9-.8-1.2.5-1.2.9 0 1.7-.4 1.7-.9 0-.9-10.5-2.8-12.4-2.2-.5.1-1.3-.4-1.7-1.1-.6-1-1.1-1-2-.1-.8.8-2.1.8-4.7.1-2.1-.6-12.3-.8-25.3-.5-20.5.5-21.9.4-23.5-1.4-2.1-2.3-3.8-2.4-5.9-.2-2.1 2.1-17 3.6-15.3 1.6.8-1 .5-1.3-1.1-1.3-1.2 0-2.1.6-2.1 1.5 0 1.4-1 1.5-6.2.9-3.5-.4-6.8-1.1-7.5-1.6-.7-.5-1.4-.5-1.8.2-1 1.6-3.5 1.2-2.9-.5.4-.8 0-2.2-.7-3.1-.7-.9-1.5-2.5-1.6-3.7-.4-2.6-1.3-3.6-1.3-1.4 0 .9-.4 1.7-1 1.7-1.4 0-1.3-1.2.6-4.9 1.3-2.5 1.3-3.5.4-4.6-1.6-1.9-3.7-1.9-4.7-.1-.9 1.5-6.3 2.8-6.3 1.5 0-.5-.5-.9-1.1-.9-.5 0-.7.4-.4 1 .4.6-1.1 1-3.9 1-2.5 0-4.8.5-5.1 1-.4.6-1.6 1-2.8.8-2.3-.3-4.7-1.9-4.2-2.8.2-.3-1.2-.6-3.1-.7-3.2-.3-3.4-.1-3.4 2.7 0 2.6-.4 3-2.7 3.2-1.6 0-4.1.2-5.8.4-6 .6-12.4.6-13.4-.1-.6-.3-1.1-.1-1.1.4 0 1.3-3.9 1.4-5.8.3-.9-.6-.6-1.2 1.3-2 1.4-.7 2.5-.8 2.5-.2 0 .6 1.1.5 2.6-.2 2-.9 2.7-.9 3.3.1.6.9 1.1.8 2.1-.4.7-.8 1.8-1.5 2.4-1.5.7 0 1.2-1.1 1.1-2.5 0-1.9-1.3-3.4-5.2-6-2.9-1.9-5.4-3.5-5.6-3.5-.3 0-.7 1.3-1 3zm-16.6 10.7c2 .4 2.9 1.2 2.9 2.4 0 2.1-1.2 2.3-7.2 1.3-3.2-.6-3.8-1.1-3.8-3.1 0-2.8 4.3-5.1 4.8-2.6.2.7 1.7 1.6 3.3 2zm73.8 8.1c0 2-.3 3-.6 2.2-.3-.8-1-1.7-1.4-2-1.1-.8.1-5.1 1.2-4.4.5.3.9 2.2.8 4.2zm-42.6 5.9c-2.3.2-6.4.2-9 0-2.6-.2-.7-.3 4.2-.3 5 0 7.1.1 4.8.3zm53.1 4.1c-7.3 1-13.7 1.2-18.8.7-4.3-.4-7.6-.8-7.4-1 .2-.1 6.1-.5 13.1-.8 7.1-.3 13-.7 13.2-.9.2-.2 2.7-.1 5.7.1 4.9.4 4.5.6-5.8 1.9zm45-.7c-.3.5 1.4.9 3.8.9 2.5 0 5.3.7 6.4 1.6 1.8 1.4 1.7 1.5-2.1 1-2.2-.3-6.7-.6-10-.7-3.3-.1-5.2-.3-4.2-.6.9-.2 1.4-.9 1.1-1.5-.5-.7.1-.9 1.5-.5 1.7.4 2.1.2 1.7-.8-.3-.9 0-1.2.9-.8.8.3 1.2.9.9 1.4zm-115.4 5c0 2.7-.4 3.9-1.2 3.7-1.7-.6-1.9-7.8-.1-7.8.9 0 1.3 1.3 1.3 4.1zm87.6.3c.7.8 1.9 1.6 2.6 1.8.7.3 1.2 2.1 1.2 4.1 0 2 .4 3.7.8 3.7s.8 1.7.7 3.7c0 3.1-.2 3.4-.9 1.8-.8-1.8-.9-1.8-.9.5-.1 2-.3 2.2-1.1 1-.5-.8-1.1-1.1-1.2-.5-.1.5-.4-2.4-.8-6.5l-.6-7.5-.2 7.7c-.2 8-1.5 11.3-2 5-.3-4.1-.6-4.7-2.2-3.7-.9.6-.9 1 .1 1.6.9.6-.1.9-2.8.9h-4.1l.4-3.7c.4-3.5 2.4-7.2 2.4-4.5 0 .6.6.9 1.3.6.8-.3 1.8.5 2.5 1.8.9 1.9 1.1 2 1.1.5.1-1 .6-1.5 1.1-1.2.6.3 1 .2 1-.4 0-.5-.5-1.1-1.2-1.3-.7-.3-.9-1.1-.3-2.4.4-1 .7-2.5.6-3.2-.3-1.6.7-1.5 2.5.2zm32.8 2.1c.3.8 1.6 1.5 2.9 1.5 1.3 0 2.9.6 3.6 1.2 1.1 1 1.3 1 .7 0-.4-.6-.2-1.2.3-1.2 1.1 0 1.5 1.5 1.2 3.4-.3 1.6 2.2 2.5 4.2 1.5 1.5-.9 2-.6 2.5 1.3.5 2.1.7 1.9 1.7-1.5.6-2.1 1.5-3.7 2-3.5 1.3.4.7 10-.7 11.3-.8.7-.9.5-.5-.7s.2-1.5-.9-1.1c-.8.3-1.4-.1-1.5-.8-.1-.8-.5-.3-.9 1.1-.7 2.3-.8 2.2-1-1-.1-1.9-.4-2.9-.7-2.1-.5 1.1-.7 1.1-1.4 0-.6-1-.9-.8-.9.8 0 1.2.6 2.3 1.3 2.6.9.3.7 1-.6 2.5-1.2 1.3-1.6 2.8-1.3 4 .4 1.3.1 2.2-.9 2.6-1 .3-1.4.2-1-.5.5-.7-.7-.8-3.4-.4l-4.1.6-.1-4.3-.2-4.3-.9 4.5c-.4 2.5-.8 5.6-.8 6.9 0 2.3-.2 2.4-6.1 1.7-3.3-.3-6.5-.9-7.1-1.2-.9-.6-1-24-.1-25.7.2-.4 3.5-.7 7.3-.7 5.1 0 6.9.4 7.4 1.5zM36.5 213.9c1.1.5 2.8.4 3.8-.1 1.1-.6 2.4-.5 3.5.2 1.5 1 1.5 1.1-.3.7-1.1-.2-2.7.3-3.4 1-1.1 1.2-1.5 1.2-2.1.3-.5-.8-1.9-1.1-3.9-.7-2.9.6-4.8-.3-3.4-1.7.8-.8 3.3-.7 5.8.3zm-11.5 6l3.5 1.1-4-.6c-2.2-.3-6.2-.6-9-.6-4.4 0-4.6-.1-2-.8 3.3-.9 6.2-.7 11.5.9zm134 .3c0 .4 2 .6 4.5.4 2.4-.3 4.7-.1 5 .4.9 1.5-1.3 2.2-3.4 1-1.3-.6-2.2-.7-2.6 0-.4.6-1.7.4-3.5-.5-3.3-1.7-6.5-2.1-4-.5 1.7 1.1.9 1.3-1.5.4-1.3-.5-1.4-.8-.3-1.5 1.6-1 5.8-.8 5.8.3zM24.5 222c1.4.6 0 .9-4.5.9s-5.9-.3-4.5-.9c1.1-.5 3.1-.9 4.5-.9s3.4.4 4.5.9zM118 138c1.2.8 1 1-.9 1-1.7 0-2.2.3-1.5 1 1.5 1.5 33.6.9 34.1-.6.2-.7-3.6-.9-12.7-.6-9.3.3-13 .1-13-.7 0-.6-.4-1.1-1-1.1-.5 0-1 .7-1 1.6 0 .8-.5 1.2-1 .9-.6-.4-.8-1-.6-1.4.3-.4-.5-.8-1.7-.8-1.7-.2-1.9 0-.7.7zM172.2 145.2c.4 1 0 1.4-1.4 1.4-2.9-.1-3.2 1.6-.7 3.2 1.5.9 4.3 1.1 10.5.6 8.1-.6 10.4-1.7 6.7-3.1-1-.4-2.1-1.1-2.4-1.6-.3-.5-3.5-1.1-6.9-1.4-5.3-.5-6.2-.4-5.8.9z"/><path d="M109.4 155.4c-.3.8-1.2 1.2-2 .9-.8-.3-1.4 0-1.4.6 0 1.3 6.6 1.5 7.5.2.3-.6-.4-1.5-1.5-2.1-1.6-.9-2.2-.8-2.6.4zM6 232c-2.3.7-2.2.8 1 .8 1.9 0 4.9-.4 6.5-.8 2.9-.7 2.8-.8-1-.8-2.2 0-5.1.4-6.5.8zM34.4 236.7c1.8.5 1.8.6-.5 1.8-2.2 1.2-2.1 1.3 2.6 1.3 2.8-.1 4.2-.3 3.3-.5-1-.3-1.8-1.1-1.8-1.9 0-.9-1-1.4-2.7-1.3-2.1.1-2.3.3-.9.6z"/></g></svg>