<svg version="1" xmlns="http://www.w3.org/2000/svg" width="320" height="320" viewBox="0 0 240 240"><g fill="#ccc"><path d="M0 120v120h64.7c56.3-.1 64.4-.2 62.7-1.5-1.8-1.4-1.8-1.4.4-1 2.1.4 2.2.2 1.1-1.2-1.2-1.4-1-1.5 2.1-.8 1.9.4 5.1 1.6 7 2.6 3.3 1.8 6.6 1.9 52.7 1.9H240V0H0v120zM151.4 8.7c-.4 1.6-1.1 2.9-1.5 3.1-.4.2-.5 1.9-.2 3.9.4 2.6.3 3.4-.5 2.9-.9-.5-1 .7-.7 4.1.4 4.1.4 4.4-.5 1.8-.5-1.7-.7-6-.3-9.7l.6-6.8-3.2 1.1c-3.1 1.1-4.2 2.1-1.8 1.8.6-.1 1.7-.1 2.3 0 1.5.1.5 5.1-1 5.1-.6 0-.5.4.3.9 1 .7 1.2 1.9.6 4.7-.5 2.2-.7 4.3-.6 4.7.1.5-.8.5-2 .2-1.9-.6-2-.5-.8.8.8.8 1.8 1.2 2.3.9.5-.3.6 0 .3.6-.4.5-.8 2.8-.9 5.1-.1 3.6-.3 3.8-1.5 2.3-1.1-1.5-1.2-1.4-.4.9 1.1 3.1.9 8.5-.4 9.6-.4.4-.5.2-.1-.5s.2-1.2-.6-1.2c-.9 0-.9-.3.2-1.1 1.3-.9 1.3-1 0-.8-2.9.3-4.1-.1-3.4-1.2 1.1-1.8 1.5-10.1.4-9.4-.6.3-1-.1-1-.9 0-.9.3-1.6.8-1.6.4 0 .8-3.4.9-7.5.2-7.1.1-7.4-1.7-6.3-1.1.7-2.1 1-2.4.8-.9-1 .7-6 1.8-6 .7 0 3.9-1.1 7.2-2.5 7.8-3.2 8.6-3.2 7.8.2zm-20 5.9c-.7.3-1 1.3-.7 2.3.3 1.4-1 2.3-6.4 4.6-3.7 1.5-8.7 3.6-11 4.7-5.3 2.3-5.3 2.3-5.3-.7 0-1.9.8-2.8 3.7-4 2-.9 4.3-1.3 5-1 .8.2 1.2.1.9-.4-.6-.8 10.8-5.9 13.4-5.9.8 0 1 .2.4.4zm-26 11.8c-.3.9-1 1.3-1.5 1-.5-.3-.6.2-.3 1 .3.9-.3 1.7-1.6 2.1-2.3.7-4 4.2-4 8.4 0 1.5-.5 3.2-1.1 3.8-.7.7-.5 1.5.7 2.7 1.3 1.4 1.4 2 .5 2.9-1 .9-1.2.9-.9-.3.2-.8-.4-1.5-1.2-1.5-1.1 0-1.5 1.2-1.4 5 0 2.7-.4 5.3-1 5.7-.8.6-.6 1.1.4 1.8.8.5 1.1 1 .5 1-1.8 0-3-1.5-3.1-3.8 0-1.2.4-2.2.9-2.2.4 0 .6-1.4.2-3.1-.5-2.2-.2-3.6 1.1-5 1.5-1.7 1.5-1.9.2-1.4-1.4.6-1.6 0-1.1-3.7C94 30 94.2 29.7 100 26.9c3-1.5 5.6-2.6 5.8-2.4.1.1 0 1-.4 1.9zm27 1.8c1 4 .8 5.2-.9 3.8-1.2-1-1.3-.7-.5 2.2 1.2 4.1 1.3 3.8-.4 3.8-.9 0-1.2.9-1 2.9.3 2.5.1 2.8-1.9 2.5l-2.2-.5 2.3 1.2c1.2.7 2.2 1.6 2.2 2.1s-.4.6-1 .3c-.5-.3-1-.1-1 .4 0 .6.6 1.1 1.3 1.2.9 0 .9.2-.1.6-.6.2-1 .9-.6 1.4.3.5 0 .9-.7.9-.8 0-.8.4.1 1.5 1.1 1.4.9 1.4-1.6 0-4-2.1-5.4-1.9-5.4.8 0 1.7.9 2.7 3.3 3.8 2.3 1 3.3 2.2 3.5 4.1.3 2.9.2 2.9 10.1-.7 4.8-1.7 6.1-1.1 6.1 3 0 1.9-.1 1.9-1.5-.2l-1.4-2.1-6.3 2.3c-3.5 1.3-6.2 2.8-6 3.4.1.6-.2 1.2-.8 1.2-.5.1-1.5.2-2.1.3-.6 0-1.7 1-2.5 2.1-1.4 1.9-1.3 2 1.3 2.5 2.3.4 2.9 1.1 3.1 3.6.2 2.4 1.1 3.4 3.9 4.8 1.9.9 3.3 1.9 3 2.2-.3.3-1.9-.2-3.6-1.1l-3.1-1.6v66l5.8 1.5c3.1.9 6.3 2 7.1 2.4 1.7 1 2.5 6.5.8 5.9-.7-.2-1.1-1.1-.9-2 .1-.8-.2-1.8-.8-2.2-.5-.3-1 .3-1 1.4 0 2.5-1.1 2.6-6.5.7-2.2-.8-6.4-1.4-9.3-1.5l-5.3-.1.2 9.9.1 10 4.2.7c5.3.9 9.8.6 10.7-.7 1.2-2 6.9 0 8 2.8 1.2 3.3 1.2 9.6-.1 8.8-.5-.3-1-.2-1 .4 0 .5-1.3 1.2-2.9 1.6-1.6.3-3.5 1.3-4.2 2.1-1.3 1.6-3.3 1.9-2.3.3.4-.8-.1-.9-1.7-.3-2.9 1-5 1-10.9.1-2.5-.4-3.8-.4-3-.1.8.3 2.4.9 3.5 1.4 1.1.5 2.9 1 4 1.2 1.5.2 2.1 1.2 2.3 3.7.2 1.8 0 3.7-.5 4.1-.7.7-14.8-1.2-18-2.5-.8-.2-1.3-2.2-1.3-4.9 0-3.3 1.1-6.5 4.7-13.3l4.7-8.8.4-11.6.4-11.6-3.1.5c-2.6.4-3.1.1-3.1-1.7 0-1.1-.4-2.1-1-2.1-.5 0-1-.7-1-1.5 0-1.3 1.8-2 4.3-1.6.4 0 .7-.4.7-1 0-2.3 2 .4 2.2 2.9.3 5.8 1.4-8 1.6-20.3.1-7.2.5-20.3.8-29.3l.7-16.3 2.5.3c1.4.2 2.7-.2 2.9-.8.2-.7-2-1.2-6.4-1.3-6.8-.2-16.6 2.3-20.2 5.1-1.4 1.1-1.4 1.1-.3-.4 1.8-2.3 8.8-4.8 15.3-5.6 5.3-.7 5.4-.8 6-4.4.5-3.6-.4-5.8-2.4-5.8-.5 0-.4.7.3 1.5.7.9 1 1.9.6 2.2-.4.4-1.1.2-1.5-.5-1-1.6-3.5-1.1-16.9 4-11.5 4.3-11.9 4.4-10.2 2.3.7-.8 1.8-1.5 2.6-1.5.7 0 1.6-.4 1.9-1 .7-1.1-1.2-.6-7.2 2.1-2.4 1.1-4.3 2.1-4.3 2.4 0 .3.9.1 1.9-.5 1.4-.7 2.2-.7 2.7.2.4.6.3.8-.4.4-2.5-1.5-1.9 1.2.9 3.8 1.6 1.5 2.9 3.4 2.9 4.2 0 2.5-1.6 1.5-3.3-2.1-1-2.1-3.1-4.2-5.4-5.4-3.4-1.7-4.3-1.7-7.5-.6-3.4 1.1-3.6 1.1-3.5-.6.1-1.4 1.8-2.4 6.2-3.9 3.4-1.1 7-2.2 8.1-2.4 1-.3 2.8-.8 3.8-1.2 1.5-.6 1.7-.4 1.1.6-.5.9-.4 1.1.4.6.6-.4.9-1.2.6-1.7-.6-.9 3.1-2.7 7.4-3.5 3.8-.8 6.1-2.3 6.2-4.2 0-1.4.2-1.4.9.3.8 1.8.9 1.9.9.1.1-1.2.6-1.6 1.6-1.3.8.4 1.7.2 2-.3.6-1-3-2.4-4.3-1.6-.8.5.3-15.7 1.3-18.2.3-.9 1.4-1.3 3-1 1.3.3 2.2.2 2-.2-.7-1.1 8.4-5.2 9.7-4.4.7.4.8.3.4-.4-.6-1.1.5-1.5 3-1.1.4 0 1-.4 1.3-1 .4-.6 1.7-1.2 2.9-1.4 1.2-.2 2.5-.6 2.8-1 1.3-1.2 2.2-.7 2.8 1.5zm7.7 18.7c.5 1.2.5 2 0 1.7-.5-.3-1.1.4-1.4 1.6-.4 1.3-.1 2.6.6 3 .9.5.9 1-.1 2-.9.9-1.5.9-2.4-.1-1.1-1-.9-1.1.6-.5 1.5.6 1.7.4 1-.7-1.1-1.8-1.3-7-.2-6.3.4.3.8 0 .8-.5 0-.6-.4-1.1-1-1.1-.5 0-1-.5-1-1.1 0-1.8 2.3-.4 3.1 2zm28.5 9.7c-.3.8-.2 1.2.4.9.6-.3 1-.1 1 .5s-1 1.5-2.2 2c-2.3.9-2.3.9.2.9 2.2.1 2 .5-2.3 3.2-3.9 2.6-5 2.9-6.2 1.9-1.6-1.3-2.1-5-.7-5 .5 0 2.4-1.4 4.2-3 3.6-3.3 6.6-4 5.6-1.4zm.3 8.1c-1.2 1.5-1.2 1.6.4 1 2.4-.9 2.1 0-.4 1.4-1.7.8-2 .8-1.4-.1.5-.9.1-1-1.6-.5l-2.4.6 2.5-2c3-2.5 4.8-2.7 2.9-.4zM157.2 68c-.2 1.6-.8 3-1.2 3-.5 0-2 .4-3.3.9l-2.5 1 1.4 7.2c1.8 9.4 2.8 10.2 1.9 1.5-.7-6.5-.7-6.9 1.1-6.1 1.1.4 2.9 1 4.2 1.2 1.2.3 2.2.9 2.2 1.4 0 .5.7.9 1.5.9.9 0 1.8.6 2.1 1.4.5 1.3-2.1 16.4-2.9 17.3-.2.1-2.2-.4-4.4-1.3l-4-1.6-2.2-10.5c-2.3-11-2.1-12.5 2-13.8 1.2-.4 1.9-1.6 1.9-3.1 0-1.3.6-2.4 1.3-2.4.9 0 1.2 1 .9 3zM106 80.8c0 2.3-1.9 4.2-4.2 4.2-2.1 0-2.4-3-.6-4.8 1.8-1.8 4.8-1.5 4.8.6zM98 86c2.4 2.4 4 6.3 3.9 9.3-.1 1.7-.3 1.5-1-.8-.6-2.3-1.5-3.1-3.5-3.3-1.4-.1-3-.4-3.5-.8-1.4-.8-1.1-2.4.6-2.4 2 0 1.9-1-.2-2.6-1.7-1.3-1.7-1.3 0-1.4.9 0 2.6.9 3.7 2zm-12.9 17.3c-2.6 7.5-4.1 10.2-4.1 7.2 0-1.1.6-2.9 1.3-4 .7-1.1 2-4.7 2.8-8 .9-3.8 1.5-5.2 1.7-3.7.2 1.2-.6 5.1-1.7 8.5zM60.8 113c.5 0 1.3-1 1.6-2.3.6-2.1.7-2.1 2.2.8.9 1.6 2.6 4 3.8 5.3 1.1 1.3 1.7 2.2 1.1 2.1-2-.6-5.4 1.2-4.9 2.5.4 1-.4 1.3-2.8 1-2.8-.3-3-.2-1.7.9 2.7 2.1 3.3 5.6 1.2 7.9-1.2 1.5-1.3 1.9-.3 1.3 1.3-.7-.2 1.3-4.4 6-.4.5-.4.1.2-1 .5-1.1.8-4 .5-6.5-.2-2.5 0-5.6.5-6.9.7-2 .4-3.2-1.5-5.9-1.2-1.9-2.3-4.2-2.3-5.1.1-.9.7-.3 1.4 1.4 1.3 2.9 5.1 7.5 6.2 7.5.3 0-.6-1.4-2-3.1-1.4-1.7-2.6-3.6-2.6-4.2 0-.7-.3-2.3-.6-3.7l-.6-2.5 2 2.2c1.1 1.3 2.5 2.3 3 2.3zm132.1 1.4c1.3 1.4 2.1 3.1 1.8 3.8-.4.9-.6.8-.6-.3-.1-1.6-3.8-5.6-4.5-4.8-.2.2-1.1 1.7-2 3.4l-1.7 3 .6-3c.6-2.7 2-4.4 3.6-4.5.3 0 1.6 1.1 2.8 2.4zm3.1 7.4c0 1-.6 2.6-1.3 3.6-1.6 2.2-5.2 1.5-6.2-1.1-.5-1.4-.2-1.3 1.5.2 2.2 1.9 2.2 1.9 3.6 0 .8-1 1.4-2.5 1.4-3.2 0-.7.2-1.3.5-1.3s.5.8.5 1.8zM102.4 134c1.2 2.6 1.2 2.9-.4 3.3-2 .5-4.5-3.7-3.4-5.5.4-.6.2-.8-.3-.5-.9.6-4.3-3.2-4.3-4.8 0-1.4 7.1 5 8.4 7.5zm-10.6-3.6c1.2 1.3 1.9 2.6 1.5 2.8-.5.3-.2.3.4.2 1.3-.3 2.8 3.7 2.5 6.8 0 1 .3 1.8.9 1.8.5 0 .9.4.9 1 0 .5-.7 1-1.5 1-1.1 0-1.5-1.2-1.5-4.6 0-3.4-.4-4.5-1.3-4.1-.7.3-2.2-1.2-3.5-3.4-2.5-4.4-1.8-5.1 1.6-1.5zm90.7.6c-.3.5 0 1 .7 1.1.7 0 0 .5-1.7 1s-3.8 2.2-5 4.1l-1.9 3.3-.4-2.8c-.5-4.2 2.2-7.7 5.9-7.7 1.8 0 2.8.4 2.4 1zm-121 7.1c-1.9 2.8-3.5 5.6-3.5 6.2 0 .6-.2.8-.5.5-1-.9 1.5-6.2 4.3-9.1 3.7-3.9 3.7-3.4-.3 2.4zm2.2 4.1c-.7 1-1.5 1.8-2 1.8-.4 0-.5.5-.1 1.2s.3.8-.5.4c-1.2-.8-.6-4.1 1.2-6.4 1.6-2 2.8.7 1.4 3zm11.6 5c-.3 2.1-.9 3.8-1.4 3.8-.5 0-.8-.3-.8-.8.3-1.8-.2-3.2-1.1-3.2-.5 0-1 .7-1 1.5s-.4 1.5-1 1.5c-1.3 0-.1-3.1 2.3-5.8 2.6-2.8 3.6-1.8 3 3zm116.7 6c-2.1 5.8-4.5 8.1-4.7 4.6-.1-1.1.7-2.3 2-2.8 1.2-.5 1.9-.9 1.4-.9-.4-.1-.1-1.4.8-3.1.8-1.6 1.6-3.9 1.6-5.2.2-2.1.2-2.1.6-.2.2 1.1-.5 4.6-1.7 7.6zm-109.9 3.9c-1.3 3.7-3.9 6.9-5.5 6.9-.6 0-.3-.5.7-1.1 1-.6 1.7-2.2 1.7-4.1 0-1.8.7-3.6 1.7-4.4 2.4-1.7 2.7-1.1 1.4 2.7zm101.9 1.4c0 .7.6 1.6 1.3 1.9.6.3.1.3-1.3 0-1.4-.3-3-1.1-3.7-1.8-.9-.8-.7-1.1 1.2-1.2 1.5-.1 2.5.4 2.5 1.1zm-74.2 4.4c-.2 1.1-1.6 1.7-5.1 1.9-4 .3-4.7 0-4.7-1.5 0-3.3 1.8-4.1 6.1-3 2.8.7 3.9 1.4 3.7 2.6zm30.5-.4c4.1 1.2 6.1 2.3 6.7 3.8 1.2 3.2.1 3.7-4.9 2.6-2.4-.5-5.3-.7-6.5-.4-1.6.5-1.7.4-.7-.4 1.1-.7.8-1-1.5-1.3-2-.2-2.9-.8-2.8-2.1.1-.9.2-2.4.3-3.3.1-1 .7-1.3 1.9-1 .9.3 4.3 1.2 7.5 2.1zm-82 2.2c.9 0 1.7-.4 1.7-.9 0-1.9 2.1-.6 3.3 1.9.6 1.6 1.4 3 1.7 3.3.3.3 1.1 1.2 1.8 2.1 1.1 1.4 1 1.7-.5 1.5-1.3-.1-1.7.5-1.6 2.1.2 1.3-.1 2.3-.5 2.3-2 0-5.6-3.7-7.3-7.4-1.8-4-2.6-8.2-1.1-6 .4.6 1.5 1.1 2.5 1.1zm.6 9.7c3.2 3.5 3.3 3.8.9 2.3-2.7-1.7-2.8-1.7-2.8.6 0 1.2-.9 4.1-2.1 6.2-1.2 2.2-2.8 5.2-3.5 6.6-.8 1.5-2.1 3.2-2.9 3.9-1 .8-1.5 3-1.5 6.1 0 2.7-.5 4.9-1 4.9-2.5 0 .2-10.5 4.3-16.8 4.7-7.3 5.8-13.3 3.3-18-.9-1.7-1.6-3.7-1.6-4.4.1-.7.8 0 1.7 1.7.8 1.6 3.2 4.8 5.2 6.9zm120.7-1.1c.9 2.7.3 2.9-5.5 1.5-4.6-1-5.1-1.4-5.1-3.9v-2.7l5 1.6c3.1 1 5.2 2.3 5.6 3.5zm-27.2 12.9l-1.9 2.2 2.5-1.7c4.5-3.1 9.1-1.7 13 3.8.8 1.1-.2.5-2.1-1.3-3.9-3.6-6.3-4-9.8-1.6-6.9 4.9-6.9 21.4.1 29.8 3.7 4.5 7.7 4.8 11.3 1 4.4-4.8 5.6-12.5 3.1-20.7-.8-2.6-1-4.4-.5-4.1.5.3.9 1.2.9 2.1 0 1.4.3 1.3 2.2-.3 2.1-1.8 2.2-1.8.8 0-1 1.2-1.5 4.4-1.5 10 0 9.2-2.1 14.1-6.8 16.4-4.2 2-9.4-.9-12.6-7.1-2.6-5.2-4.4-19-2.7-20.7.5-.5.6-1.3.2-1.7-.4-.4-1.1-.1-1.6.7-.8 1.3-1 1.2-1-.3 0-1.6 1.2-2.2 3.4-1.8.5.1.4-.5-.3-1.3-1.1-1.3-1-1.9 1-3.6 3.2-2.6 4.7-2.5 2.3.2zm-72.9 7.3c-4.4.8-8.1 1.2-8.3 1-.7-.6 8.2-2.3 12.3-2.3 2.7 0 1.3.4-4 1.3zm21.5 3.9c0 1.5-.7 2.7-1.7 3-2.7.8-30.7 4.4-40.5 5.2-8.5.6-8.8.6-8.8-1.4 0-1.8.8-2.2 5.8-2.7 12.2-1.4 40.6-5.6 41.1-6 .2-.3 1.3-.5 2.3-.5 1.2 0 1.8.7 1.8 2.4zm19 12.6c0 .5-.8.7-1.7.3-1.4-.5-1.3 0 .6 2 2.2 2.5 2.2 4.7-.1 4.7-.6 0-.8-.3-.5-.7.4-.3-.3-1.7-1.5-3-1.9-2-2-2.5-.8-3.3 2-1.3 4-1.3 4 0zm-12.9 2.7c-2.2.3-3.5 1.1-3.8 2.4-.3 1-1.3 1.9-2.2 1.9-1 0-1.2-.3-.5-.8.6-.4 1.3-1.5 1.7-2.5.5-1.2 1.6-1.7 4.4-1.5l3.8.1-3.4.4zM96 214c-1.3.9-1.3 1 .1 1 .8 0 2.1-.6 2.8-1.3.8-.6.6 0-.4 1.5-.9 1.6-2.2 2.8-2.9 2.8-.6 0-.4-.5.4-1 1.3-.9 1.3-1 0-1.1-.8-.1-2.4-.1-3.5 0-1.7.2-1.6 0 .5-1.3 2.8-1.6 5.3-2.1 3-.6zm-25.3 9.1c.6.6.9 1.7.7 2.4-.8 1.9-4.4.6-4.4-1.6 0-2.1 2-2.5 3.7-.8z"/><path d="M108.9 40.2c-.1.2-.3 1.3-.4 2.6-.2 1.6.4 2.4 2.2 2.8 3 .8 1.3 2.3-2.7 2.5-2.3.1-2.3.2.5.9 2.5.6 2.6.8.7.9-1.3 0-2 .5-1.7 1.1.3.5-.3 1-1.4 1-2.9 0-2.6 1.2.9 3.2 1.7.9 3 1.3 3 .7 0-.5-1-1.4-2.2-2-2.2-.9-2.2-.9.2-.3 4.3 1 7.6 1.4 6.1.8-1.1-.5-1.1-.8 0-1.6 1-.6.7-.7-.8-.3-1.3.3-2.8.3-3.4-.1-1.8-1.1 1.2-2.4 5.6-2.3 2.9 0 3.5.3 2.1.8-1.7.7-1.8.8-.3 1.4 1.1.4 2-.1 2.7-1.3 1-1.8 5-2.4 5-.8 0 .4.3.8.8.8.4 0 .8-1.4.8-3 .2-3 .1-3-1.5-1.1-1.6 1.8-1.8 1.8-2.9.3-.6-.9-1.1-1.2-.9-.6.1.7-.2 1.3-.8 1.3-.5.1-1.1-1.2-1.3-2.8-.2-2.5 0-2.9 1.6-2.4 1.9.5 4-1.3 2.8-2.4-1.1-1.1-5.5.8-6.1 2.7-.8 2.4-2.5 2.7-2.5.3 0-1.4-.2-1.4-2 .2-2.3 2-3 1.7-3.3-1.4-.1-1.9-.4-2.6-.8-1.9z"/></g></svg>